UbuntuSans-CondensedExtraBoldItalic.ufo
<glyph name="dollar" format="2">
  <advance width="420"/>
  <unicode hex="0024"/>
  <outline>
    <contour>
      <point x="57" y="-109" type="line"/>
      <point x="178" y="-109" type="line"/>
      <point x="207" y="11" type="line"/>
      <point x="311" y="37"/>
      <point x="373" y="122"/>
      <point x="373" y="227" type="curve" smooth="yes"/>
      <point x="373" y="297"/>
      <point x="333" y="343"/>
      <point x="297" y="383" type="curve" smooth="yes"/>
      <point x="263" y="420"/>
      <point x="227" y="450"/>
      <point x="227" y="488" type="curve" smooth="yes"/>
      <point x="227" y="538"/>
      <point x="256" y="562"/>
      <point x="308" y="562" type="curve" smooth="yes"/>
      <point x="342" y="562"/>
      <point x="383" y="554"/>
      <point x="407" y="541" type="curve"/>
      <point x="449" y="644" type="line"/>
      <point x="424" y="658"/>
      <point x="398" y="666"/>
      <point x="366" y="670" type="curve"/>
      <point x="391" y="776" type="line"/>
      <point x="270" y="776" type="line"/>
      <point x="243" y="662" type="line"/>
      <point x="155" y="635"/>
      <point x="94" y="560"/>
      <point x="94" y="464" type="curve" smooth="yes"/>
      <point x="94" y="395"/>
      <point x="135" y="354"/>
      <point x="172" y="315" type="curve" smooth="yes"/>
      <point x="205" y="280"/>
      <point x="237" y="251"/>
      <point x="237" y="207" type="curve" smooth="yes"/>
      <point x="237" y="152"/>
      <point x="208" y="116"/>
      <point x="156" y="116" type="curve" smooth="yes"/>
      <point x="118" y="116"/>
      <point x="63" y="127"/>
      <point x="32" y="153" type="curve"/>
      <point x="-12" y="43" type="line"/>
      <point x="13" y="28"/>
      <point x="47" y="14"/>
      <point x="85" y="8" type="curve"/>
    </contour>
  </outline>
</glyph>
<glyph name="percent" format="2">
  <advance width="695"/>
  <unicode hex="0025"/>
  <outline>
    <contour>
      <point x="90" y="0" type="line"/>
      <point x="208" y="0" type="line"/>
      <point x="642" y="693" type="line"/>
      <point x="525" y="693" type="line"/>
    </contour>
    <contour>
      <point x="482" y="-16" type="curve" smooth="yes"/>
      <point x="603" y="-16"/>
      <point x="668" y="133"/>
      <point x="668" y="256" type="curve" smooth="yes"/>
      <point x="668" y="326"/>
      <point x="625" y="369"/>
      <point x="555" y="369" type="curve" smooth="yes"/>
      <point x="435" y="369"/>
      <point x="371" y="222"/>
      <point x="371" y="97" type="curve" smooth="yes"/>
      <point x="371" y="26"/>
      <point x="412" y="-16"/>
    </contour>
    <contour>
      <point x="491" y="72" type="curve"/>
      <point x="477" y="72"/>
      <point x="473" y="82"/>
      <point x="473" y="100" type="curve" smooth="yes"/>
      <point x="473" y="148"/>
      <point x="508" y="281"/>
      <point x="547" y="281" type="curve" smooth="yes"/>
      <point x="562" y="281"/>
      <point x="566" y="271"/>
      <point x="566" y="253" type="curve" smooth="yes"/>
      <point x="566" y="205"/>
      <point x="532" y="72"/>
    </contour>
    <contour>
      <point x="177" y="324" type="curve" smooth="yes"/>
      <point x="298" y="324"/>
      <point x="363" y="473"/>
      <point x="363" y="596" type="curve" smooth="yes"/>
      <point x="363" y="666"/>
      <point x="320" y="709"/>
      <point x="250" y="709" type="curve" smooth="yes"/>
      <point x="130" y="709"/>
      <point x="66" y="562"/>
      <point x="66" y="437" type="curve" smooth="yes"/>
      <point x="66" y="366"/>
      <point x="107" y="324"/>
    </contour>
    <contour>
      <point x="186" y="412" type="curve"/>
      <point x="172" y="412"/>
      <point x="168" y="422"/>
      <point x="168" y="440" type="curve" smooth="yes"/>
      <point x="168" y="488"/>
      <point x="203" y="621"/>
      <point x="242" y="621" type="curve" smooth="yes"/>
      <point x="257" y="621"/>
      <point x="261" y="611"/>
      <point x="261" y="593" type="curve" smooth="yes"/>
      <point x="261" y="545"/>
      <point x="227" y="412"/>
    </contour>
  </outline>
</glyph>
<glyph name="ampersand" format="2">
  <advance width="530"/>
  <unicode hex="0026"/>
  <outline>
    <contour>
      <point x="166" y="-14" type="curve"/>
      <point x="218" y="-14"/>
      <point x="277" y="11"/>
      <point x="324" y="55" type="curve"/>
      <point x="333" y="37"/>
      <point x="340" y="19"/>
      <point x="345" y="0" type="curve"/>
      <point x="475" y="0" type="line"/>
      <point x="463" y="58"/>
      <point x="446" y="107"/>
      <point x="425" y="146" type="curve"/>
      <point x="471" y="208"/>
      <point x="507" y="280"/>
      <point x="522" y="361" type="curve"/>
      <point x="410" y="377" type="line"/>
      <point x="402" y="329"/>
      <point x="386" y="287"/>
      <point x="367" y="250" type="curve"/>
      <point x="316" y="354" type="line"/>
      <point x="337" y="367" type="line" smooth="yes"/>
      <point x="438" y="429"/>
      <point x="468" y="510"/>
      <point x="468" y="575" type="curve" smooth="yes"/>
      <point x="468" y="656"/>
      <point x="419" y="707"/>
      <point x="326" y="707" type="curve" smooth="yes"/>
      <point x="207" y="707"/>
      <point x="129" y="621"/>
      <point x="129" y="508" type="curve" smooth="yes"/>
      <point x="129" y="470"/>
      <point x="136" y="436"/>
      <point x="156" y="393" type="curve"/>
      <point x="144" y="386" type="line" smooth="yes"/>
      <point x="47" y="329"/>
      <point x="1" y="242"/>
      <point x="1" y="147" type="curve" smooth="yes"/>
      <point x="1" y="49"/>
      <point x="63" y="-14"/>
    </contour>
    <contour>
      <point x="195" y="99" type="curve"/>
      <point x="158" y="99"/>
      <point x="125" y="126"/>
      <point x="125" y="181" type="curve" smooth="yes"/>
      <point x="125" y="216"/>
      <point x="139" y="256"/>
      <point x="181" y="293" type="curve" smooth="yes"/>
      <point x="198" y="308" type="line"/>
      <point x="282" y="140" type="line"/>
      <point x="253" y="114"/>
      <point x="223" y="99"/>
    </contour>
    <contour>
      <point x="273" y="441" type="line"/>
      <point x="258" y="474"/>
      <point x="251" y="499"/>
      <point x="251" y="521" type="curve" smooth="yes"/>
      <point x="251" y="572"/>
      <point x="277" y="607"/>
      <point x="310" y="607" type="curve" smooth="yes"/>
      <point x="332" y="607"/>
      <point x="348" y="590"/>
      <point x="348" y="559" type="curve" smooth="yes"/>
      <point x="348" y="521"/>
      <point x="338" y="486"/>
      <point x="286" y="450" type="curve"/>
    </contour>
  </outline>
</glyph>
<glyph name="quotesingle" format="2">
  <advance width="244"/>
  <unicode hex="0027"/>
  <outline>
    <contour>
      <point x="133" y="471" type="curve"/>
      <point x="206" y="471" type="line"/>
      <point x="236" y="534"/>
      <point x="276" y="635"/>
      <point x="289" y="689" type="curve" smooth="yes"/>
      <point x="306" y="760" type="line"/>
      <point x="173" y="760" type="line"/>
      <point x="156" y="689" type="line" smooth="yes"/>
      <point x="143" y="635"/>
      <point x="133" y="534"/>
    </contour>
  </outline>
</glyph>
<glyph name="parenleft" format="2">
  <advance width="323"/>
  <unicode hex="0028"/>
  <outline>
    <contour>
      <point x="116" y="-187" type="curve"/>
      <point x="215" y="-135" type="line"/>
      <point x="186" y="-53"/>
      <point x="175" y="16"/>
      <point x="175" y="103" type="curve" smooth="yes"/>
      <point x="175" y="305"/>
      <point x="265" y="544"/>
      <point x="414" y="726" type="curve"/>
      <point x="328" y="785" type="line"/>
      <point x="174" y="632"/>
      <point x="44" y="340"/>
      <point x="44" y="112" type="curve" smooth="yes"/>
      <point x="44" y="-2"/>
      <point x="69" y="-102"/>
    </contour>
  </outline>
</glyph>
<glyph name="asterisk" format="2">
  <advance width="427"/>
  <unicode hex="002A"/>
  <outline>
    <contour>
      <point x="236" y="378" type="line"/>
      <point x="247" y="393"/>
      <point x="257" y="413"/>
      <point x="280" y="504" type="curve"/>
      <point x="303" y="414"/>
      <point x="313" y="394"/>
      <point x="323" y="379" type="curve"/>
      <point x="425" y="453" type="line"/>
      <point x="415" y="468"/>
      <point x="399" y="484"/>
      <point x="319" y="534" type="curve"/>
      <point x="412" y="528"/>
      <point x="434" y="531"/>
      <point x="451" y="537" type="curve"/>
      <point x="412" y="657" type="line"/>
      <point x="395" y="651"/>
      <point x="375" y="641"/>
      <point x="303" y="582" type="curve"/>
      <point x="337" y="667"/>
      <point x="341" y="688"/>
      <point x="341" y="707" type="curve"/>
      <point x="215" y="707" type="line"/>
      <point x="215" y="688"/>
      <point x="219" y="667"/>
      <point x="253" y="580" type="curve"/>
      <point x="182" y="639"/>
      <point x="163" y="649"/>
      <point x="145" y="655" type="curve"/>
      <point x="106" y="535" type="line"/>
      <point x="124" y="529"/>
      <point x="145" y="526"/>
      <point x="239" y="532" type="curve"/>
      <point x="160" y="483"/>
      <point x="145" y="467"/>
      <point x="134" y="452" type="curve"/>
    </contour>
  </outline>
</glyph>
<glyph name="period" format="2">
  <advance width="249"/>
  <unicode hex="002E"/>
  <outline>
    <contour>
      <point x="69" y="-13" type="curve" smooth="yes"/>
      <point x="116" y="-13"/>
      <point x="163" y="31"/>
      <point x="163" y="88" type="curve" smooth="yes"/>
      <point x="163" y="131"/>
      <point x="131" y="158"/>
      <point x="87" y="158" type="curve" smooth="yes"/>
      <point x="40" y="158"/>
      <point x="-7" y="113"/>
      <point x="-7" y="56" type="curve" smooth="yes"/>
      <point x="-7" y="14"/>
      <point x="25" y="-13"/>
    </contour>
  </outline>
</glyph>
<glyph name="two" format="2">
  <advance width="420"/>
  <unicode hex="0032"/>
  <outline>
    <contour>
      <point x="-12" y="0" type="curve"/>
      <point x="340" y="0" type="line"/>
      <point x="367" y="114" type="line"/>
      <point x="160" y="114" type="line"/>
      <point x="185" y="170"/>
      <point x="222" y="220"/>
      <point x="284" y="287" type="curve" smooth="yes"/>
      <point x="382" y="392"/>
      <point x="441" y="461"/>
      <point x="441" y="555" type="curve" smooth="yes"/>
      <point x="441" y="647"/>
      <point x="387" y="707"/>
      <point x="294" y="707" type="curve" smooth="yes"/>
      <point x="223" y="707"/>
      <point x="158" y="686"/>
      <point x="104" y="645" type="curve"/>
      <point x="147" y="552" type="line"/>
      <point x="180" y="576"/>
      <point x="210" y="589"/>
      <point x="245" y="589" type="curve" smooth="yes"/>
      <point x="275" y="589"/>
      <point x="299" y="574"/>
      <point x="299" y="532" type="curve" smooth="yes"/>
      <point x="299" y="465"/>
      <point x="251" y="416"/>
      <point x="156" y="317" type="curve" smooth="yes"/>
      <point x="78" y="235"/>
      <point x="10" y="130"/>
    </contour>
  </outline>
</glyph>
<glyph name="three" format="2">
  <advance width="420"/>
  <unicode hex="0033"/>
  <outline>
    <contour>
      <point x="114" y="-14" type="curve"/>
      <point x="265" y="-14"/>
      <point x="369" y="89"/>
      <point x="369" y="235" type="curve" smooth="yes"/>
      <point x="369" y="290"/>
      <point x="351" y="333"/>
      <point x="301" y="366" type="curve"/>
      <point x="396" y="412"/>
      <point x="434" y="483"/>
      <point x="434" y="565" type="curve" smooth="yes"/>
      <point x="434" y="654"/>
      <point x="377" y="707"/>
      <point x="285" y="707" type="curve" smooth="yes"/>
      <point x="220" y="707"/>
      <point x="162" y="691"/>
      <point x="119" y="661" type="curve"/>
      <point x="149" y="564" type="line"/>
      <point x="184" y="582"/>
      <point x="208" y="589"/>
      <point x="236" y="589" type="curve" smooth="yes"/>
      <point x="275" y="589"/>
      <point x="293" y="567"/>
      <point x="293" y="530" type="curve" smooth="yes"/>
      <point x="293" y="468"/>
      <point x="246" y="420"/>
      <point x="178" y="420" type="curve" smooth="yes"/>
      <point x="134" y="420" type="line"/>
      <point x="107" y="307" type="line"/>
      <point x="153" y="307" type="line" smooth="yes"/>
      <point x="198" y="307"/>
      <point x="229" y="282"/>
      <point x="229" y="231" type="curve" smooth="yes"/>
      <point x="229" y="159"/>
      <point x="190" y="105"/>
      <point x="121" y="105" type="curve"/>
      <point x="85" y="105"/>
      <point x="51" y="116"/>
      <point x="28" y="132" type="curve"/>
      <point x="-27" y="20" type="line"/>
      <point x="5" y="-1"/>
      <point x="52" y="-14"/>
    </contour>
  </outline>
</glyph>
<glyph name="four" format="2">
  <advance width="420"/>
  <unicode hex="0034"/>
  <outline>
    <contour>
      <point x="162" y="0" type="line"/>
      <point x="296" y="0" type="line"/>
      <point x="330" y="143" type="line"/>
      <point x="392" y="143" type="line"/>
      <point x="418" y="249" type="line"/>
      <point x="356" y="249" type="line"/>
      <point x="462" y="693" type="line"/>
      <point x="319" y="693" type="line"/>
      <point x="228" y="593"/>
      <point x="91" y="387"/>
      <point x="11" y="239" type="curve"/>
      <point x="-12" y="143" type="line"/>
      <point x="196" y="143" type="line"/>
    </contour>
    <contour>
      <point x="129" y="249" type="line"/>
      <point x="175" y="339"/>
      <point x="221" y="419"/>
      <point x="285" y="507" type="curve"/>
      <point x="222" y="249" type="line"/>
    </contour>
  </outline>
</glyph>
<glyph name="six" format="2">
  <advance width="420"/>
  <unicode hex="0036"/>
  <outline>
    <contour>
      <point x="171" y="-14" type="curve" smooth="yes"/>
      <point x="312" y="-14"/>
      <point x="397" y="150"/>
      <point x="397" y="293" type="curve" smooth="yes"/>
      <point x="397" y="382"/>
      <point x="350" y="435"/>
      <point x="289" y="435" type="curve" smooth="yes"/>
      <point x="267" y="435"/>
      <point x="242" y="432"/>
      <point x="221" y="421" type="curve"/>
      <point x="266" y="512"/>
      <point x="338" y="583"/>
      <point x="446" y="587" type="curve"/>
      <point x="460" y="698" type="line"/>
      <point x="214" y="698"/>
      <point x="27" y="448"/>
      <point x="27" y="175" type="curve" smooth="yes"/>
      <point x="27" y="47"/>
      <point x="86" y="-14"/>
    </contour>
    <contour>
      <point x="189" y="105" type="curve" smooth="yes"/>
      <point x="168" y="105"/>
      <point x="159" y="118"/>
      <point x="159" y="152" type="curve" smooth="yes"/>
      <point x="159" y="197"/>
      <point x="165" y="252"/>
      <point x="179" y="306" type="curve"/>
      <point x="191" y="317"/>
      <point x="206" y="324"/>
      <point x="221" y="324" type="curve" smooth="yes"/>
      <point x="241" y="324"/>
      <point x="257" y="310"/>
      <point x="257" y="272" type="curve" smooth="yes"/>
      <point x="257" y="196"/>
      <point x="230" y="105"/>
    </contour>
  </outline>
</glyph>
<glyph name="less" format="2">
  <advance width="420"/>
  <unicode hex="003C"/>
  <outline>
    <contour>
      <point x="303" y="66" type="line"/>
      <point x="362" y="167" type="line"/>
      <point x="178" y="294" type="line"/>
      <point x="424" y="421" type="line"/>
      <point x="414" y="532" type="line"/>
      <point x="59" y="350" type="line"/>
      <point x="35" y="248" type="line"/>
    </contour>
  </outline>
</glyph>
<glyph name="E" format="2">
  <advance width="487"/>
  <unicode hex="0045"/>
  <anchor x="183" y="0" name="bottom"/>
  <anchor x="313" y="10" name="ogonek"/>
  <anchor x="334" y="681" name="top"/>
  <anchor x="60" y="693" name="topleft"/>
  <outline>
    <contour>
      <point x="12" y="0" type="line"/>
      <point x="378" y="0" type="line"/>
      <point x="407" y="119" type="line"/>
      <point x="182" y="119" type="line"/>
      <point x="227" y="306" type="line"/>
      <point x="414" y="306" type="line"/>
      <point x="442" y="421" type="line"/>
      <point x="255" y="421" type="line"/>
      <point x="292" y="574" type="line"/>
      <point x="495" y="574" type="line"/>
      <point x="523" y="693" type="line"/>
      <point x="178" y="693" type="line"/>
    </contour>
  </outline>
</glyph>
<glyph name="H" format="2">
  <advance width="583"/>
  <unicode hex="0048"/>
  <anchor x="219" y="0" name="bottom"/>
  <anchor x="302" y="347" name="center"/>
  <anchor x="383" y="681" name="top"/>
  <anchor x="60" y="693" name="topleft"/>
  <outline>
    <contour>
      <point x="12" y="0" type="line"/>
      <point x="154" y="0" type="line"/>
      <point x="226" y="300" type="line"/>
      <point x="374" y="300" type="line"/>
      <point x="302" y="0" type="line"/>
      <point x="444" y="0" type="line"/>
      <point x="610" y="693" type="line"/>
      <point x="468" y="693" type="line"/>
      <point x="403" y="420" type="line"/>
      <point x="255" y="420" type="line"/>
      <point x="320" y="693" type="line"/>
      <point x="178" y="693" type="line"/>
    </contour>
  </outline>
</glyph>
<glyph name="J" format="2">
  <advance width="409"/>
  <unicode hex="004A"/>
  <anchor x="107" y="0" name="bottom"/>
  <anchor x="370" y="681" name="top"/>
  <outline>
    <contour>
      <point x="86" y="-14" type="curve" smooth="yes"/>
      <point x="225" y="-14"/>
      <point x="292" y="53"/>
      <point x="325" y="189" type="curve" smooth="yes"/>
      <point x="446" y="693" type="line"/>
      <point x="304" y="693" type="line"/>
      <point x="185" y="194" type="line" smooth="yes"/>
      <point x="172" y="138"/>
      <point x="145" y="108"/>
      <point x="107" y="108" type="curve" smooth="yes"/>
      <point x="76" y="108"/>
      <point x="45" y="120"/>
      <point x="22" y="140" type="curve"/>
      <point x="-46" y="31" type="line"/>
      <point x="-11" y="4"/>
      <point x="40" y="-14"/>
    </contour>
  </outline>
</glyph>
<glyph name="M" format="2">
  <advance width="723"/>
  <unicode hex="004D"/>
  <outline>
    <contour>
      <point x="-6" y="0" type="curve"/>
      <point x="129" y="0" type="line"/>
      <point x="157" y="114"/>
      <point x="201" y="285"/>
      <point x="255" y="467" type="curve"/>
      <point x="264" y="322"/>
      <point x="262" y="201"/>
      <point x="263" y="89" type="curve"/>
      <point x="374" y="89" type="line"/>
      <point x="428" y="197"/>
      <point x="486" y="316"/>
      <point x="561" y="455" type="curve"/>
      <point x="529" y="278"/>
      <point x="492" y="111"/>
      <point x="466" y="0" type="curve"/>
      <point x="601" y="0" type="line"/>
      <point x="649" y="223"/>
      <point x="698" y="506"/>
      <point x="728" y="693" type="curve"/>
      <point x="588" y="693" type="line"/>
      <point x="535" y="608"/>
      <point x="444" y="448"/>
      <point x="365" y="289" type="curve"/>
      <point x="362" y="437"/>
      <point x="351" y="608"/>
      <point x="339" y="693" type="curve"/>
      <point x="199" y="693" type="line"/>
      <point x="139" y="506"/>
      <point x="52" y="223"/>
    </contour>
  </outline>
</glyph>
<glyph name="N" format="2">
  <advance width="594"/>
  <unicode hex="004E"/>
  <anchor x="260" y="0" name="bottom"/>
  <anchor x="387" y="681" name="top"/>
  <outline>
    <contour>
      <point x="12" y="0" type="line"/>
      <point x="147" y="0" type="line"/>
      <point x="250" y="428" type="line"/>
      <point x="301" y="248"/>
      <point x="329" y="102"/>
      <point x="344" y="0" type="curve"/>
      <point x="455" y="0" type="line"/>
      <point x="621" y="693" type="line"/>
      <point x="486" y="693" type="line"/>
      <point x="394" y="310" type="line"/>
      <point x="362" y="453"/>
      <point x="327" y="582"/>
      <point x="290" y="693" type="curve"/>
      <point x="178" y="693" type="line"/>
    </contour>
  </outline>
</glyph>
<glyph name="P" format="2">
  <advance width="509"/>
  <unicode hex="0050"/>
  <outline>
    <contour>
      <point x="11" y="0" type="line"/>
      <point x="153" y="0" type="line"/>
      <point x="210" y="239" type="line"/>
      <point x="233" y="239" type="line" smooth="yes"/>
      <point x="410" y="239"/>
      <point x="537" y="354"/>
      <point x="537" y="529" type="curve" smooth="yes"/>
      <point x="537" y="640"/>
      <point x="467" y="703"/>
      <point x="343" y="703" type="curve"/>
      <point x="287" y="703"/>
      <point x="236" y="697"/>
      <point x="175" y="683" type="curve"/>
    </contour>
    <contour>
      <point x="239" y="357" type="line"/>
      <point x="292" y="578" type="line"/>
      <point x="305" y="582"/>
      <point x="318" y="583"/>
      <point x="323" y="583" type="curve" smooth="yes"/>
      <point x="369" y="583"/>
      <point x="393" y="559"/>
      <point x="393" y="511" type="curve" smooth="yes"/>
      <point x="393" y="409"/>
      <point x="346" y="357"/>
      <point x="254" y="357" type="curve" smooth="yes"/>
    </contour>
  </outline>
</glyph>
<glyph name="Q" format="2">
  <advance width="607"/>
  <unicode hex="0051"/>
  <outline>
    <contour>
      <point x="425" y="-188" type="curve"/>
      <point x="467" y="-82" type="line"/>
      <point x="375" y="-80"/>
      <point x="334" y="-47"/>
      <point x="326" y="-5" type="curve" smooth="yes"/>
      <point x="326" y="-5"/>
      <point x="326" y="-4"/>
      <point x="326" y="-4" type="curve"/>
      <point x="490" y="43"/>
      <point x="585" y="268"/>
      <point x="585" y="468" type="curve" smooth="yes"/>
      <point x="585" y="616"/>
      <point x="525" y="707"/>
      <point x="385" y="707" type="curve" smooth="yes"/>
      <point x="180" y="707"/>
      <point x="60" y="452"/>
      <point x="60" y="225" type="curve" smooth="yes"/>
      <point x="60" y="102"/>
      <point x="103" y="18"/>
      <point x="200" y="-6" type="curve"/>
      <point x="200" y="-6"/>
      <point x="200" y="-7"/>
      <point x="200" y="-7" type="curve" smooth="yes"/>
      <point x="208" y="-114"/>
      <point x="258" y="-170"/>
    </contour>
    <contour>
      <point x="274" y="110" type="curve" smooth="yes"/>
      <point x="221" y="110"/>
      <point x="206" y="152"/>
      <point x="206" y="222" type="curve" smooth="yes"/>
      <point x="206" y="321"/>
      <point x="257" y="585"/>
      <point x="369" y="585" type="curve" smooth="yes"/>
      <point x="418" y="585"/>
      <point x="438" y="542"/>
      <point x="438" y="472" type="curve" smooth="yes"/>
      <point x="438" y="370"/>
      <point x="383" y="110"/>
    </contour>
  </outline>
</glyph>
<glyph name="S" format="2">
  <advance width="429"/>
  <unicode hex="0053"/>
  <anchor x="167" y="0" name="bottom"/>
  <anchor x="324" y="681" name="top"/>
  <outline>
    <contour>
      <point x="138" y="-14" type="curve" smooth="yes"/>
      <point x="292" y="-14"/>
      <point x="388" y="90"/>
      <point x="388" y="228" type="curve" smooth="yes"/>
      <point x="388" y="303"/>
      <point x="348" y="353"/>
      <point x="310" y="395" type="curve" smooth="yes"/>
      <point x="274" y="434"/>
      <point x="240" y="467"/>
      <point x="240" y="508" type="curve" smooth="yes"/>
      <point x="240" y="562"/>
      <point x="271" y="587"/>
      <point x="325" y="587" type="curve" smooth="yes"/>
      <point x="359" y="587"/>
      <point x="400" y="578"/>
      <point x="425" y="565" type="curve"/>
      <point x="471" y="675" type="line"/>
      <point x="432" y="696"/>
      <point x="392" y="707"/>
      <point x="335" y="707" type="curve" smooth="yes"/>
      <point x="202" y="707"/>
      <point x="97" y="613"/>
      <point x="97" y="481" type="curve" smooth="yes"/>
      <point x="97" y="407"/>
      <point x="139" y="362"/>
      <point x="178" y="321" type="curve" smooth="yes"/>
      <point x="212" y="286"/>
      <point x="243" y="253"/>
      <point x="243" y="206" type="curve" smooth="yes"/>
      <point x="243" y="145"/>
      <point x="212" y="106"/>
      <point x="158" y="106" type="curve" smooth="yes"/>
      <point x="119" y="106"/>
      <point x="63" y="119"/>
      <point x="30" y="147" type="curve"/>
      <point x="-18" y="29" type="line"/>
      <point x="21" y="7"/>
      <point x="74" y="-14"/>
    </contour>
  </outline>
</glyph>
<glyph name="V" format="2">
  <advance width="506"/>
  <unicode hex="0056"/>
  <outline>
    <contour>
      <point x="119" y="0" type="curve"/>
      <point x="262" y="0" type="line"/>
      <point x="365" y="182"/>
      <point x="481" y="422"/>
      <point x="593" y="693" type="curve"/>
      <point x="451" y="693" type="line"/>
      <point x="407" y="572"/>
      <point x="336" y="394"/>
      <point x="234" y="174" type="curve"/>
      <point x="237" y="397"/>
      <point x="246" y="575"/>
      <point x="257" y="693" type="curve"/>
      <point x="113" y="693" type="line"/>
      <point x="101" y="422"/>
      <point x="108" y="182"/>
    </contour>
  </outline>
</glyph>
<glyph name="W" format="2">
  <advance width="705"/>
  <unicode hex="0057"/>
  <anchor x="293" y="0" name="bottom"/>
  <anchor x="447" y="681" name="top"/>
  <outline>
    <contour>
      <point x="69" y="0" type="curve"/>
      <point x="208" y="0" type="line"/>
      <point x="260" y="99"/>
      <point x="332" y="268"/>
      <point x="388" y="407" type="curve"/>
      <point x="381" y="268"/>
      <point x="378" y="100"/>
      <point x="382" y="0" type="curve"/>
      <point x="516" y="0" type="line"/>
      <point x="609" y="194"/>
      <point x="741" y="547"/>
      <point x="791" y="693" type="curve"/>
      <point x="650" y="693" type="line"/>
      <point x="617" y="580"/>
      <point x="558" y="397"/>
      <point x="489" y="214" type="curve"/>
      <point x="491" y="338"/>
      <point x="496" y="487"/>
      <point x="505" y="618" type="curve"/>
      <point x="370" y="618" type="line"/>
      <point x="319" y="488"/>
      <point x="257" y="339"/>
      <point x="201" y="215" type="curve"/>
      <point x="217" y="399"/>
      <point x="239" y="581"/>
      <point x="258" y="693" type="curve"/>
      <point x="114" y="693" type="line"/>
      <point x="96" y="547"/>
      <point x="70" y="195"/>
    </contour>
  </outline>
</glyph>
<glyph name="X" format="2">
  <advance width="517"/>
  <unicode hex="0058"/>
  <outline>
    <contour>
      <point x="-52" y="0" type="line"/>
      <point x="98" y="0" type="line"/>
      <point x="254" y="250" type="line"/>
      <point x="282" y="126"/>
      <point x="294" y="63"/>
      <point x="299" y="0" type="curve"/>
      <point x="445" y="0" type="line"/>
      <point x="438" y="92"/>
      <point x="414" y="202"/>
      <point x="374" y="357" type="curve"/>
      <point x="447" y="469"/>
      <point x="519" y="581"/>
      <point x="592" y="693" type="curve"/>
      <point x="441" y="693" type="line"/>
      <point x="399" y="619"/>
      <point x="357" y="546"/>
      <point x="315" y="472" type="curve"/>
      <point x="272" y="693" type="line"/>
      <point x="121" y="693" type="line"/>
      <point x="193" y="371" type="line"/>
    </contour>
  </outline>
</glyph>
<glyph name="Z" format="2">
  <advance width="462"/>
  <unicode hex="005A"/>
  <anchor x="163" y="0" name="bottom"/>
  <anchor x="186" y="347" name="center"/>
  <anchor x="328" y="681" name="top"/>
  <outline>
    <contour>
      <point x="-27" y="0" type="line"/>
      <point x="365" y="0" type="line"/>
      <point x="394" y="119" type="line"/>
      <point x="168" y="119" type="line"/>
      <point x="256" y="258"/>
      <point x="378" y="433"/>
      <point x="495" y="572" type="curve"/>
      <point x="524" y="693" type="line"/>
      <point x="154" y="693" type="line"/>
      <point x="126" y="574" type="line"/>
      <point x="342" y="574" type="line"/>
      <point x="207" y="409"/>
      <point x="92" y="242"/>
      <point x="-6" y="87" type="curve"/>
    </contour>
  </outline>
</glyph>
<glyph name="a" format="2">
  <advance width="494"/>
  <unicode hex="0061"/>
  <anchor x="194" y="0" name="bottom"/>
  <anchor x="320" y="10" name="ogonek"/>
  <anchor x="322" y="532" name="top"/>
  <outline>
    <contour>
      <point x="158" y="-10" type="curve" smooth="yes"/>
      <point x="208" y="-10"/>
      <point x="250" y="9"/>
      <point x="275" y="30" type="curve"/>
      <point x="281" y="17"/>
      <point x="286" y="4"/>
      <point x="292" y="-11" type="curve"/>
      <point x="411" y="9" type="line"/>
      <point x="392" y="72"/>
      <point x="386" y="145"/>
      <point x="405" y="223" type="curve" smooth="yes"/>
      <point x="474" y="511" type="line"/>
      <point x="437" y="531"/>
      <point x="367" y="543"/>
      <point x="325" y="543" type="curve" smooth="yes"/>
      <point x="157" y="543"/>
      <point x="29" y="366"/>
      <point x="29" y="153" type="curve" smooth="yes"/>
      <point x="29" y="62"/>
      <point x="64" y="-10"/>
    </contour>
    <contour>
      <point x="212" y="105" type="curve" smooth="yes"/>
      <point x="177" y="105"/>
      <point x="169" y="125"/>
      <point x="169" y="164" type="curve" smooth="yes"/>
      <point x="169" y="298"/>
      <point x="233" y="430"/>
      <point x="290" y="430" type="curve" smooth="yes"/>
      <point x="299" y="430"/>
      <point x="306" y="429"/>
      <point x="315" y="424" type="curve"/>
      <point x="266" y="219" type="line" smooth="yes"/>
      <point x="258" y="184"/>
      <point x="254" y="156"/>
      <point x="254" y="131" type="curve"/>
      <point x="245" y="116"/>
      <point x="229" y="105"/>
    </contour>
  </outline>
</glyph>
<glyph name="c" format="2">
  <advance width="377"/>
  <unicode hex="0063"/>
  <anchor x="163" y="0" name="bottom"/>
  <anchor x="291" y="532" name="top"/>
  <outline>
    <contour>
      <point x="196" y="-14" type="curve" smooth="yes"/>
      <point x="235" y="-14"/>
      <point x="267" y="-7"/>
      <point x="304" y="9" type="curve"/>
      <point x="298" y="114" type="line"/>
      <point x="278" y="107"/>
      <point x="260" y="104"/>
      <point x="244" y="104" type="curve" smooth="yes"/>
      <point x="201" y="104"/>
      <point x="177" y="130"/>
      <point x="177" y="183" type="curve" smooth="yes"/>
      <point x="177" y="333"/>
      <point x="225" y="429"/>
      <point x="301" y="429" type="curve" smooth="yes"/>
      <point x="321" y="429"/>
      <point x="344" y="425"/>
      <point x="366" y="414" type="curve"/>
      <point x="409" y="525" type="line"/>
      <point x="377" y="540"/>
      <point x="340" y="546"/>
      <point x="299" y="546" type="curve"/>
      <point x="147" y="546"/>
      <point x="37" y="385"/>
      <point x="37" y="164" type="curve" smooth="yes"/>
      <point x="37" y="52"/>
      <point x="96" y="-14"/>
    </contour>
  </outline>
</glyph>
<glyph name="h" format="2">
  <advance width="496"/>
  <unicode hex="0068"/>
  <anchor x="120" y="0" name="bottom"/>
  <anchor x="213" y="388" name="center"/>
  <anchor x="270" y="776" name="top"/>
  <outline>
    <contour>
      <point x="4" y="0" type="line"/>
      <point x="142" y="0" type="line"/>
      <point x="243" y="422" type="line"/>
      <point x="256" y="426"/>
      <point x="268" y="427"/>
      <point x="274" y="427" type="curve"/>
      <point x="301" y="427"/>
      <point x="317" y="413"/>
      <point x="317" y="374" type="curve" smooth="yes"/>
      <point x="317" y="357"/>
      <point x="314" y="335"/>
      <point x="307" y="307" type="curve" smooth="yes"/>
      <point x="233" y="0" type="line"/>
      <point x="371" y="0" type="line"/>
      <point x="446" y="313" type="line" smooth="yes"/>
      <point x="453" y="343"/>
      <point x="457" y="371"/>
      <point x="457" y="396" type="curve" smooth="yes"/>
      <point x="457" y="488"/>
      <point x="408" y="542"/>
      <point x="326" y="542" type="curve" smooth="yes"/>
      <point x="310" y="542"/>
      <point x="288" y="539"/>
      <point x="269" y="531" type="curve"/>
      <point x="328" y="776" type="line"/>
      <point x="185" y="754" type="line"/>
    </contour>
  </outline>
</glyph>
<glyph name="o" format="2">
  <advance width="482"/>
  <unicode hex="006F"/>
  <anchor x="173" y="0" name="bottom"/>
  <anchor x="237" y="266" name="center"/>
  <anchor x="309" y="10" name="ogonek"/>
  <anchor x="301" y="532" name="top"/>
  <anchor x="462" y="532" name="topright"/>
  <outline>
    <contour>
      <point x="194" y="-11" type="curve" smooth="yes"/>
      <point x="353" y="-11"/>
      <point x="447" y="190"/>
      <point x="447" y="367" type="curve" smooth="yes"/>
      <point x="447" y="476"/>
      <point x="392" y="543"/>
      <point x="289" y="543" type="curve" smooth="yes"/>
      <point x="129" y="543"/>
      <point x="35" y="343"/>
      <point x="35" y="165" type="curve" smooth="yes"/>
      <point x="35" y="56"/>
      <point x="91" y="-11"/>
    </contour>
    <contour>
      <point x="208" y="103" type="curve" smooth="yes"/>
      <point x="183" y="103"/>
      <point x="175" y="121"/>
      <point x="175" y="154" type="curve" smooth="yes"/>
      <point x="175" y="229"/>
      <point x="207" y="429"/>
      <point x="274" y="429" type="curve" smooth="yes"/>
      <point x="298" y="429"/>
      <point x="307" y="411"/>
      <point x="307" y="378" type="curve" smooth="yes"/>
      <point x="307" y="301"/>
      <point x="274" y="103"/>
    </contour>
  </outline>
</glyph>
<glyph name="p" format="2">
  <advance width="488"/>
  <unicode hex="0070"/>
  <guideline x="-111" y="511" angle="0"/>
  <guideline x="145" y="543" angle="0"/>
  <outline>
    <contour>
      <point x="-40" y="-185" type="line"/>
      <point x="98" y="-185" type="line"/>
      <point x="141" y="-4" type="line"/>
      <point x="156" y="-11"/>
      <point x="173" y="-14"/>
      <point x="186" y="-14" type="curve" smooth="yes"/>
      <point x="319" y="-14"/>
      <point x="457" y="165"/>
      <point x="457" y="380" type="curve" smooth="yes"/>
      <point x="457" y="480"/>
      <point x="413" y="542"/>
      <point x="287" y="542" type="curve" smooth="yes"/>
      <point x="246" y="542"/>
      <point x="170" y="529"/>
      <point x="128" y="513" type="curve"/>
    </contour>
    <contour>
      <point x="193" y="101" type="curve" smooth="yes"/>
      <point x="187" y="101"/>
      <point x="180" y="101"/>
      <point x="168" y="106" type="curve"/>
      <point x="242" y="417" type="line"/>
      <point x="251" y="422"/>
      <point x="265" y="426"/>
      <point x="278" y="426" type="curve" smooth="yes"/>
      <point x="307" y="426"/>
      <point x="317" y="406"/>
      <point x="317" y="367" type="curve" smooth="yes"/>
      <point x="317" y="232"/>
      <point x="249" y="101"/>
    </contour>
  </outline>
</glyph>
<glyph name="s" format="2">
  <advance width="384"/>
  <unicode hex="0073"/>
  <anchor x="154" y="0" name="bottom"/>
  <anchor x="266" y="532" name="top"/>
  <outline>
    <contour>
      <point x="112" y="-14" type="curve" smooth="yes"/>
      <point x="237" y="-14"/>
      <point x="330" y="64"/>
      <point x="330" y="176" type="curve" smooth="yes"/>
      <point x="330" y="229"/>
      <point x="315" y="261"/>
      <point x="269" y="305" type="curve" smooth="yes"/>
      <point x="230" y="342"/>
      <point x="212" y="357"/>
      <point x="212" y="381" type="curve"/>
      <point x="212" y="411"/>
      <point x="234" y="434"/>
      <point x="274" y="434" type="curve" smooth="yes"/>
      <point x="296" y="434"/>
      <point x="317" y="429"/>
      <point x="342" y="418" type="curve"/>
      <point x="387" y="524" type="line"/>
      <point x="372" y="533"/>
      <point x="334" y="546"/>
      <point x="286" y="546" type="curve" smooth="yes"/>
      <point x="161" y="546"/>
      <point x="73" y="458"/>
      <point x="73" y="349" type="curve" smooth="yes"/>
      <point x="73" y="299"/>
      <point x="94" y="267"/>
      <point x="134" y="233" type="curve" smooth="yes"/>
      <point x="175" y="199"/>
      <point x="190" y="180"/>
      <point x="190" y="155" type="curve" smooth="yes"/>
      <point x="190" y="126"/>
      <point x="171" y="98"/>
      <point x="124" y="98" type="curve"/>
      <point x="96" y="98"/>
      <point x="62" y="108"/>
      <point x="37" y="124" type="curve"/>
      <point x="-12" y="17" type="line"/>
      <point x="9" y="2"/>
      <point x="56" y="-14"/>
    </contour>
  </outline>
</glyph>
<glyph name="y" format="2">
  <advance width="441"/>
  <unicode hex="0079"/>
  <anchor x="93" y="0" name="bottom"/>
  <anchor x="270" y="532" name="top"/>
  <outline>
    <contour>
      <point x="-9" y="-188" type="curve" smooth="yes"/>
      <point x="93" y="-188"/>
      <point x="144" y="-146"/>
      <point x="229" y="0" type="curve" smooth="yes"/>
      <point x="314" y="145"/>
      <point x="408" y="341"/>
      <point x="481" y="532" type="curve"/>
      <point x="340" y="532" type="line"/>
      <point x="307" y="433"/>
      <point x="262" y="298"/>
      <point x="199" y="158" type="curve"/>
      <point x="201" y="302"/>
      <point x="207" y="435"/>
      <point x="214" y="532" type="curve"/>
      <point x="79" y="532" type="line"/>
      <point x="73" y="376"/>
      <point x="78" y="212"/>
      <point x="92" y="5" type="curve"/>
      <point x="55" y="-58"/>
      <point x="23" y="-71"/>
      <point x="-6" y="-71" type="curve" smooth="yes"/>
      <point x="-22" y="-71"/>
      <point x="-43" y="-67"/>
      <point x="-57" y="-60" type="curve"/>
      <point x="-94" y="-169" type="line"/>
      <point x="-70" y="-181"/>
      <point x="-39" y="-188"/>
    </contour>
  </outline>
</glyph>
<glyph name="z" format="2">
  <advance width="372"/>
  <unicode hex="007A"/>
  <anchor x="122" y="0" name="bottom"/>
  <anchor x="186" y="266" name="center"/>
  <anchor x="250" y="532" name="top"/>
  <outline>
    <contour>
      <point x="-29" y="0" type="line"/>
      <point x="287" y="0" type="line"/>
      <point x="314" y="113" type="line"/>
      <point x="146" y="113" type="line"/>
      <point x="213" y="214"/>
      <point x="311" y="349"/>
      <point x="373" y="426" type="curve"/>
      <point x="399" y="532" type="line"/>
      <point x="100" y="532" type="line"/>
      <point x="73" y="419" type="line"/>
      <point x="222" y="419" type="line"/>
      <point x="142" y="316"/>
      <point x="63" y="203"/>
      <point x="-6" y="94" type="curve"/>
    </contour>
  </outline>
</glyph>
<glyph name="braceleft" format="2">
  <advance width="330"/>
  <unicode hex="007B"/>
  <outline>
    <contour>
      <point x="187" y="-184" type="curve"/>
      <point x="212" y="-77" type="line"/>
      <point x="164" y="-77"/>
      <point x="156" y="-53"/>
      <point x="165" y="-17" type="curve" smooth="yes"/>
      <point x="205" y="149" type="line" smooth="yes"/>
      <point x="223" y="222"/>
      <point x="212" y="269"/>
      <point x="171" y="299" type="curve"/>
      <point x="226" y="329"/>
      <point x="259" y="377"/>
      <point x="277" y="450" type="curve" smooth="yes"/>
      <point x="317" y="616" type="line" smooth="yes"/>
      <point x="326" y="654"/>
      <point x="346" y="676"/>
      <point x="393" y="676" type="curve"/>
      <point x="419" y="783" type="line"/>
      <point x="275" y="783"/>
      <point x="218" y="732"/>
      <point x="191" y="618" type="curve" smooth="yes"/>
      <point x="156" y="470" type="line" smooth="yes"/>
      <point x="138" y="394"/>
      <point x="114" y="357"/>
      <point x="71" y="353" type="curve"/>
      <point x="45" y="246" type="line"/>
      <point x="85" y="242"/>
      <point x="93" y="204"/>
      <point x="74" y="128" type="curve" smooth="yes"/>
      <point x="38" y="-19" type="line" smooth="yes"/>
      <point x="10" y="-133"/>
      <point x="76" y="-184"/>
    </contour>
  </outline>
</glyph>
<glyph name="asciitilde" format="2">
  <advance width="420"/>
  <unicode hex="007E"/>
  <outline>
    <contour>
      <point x="272" y="207" type="curve" smooth="yes"/>
      <point x="350" y="207"/>
      <point x="404" y="278"/>
      <point x="434" y="371" type="curve"/>
      <point x="347" y="398" type="line"/>
      <point x="323" y="340"/>
      <point x="307" y="330"/>
      <point x="288" y="330" type="curve" smooth="yes"/>
      <point x="253" y="330"/>
      <point x="226" y="398"/>
      <point x="164" y="398" type="curve" smooth="yes"/>
      <point x="86" y="398"/>
      <point x="32" y="327"/>
      <point x="3" y="234" type="curve"/>
      <point x="89" y="207" type="line"/>
      <point x="113" y="265"/>
      <point x="129" y="275"/>
      <point x="149" y="275" type="curve" smooth="yes"/>
      <point x="184" y="275"/>
      <point x="211" y="207"/>
    </contour>
  </outline>
</glyph>
<glyph name="exclamdown" format="2">
  <advance width="268"/>
  <unicode hex="00A1"/>
  <outline>
    <contour>
      <point x="-41" y="-174" type="line"/>
      <point x="103" y="-174" type="line"/>
      <point x="146" y="4" type="line" smooth="yes"/>
      <point x="166" y="86"/>
      <point x="182" y="221"/>
      <point x="178" y="298" type="curve"/>
      <point x="110" y="298" type="line"/>
      <point x="68" y="221"/>
      <point x="22" y="86"/>
      <point x="2" y="4" type="curve" smooth="yes"/>
    </contour>
    <contour>
      <point x="168" y="355" type="curve"/>
      <point x="216" y="355"/>
      <point x="265" y="402"/>
      <point x="265" y="461" type="curve"/>
      <point x="265" y="504"/>
      <point x="232" y="532"/>
      <point x="186" y="532" type="curve"/>
      <point x="138" y="532"/>
      <point x="89" y="487"/>
      <point x="89" y="428" type="curve"/>
      <point x="89" y="383"/>
      <point x="122" y="355"/>
    </contour>
  </outline>
</glyph>
<glyph name="sterling" format="2">
  <advance width="420"/>
  <unicode hex="00A3"/>
  <outline>
    <contour>
      <point x="-15" y="0" type="curve"/>
      <point x="327" y="0" type="line"/>
      <point x="355" y="114" type="line"/>
      <point x="168" y="114" type="line"/>
      <point x="187" y="161"/>
      <point x="207" y="227"/>
      <point x="221" y="282" type="curve"/>
      <point x="332" y="282" type="line"/>
      <point x="358" y="392" type="line"/>
      <point x="247" y="392" type="line"/>
      <point x="274" y="505" type="line" smooth="yes"/>
      <point x="287" y="558"/>
      <point x="310" y="592"/>
      <point x="358" y="592" type="curve" smooth="yes"/>
      <point x="389" y="592"/>
      <point x="410" y="586"/>
      <point x="427" y="572" type="curve"/>
      <point x="478" y="680" type="line"/>
      <point x="450" y="696"/>
      <point x="415" y="706"/>
      <point x="373" y="706" type="curve" smooth="yes"/>
      <point x="251" y="706"/>
      <point x="167" y="634"/>
      <point x="136" y="504" type="curve" smooth="yes"/>
      <point x="109" y="392" type="line"/>
      <point x="47" y="392" type="line"/>
      <point x="21" y="282" type="line"/>
      <point x="83" y="282" type="line"/>
      <point x="59" y="187"/>
      <point x="17" y="68"/>
    </contour>
  </outline>
</glyph>
<glyph name="yen" format="2">
  <advance width="420"/>
  <unicode hex="00A5"/>
  <outline>
    <contour>
      <point x="77" y="0" type="line"/>
      <point x="215" y="0" type="line"/>
      <point x="243" y="118" type="line"/>
      <point x="353" y="118" type="line"/>
      <point x="376" y="211" type="line"/>
      <point x="266" y="211" type="line"/>
      <point x="281" y="274" type="line"/>
      <point x="391" y="274" type="line"/>
      <point x="413" y="367" type="line"/>
      <point x="344" y="367" type="line"/>
      <point x="414" y="479"/>
      <point x="478" y="589"/>
      <point x="530" y="693" type="curve"/>
      <point x="388" y="693" type="line"/>
      <point x="348" y="608"/>
      <point x="297" y="507"/>
      <point x="243" y="408" type="curve"/>
      <point x="236" y="509"/>
      <point x="234" y="608"/>
      <point x="234" y="693" type="curve"/>
      <point x="94" y="693" type="line"/>
      <point x="98" y="589"/>
      <point x="108" y="480"/>
      <point x="124" y="367" type="curve"/>
      <point x="55" y="367" type="line"/>
      <point x="33" y="274" type="line"/>
      <point x="143" y="274" type="line"/>
      <point x="128" y="211" type="line"/>
      <point x="18" y="211" type="line"/>
      <point x="-5" y="118" type="line"/>
      <point x="105" y="118" type="line"/>
    </contour>
  </outline>
</glyph>
<glyph name="dieresis" format="2">
  <advance width="398"/>
  <unicode hex="00A8"/>
  <outline>
    <contour>
      <point x="441" y="605" type="curve" smooth="yes"/>
      <point x="484" y="605"/>
      <point x="522" y="644"/>
      <point x="522" y="690" type="curve" smooth="yes"/>
      <point x="522" y="727"/>
      <point x="494" y="751"/>
      <point x="459" y="751" type="curve" smooth="yes"/>
      <point x="417" y="751"/>
      <point x="378" y="715"/>
      <point x="378" y="664" type="curve" smooth="yes"/>
      <point x="378" y="627"/>
      <point x="405" y="605"/>
    </contour>
    <contour>
      <point x="263" y="605" type="curve" smooth="yes"/>
      <point x="306" y="605"/>
      <point x="344" y="644"/>
      <point x="344" y="690" type="curve" smooth="yes"/>
      <point x="344" y="727"/>
      <point x="316" y="751"/>
      <point x="281" y="751" type="curve" smooth="yes"/>
      <point x="239" y="751"/>
      <point x="200" y="715"/>
      <point x="200" y="664" type="curve" smooth="yes"/>
      <point x="200" y="627"/>
      <point x="227" y="605"/>
    </contour>
  </outline>
</glyph>
<glyph name="registered" format="2">
  <advance width="478"/>
  <unicode hex="00AE"/>
  <outline>
    <contour>
      <point x="303" y="280" type="curve" smooth="yes"/>
      <point x="432" y="280"/>
      <point x="521" y="381"/>
      <point x="521" y="527" type="curve"/>
      <point x="521" y="673"/>
      <point x="432" y="773"/>
      <point x="303" y="773" type="curve"/>
      <point x="173" y="773"/>
      <point x="83" y="673"/>
      <point x="83" y="527" type="curve" smooth="yes"/>
      <point x="83" y="381"/>
      <point x="173" y="280"/>
    </contour>
    <contour>
      <point x="303" y="349" type="curve" smooth="yes"/>
      <point x="216" y="349"/>
      <point x="157" y="421"/>
      <point x="157" y="527" type="curve"/>
      <point x="157" y="632"/>
      <point x="216" y="704"/>
      <point x="303" y="704" type="curve" smooth="yes"/>
      <point x="389" y="704"/>
      <point x="448" y="632"/>
      <point x="448" y="527" type="curve"/>
      <point x="448" y="421"/>
      <point x="389" y="349"/>
    </contour>
    <contour>
      <point x="222" y="406" type="line"/>
      <point x="294" y="406" type="line"/>
      <point x="294" y="486" type="line"/>
      <point x="301" y="486" type="line"/>
      <point x="301" y="486"/>
      <point x="300" y="486"/>
      <point x="300" y="486" type="curve"/>
      <point x="311" y="460"/>
      <point x="320" y="433"/>
      <point x="328" y="406" type="curve"/>
      <point x="402" y="406" type="line"/>
      <point x="392" y="442"/>
      <point x="378" y="475"/>
      <point x="362" y="507" type="curve"/>
      <point x="384" y="526"/>
      <point x="392" y="545"/>
      <point x="392" y="572" type="curve" smooth="yes"/>
      <point x="392" y="628"/>
      <point x="356" y="656"/>
      <point x="297" y="656" type="curve" smooth="yes"/>
      <point x="275" y="656"/>
      <point x="248" y="652"/>
      <point x="222" y="645" type="curve"/>
    </contour>
    <contour>
      <point x="294" y="543" type="line"/>
      <point x="294" y="592" type="line"/>
      <point x="296" y="593"/>
      <point x="299" y="594"/>
      <point x="303" y="594" type="curve" smooth="yes"/>
      <point x="313" y="594"/>
      <point x="320" y="587"/>
      <point x="320" y="573" type="curve" smooth="yes"/>
      <point x="320" y="552"/>
      <point x="306" y="543"/>
      <point x="298" y="543" type="curve" smooth="yes"/>
    </contour>
  </outline>
</glyph>
<glyph name="plusminus" format="2">
  <advance width="420"/>
  <unicode hex="00B1"/>
  <outline>
    <contour>
      <point x="129" y="165" type="line"/>
      <point x="243" y="165" type="line"/>
      <point x="273" y="290" type="line"/>
      <point x="391" y="290" type="line"/>
      <point x="417" y="400" type="line"/>
      <point x="299" y="400" type="line"/>
      <point x="329" y="525" type="line"/>
      <point x="215" y="525" type="line"/>
      <point x="185" y="400" type="line"/>
      <point x="67" y="400" type="line"/>
      <point x="41" y="290" type="line"/>
      <point x="159" y="290" type="line"/>
    </contour>
    <contour>
      <point x="-28" y="0" type="line"/>
      <point x="322" y="0" type="line"/>
      <point x="348" y="110" type="line"/>
      <point x="-2" y="110" type="line"/>
    </contour>
  </outline>
</glyph>
<glyph name="micro" format="2">
  <advance width="501"/>
  <unicode hex="00B5"/>
  <outline>
    <contour>
      <point x="-51" y="-185" type="line"/>
      <point x="82" y="-185" type="line"/>
      <point x="94" y="-136" type="line" smooth="yes"/>
      <point x="107" y="-83"/>
      <point x="113" y="-31"/>
      <point x="116" y="7" type="curve"/>
      <point x="128" y="-2"/>
      <point x="156" y="-9"/>
      <point x="187" y="-9" type="curve" smooth="yes"/>
      <point x="228" y="-8"/>
      <point x="264" y="8"/>
      <point x="285" y="26" type="curve"/>
      <point x="289" y="13"/>
      <point x="295" y="-1"/>
      <point x="299" y="-11" type="curve"/>
      <point x="418" y="9" type="line"/>
      <point x="397" y="72"/>
      <point x="395" y="153"/>
      <point x="412" y="223" type="curve" smooth="yes"/>
      <point x="486" y="532" type="line"/>
      <point x="348" y="532" type="line"/>
      <point x="273" y="219" type="line" smooth="yes"/>
      <point x="266" y="189"/>
      <point x="262" y="160"/>
      <point x="261" y="133" type="curve"/>
      <point x="251" y="117"/>
      <point x="235" y="105"/>
      <point x="217" y="105" type="curve" smooth="yes"/>
      <point x="174" y="105"/>
      <point x="164" y="139"/>
      <point x="185" y="225" type="curve" smooth="yes"/>
      <point x="259" y="532" type="line"/>
      <point x="121" y="532" type="line"/>
    </contour>
  </outline>
</glyph>
<glyph name="Aring" format="2">
  <advance width="518"/>
  <unicode hex="00C5"/>
  <outline>
    <contour>
      <point x="-49" y="0" type="curve"/>
      <point x="93" y="0" type="line"/>
      <point x="108" y="42"/>
      <point x="127" y="91"/>
      <point x="150" y="146" type="curve"/>
      <point x="308" y="146" type="line"/>
      <point x="306" y="90"/>
      <point x="303" y="41"/>
      <point x="299" y="0" type="curve"/>
      <point x="443" y="0" type="line"/>
      <point x="454" y="259"/>
      <point x="443" y="487"/>
      <point x="433" y="666" type="curve"/>
      <point x="453" y="683"/>
      <point x="465" y="710"/>
      <point x="465" y="740" type="curve" smooth="yes"/>
      <point x="465" y="795"/>
      <point x="422" y="837"/>
      <point x="365" y="837" type="curve" smooth="yes"/>
      <point x="310" y="837"/>
      <point x="268" y="795"/>
      <point x="268" y="740" type="curve" smooth="yes"/>
      <point x="268" y="720"/>
      <point x="274" y="701"/>
      <point x="284" y="686" type="curve"/>
      <point x="182" y="504"/>
      <point x="61" y="268"/>
    </contour>
    <contour>
      <point x="199" y="261" type="line"/>
      <point x="233" y="338"/>
      <point x="272" y="425"/>
      <point x="316" y="519" type="curve"/>
      <point x="315" y="425"/>
      <point x="313" y="338"/>
      <point x="311" y="261" type="curve"/>
    </contour>
    <contour>
      <point x="367" y="701" type="curve" smooth="yes"/>
      <point x="343" y="701"/>
      <point x="328" y="716"/>
      <point x="328" y="740" type="curve" smooth="yes"/>
      <point x="328" y="764"/>
      <point x="343" y="779"/>
      <point x="367" y="779" type="curve" smooth="yes"/>
      <point x="392" y="779"/>
      <point x="407" y="764"/>
      <point x="407" y="740" type="curve"/>
      <point x="407" y="716"/>
      <point x="392" y="701"/>
    </contour>
  </outline>
</glyph>
<glyph name="Eth" format="2">
  <advance width="589"/>
  <unicode hex="00D0"/>
  <outline>
    <contour>
      <point x="203" y="-10" type="curve" smooth="yes"/>
      <point x="463" y="-10"/>
      <point x="569" y="257"/>
      <point x="569" y="476" type="curve" smooth="yes"/>
      <point x="569" y="628"/>
      <point x="496" y="703"/>
      <point x="347" y="703" type="curve" smooth="yes"/>
      <point x="283" y="703"/>
      <point x="232" y="695"/>
      <point x="179" y="683" type="curve"/>
      <point x="111" y="398" type="line"/>
      <point x="47" y="398" type="line"/>
      <point x="23" y="297" type="line"/>
      <point x="87" y="297" type="line"/>
      <point x="18" y="11" type="line"/>
      <point x="68" y="-3"/>
      <point x="140" y="-10"/>
    </contour>
    <contour>
      <point x="240" y="110" type="curve" smooth="yes"/>
      <point x="228" y="110"/>
      <point x="205" y="113"/>
      <point x="185" y="118" type="curve"/>
      <point x="228" y="297" type="line"/>
      <point x="323" y="297" type="line"/>
      <point x="347" y="398" type="line"/>
      <point x="252" y="398" type="line"/>
      <point x="296" y="580" type="line"/>
      <point x="311" y="582"/>
      <point x="325" y="583"/>
      <point x="334" y="583" type="curve" smooth="yes"/>
      <point x="393" y="583"/>
      <point x="422" y="545"/>
      <point x="422" y="464" type="curve" smooth="yes"/>
      <point x="422" y="284"/>
      <point x="348" y="110"/>
    </contour>
  </outline>
</glyph>
<glyph name="Thorn" format="2">
  <advance width="511"/>
  <unicode hex="00DE"/>
  <outline>
    <contour>
      <point x="12" y="0" type="line"/>
      <point x="154" y="0" type="line"/>
      <point x="186" y="133" type="line"/>
      <point x="209" y="133" type="line" smooth="yes"/>
      <point x="386" y="133"/>
      <point x="513" y="248"/>
      <point x="513" y="423" type="curve" smooth="yes"/>
      <point x="513" y="534"/>
      <point x="443" y="597"/>
      <point x="319" y="597" type="curve"/>
      <point x="312" y="597"/>
      <point x="304" y="597"/>
      <point x="297" y="597" type="curve"/>
      <point x="320" y="693" type="line"/>
      <point x="178" y="693" type="line"/>
    </contour>
    <contour>
      <point x="214" y="251" type="line"/>
      <point x="267" y="472" type="line"/>
      <point x="279" y="476"/>
      <point x="288" y="477"/>
      <point x="297" y="477" type="curve" smooth="yes"/>
      <point x="343" y="477"/>
      <point x="369" y="453"/>
      <point x="369" y="405" type="curve" smooth="yes"/>
      <point x="369" y="303"/>
      <point x="322" y="251"/>
      <point x="230" y="251" type="curve" smooth="yes"/>
    </contour>
  </outline>
</glyph>
<glyph name="germandbls" format="2">
  <advance width="529"/>
  <unicode hex="00DF"/>
  <outline>
    <contour>
      <point x="39" y="-189" type="line"/>
      <point x="91" y="-137"/>
      <point x="133" y="-48"/>
      <point x="177" y="137" type="curve" smooth="yes"/>
      <point x="276" y="549" type="line" smooth="yes"/>
      <point x="295" y="629"/>
      <point x="318" y="659"/>
      <point x="363" y="659" type="curve" smooth="yes"/>
      <point x="382" y="659"/>
      <point x="401" y="647"/>
      <point x="401" y="620" type="curve" smooth="yes"/>
      <point x="402" y="521"/>
      <point x="276" y="497"/>
      <point x="276" y="376" type="curve" smooth="yes"/>
      <point x="276" y="331"/>
      <point x="302" y="292"/>
      <point x="324" y="253" type="curve" smooth="yes"/>
      <point x="342" y="224"/>
      <point x="357" y="195"/>
      <point x="357" y="166" type="curve" smooth="yes"/>
      <point x="357" y="122"/>
      <point x="324" y="98"/>
      <point x="279" y="98" type="curve" smooth="yes"/>
      <point x="263" y="98"/>
      <point x="246" y="101"/>
      <point x="229" y="107" type="curve"/>
      <point x="182" y="2" type="line"/>
      <point x="214" y="-8"/>
      <point x="245" y="-12"/>
      <point x="274" y="-12" type="curve" smooth="yes"/>
      <point x="400" y="-12"/>
      <point x="492" y="74"/>
      <point x="492" y="181" type="curve" smooth="yes"/>
      <point x="492" y="228"/>
      <point x="472" y="265"/>
      <point x="452" y="298" type="curve" smooth="yes"/>
      <point x="431" y="332"/>
      <point x="411" y="363"/>
      <point x="411" y="398" type="curve" smooth="yes"/>
      <point x="411" y="474"/>
      <point x="538" y="528"/>
      <point x="538" y="651" type="curve" smooth="yes"/>
      <point x="538" y="741"/>
      <point x="469" y="776"/>
      <point x="379" y="776" type="curve" smooth="yes"/>
      <point x="276" y="776"/>
      <point x="179" y="719"/>
      <point x="143" y="566" type="curve" smooth="yes"/>
      <point x="34" y="113" type="line" smooth="yes"/>
      <point x="12" y="20"/>
      <point x="-28" y="-102"/>
      <point x="-87" y="-169" type="curve"/>
    </contour>
  </outline>
</glyph>
<glyph name="oslash" format="2">
  <advance width="482"/>
  <unicode hex="00F8"/>
  <anchor x="301" y="532" name="top"/>
  <outline>
    <contour>
      <point x="62" y="-39" type="line"/>
      <point x="104" y="12" type="line"/>
      <point x="128" y="-3"/>
      <point x="158" y="-11"/>
      <point x="194" y="-11" type="curve" smooth="yes"/>
      <point x="353" y="-11"/>
      <point x="447" y="190"/>
      <point x="447" y="367" type="curve" smooth="yes"/>
      <point x="447" y="399"/>
      <point x="442" y="428"/>
      <point x="433" y="452" type="curve"/>
      <point x="487" y="518" type="line"/>
      <point x="424" y="570" type="line"/>
      <point x="381" y="518" type="line"/>
      <point x="357" y="534"/>
      <point x="326" y="543"/>
      <point x="289" y="543" type="curve" smooth="yes"/>
      <point x="129" y="543"/>
      <point x="35" y="343"/>
      <point x="35" y="165" type="curve" smooth="yes"/>
      <point x="35" y="132"/>
      <point x="40" y="103"/>
      <point x="50" y="79" type="curve"/>
      <point x="-3" y="14" type="line"/>
    </contour>
    <contour>
      <point x="205" y="95" type="curve" smooth="yes"/>
      <point x="188" y="95"/>
      <point x="177" y="99"/>
      <point x="169" y="108" type="curve"/>
      <point x="321" y="320" type="line"/>
      <point x="321" y="320"/>
      <point x="321" y="320"/>
      <point x="321" y="320" type="curve"/>
      <point x="308" y="216"/>
      <point x="271" y="95"/>
    </contour>
    <contour>
      <point x="165" y="221" type="line"/>
      <point x="165" y="221"/>
      <point x="165" y="221"/>
      <point x="165" y="221" type="curve" smooth="yes"/>
      <point x="178" y="318"/>
      <point x="216" y="437"/>
      <point x="282" y="437" type="curve" smooth="yes"/>
      <point x="296" y="437"/>
      <point x="306" y="434"/>
      <point x="312" y="427" type="curve"/>
    </contour>
  </outline>
</glyph>
<glyph name="aogonek" format="2">
  <advance width="494"/>
  <unicode hex="0105"/>
  <outline>
    <contour>
      <point x="289" y="-208" type="curve" smooth="yes"/>
      <point x="317" y="-208"/>
      <point x="349" y="-204"/>
      <point x="378" y="-193" type="curve"/>
      <point x="390" y="-100" type="line"/>
      <point x="368" y="-107"/>
      <point x="355" y="-108"/>
      <point x="342" y="-108" type="curve" smooth="yes"/>
      <point x="324" y="-108"/>
      <point x="314" y="-100"/>
      <point x="314" y="-82" type="curve" smooth="yes"/>
      <point x="314" y="-51"/>
      <point x="342" y="-23"/>
      <point x="411" y="9" type="curve"/>
      <point x="400" y="45"/>
      <point x="393" y="85"/>
      <point x="393" y="127" type="curve" smooth="yes"/>
      <point x="393" y="158"/>
      <point x="397" y="190"/>
      <point x="405" y="223" type="curve" smooth="yes"/>
      <point x="474" y="511" type="line"/>
      <point x="437" y="531"/>
      <point x="367" y="543"/>
      <point x="325" y="543" type="curve" smooth="yes"/>
      <point x="157" y="543"/>
      <point x="29" y="366"/>
      <point x="29" y="153" type="curve" smooth="yes"/>
      <point x="29" y="62"/>
      <point x="64" y="-10"/>
      <point x="158" y="-10" type="curve" smooth="yes"/>
      <point x="208" y="-10"/>
      <point x="250" y="9"/>
      <point x="275" y="30" type="curve"/>
      <point x="279" y="21"/>
      <point x="284" y="9"/>
      <point x="288" y="-1" type="curve"/>
      <point x="225" y="-37"/>
      <point x="193" y="-69"/>
      <point x="193" y="-125" type="curve" smooth="yes"/>
      <point x="193" y="-177"/>
      <point x="230" y="-208"/>
    </contour>
    <contour>
      <point x="212" y="105" type="curve" smooth="yes"/>
      <point x="177" y="105"/>
      <point x="169" y="125"/>
      <point x="169" y="164" type="curve" smooth="yes"/>
      <point x="169" y="298"/>
      <point x="233" y="430"/>
      <point x="290" y="430" type="curve" smooth="yes"/>
      <point x="299" y="430"/>
      <point x="306" y="429"/>
      <point x="315" y="424" type="curve"/>
      <point x="266" y="219" type="line" smooth="yes"/>
      <point x="258" y="184"/>
      <point x="254" y="156"/>
      <point x="254" y="131" type="curve"/>
      <point x="245" y="116"/>
      <point x="229" y="105"/>
    </contour>
  </outline>
</glyph>
<glyph name="Eogonek" format="2">
  <advance width="487"/>
  <unicode hex="0118"/>
  <outline>
    <contour>
      <point x="274" y="-208" type="curve" smooth="yes"/>
      <point x="302" y="-208"/>
      <point x="334" y="-204"/>
      <point x="363" y="-193" type="curve"/>
      <point x="375" y="-100" type="line"/>
      <point x="353" y="-107"/>
      <point x="340" y="-108"/>
      <point x="327" y="-108" type="curve" smooth="yes"/>
      <point x="309" y="-108"/>
      <point x="299" y="-100"/>
      <point x="299" y="-82" type="curve" smooth="yes"/>
      <point x="299" y="-54"/>
      <point x="322" y="-28"/>
      <point x="378" y="0" type="curve"/>
      <point x="407" y="119" type="line"/>
      <point x="182" y="119" type="line"/>
      <point x="227" y="306" type="line"/>
      <point x="414" y="306" type="line"/>
      <point x="442" y="421" type="line"/>
      <point x="255" y="421" type="line"/>
      <point x="292" y="574" type="line"/>
      <point x="495" y="574" type="line"/>
      <point x="523" y="693" type="line"/>
      <point x="178" y="693" type="line"/>
      <point x="12" y="0" type="line"/>
      <point x="265" y="0" type="line"/>
      <point x="206" y="-35"/>
      <point x="178" y="-71"/>
      <point x="178" y="-125" type="curve" smooth="yes"/>
      <point x="178" y="-177"/>
      <point x="215" y="-208"/>
    </contour>
  </outline>
</glyph>
<glyph name="eogonek" format="2">
  <advance width="442"/>
  <unicode hex="0119"/>
  <outline>
    <contour>
      <point x="217" y="-208" type="curve" smooth="yes"/>
      <point x="245" y="-208"/>
      <point x="277" y="-204"/>
      <point x="306" y="-193" type="curve"/>
      <point x="318" y="-100" type="line"/>
      <point x="296" y="-107"/>
      <point x="283" y="-108"/>
      <point x="270" y="-108" type="curve" smooth="yes"/>
      <point x="252" y="-108"/>
      <point x="242" y="-100"/>
      <point x="242" y="-82" type="curve" smooth="yes"/>
      <point x="242" y="-50"/>
      <point x="270" y="-19"/>
      <point x="344" y="14" type="curve"/>
      <point x="337" y="118" type="line"/>
      <point x="312" y="105"/>
      <point x="282" y="100"/>
      <point x="252" y="100" type="curve" smooth="yes"/>
      <point x="201" y="100"/>
      <point x="173" y="118"/>
      <point x="173" y="181" type="curve" smooth="yes"/>
      <point x="173" y="183"/>
      <point x="173" y="186"/>
      <point x="173" y="188" type="curve"/>
      <point x="316" y="198"/>
      <point x="428" y="253"/>
      <point x="435" y="408" type="curve" smooth="yes"/>
      <point x="439" y="494"/>
      <point x="388" y="546"/>
      <point x="302" y="546" type="curve" smooth="yes"/>
      <point x="140" y="546"/>
      <point x="36" y="362"/>
      <point x="36" y="174" type="curve" smooth="yes"/>
      <point x="36" y="79"/>
      <point x="70" y="-1"/>
      <point x="184" y="-13" type="curve" smooth="yes"/>
      <point x="184" y="-13"/>
      <point x="184" y="-13"/>
      <point x="184" y="-13" type="curve"/>
      <point x="141" y="-44"/>
      <point x="121" y="-78"/>
      <point x="121" y="-125" type="curve" smooth="yes"/>
      <point x="121" y="-177"/>
      <point x="158" y="-208"/>
    </contour>
    <contour>
      <point x="180" y="286" type="curve"/>
      <point x="196" y="377"/>
      <point x="237" y="434"/>
      <point x="276" y="434" type="curve" smooth="yes"/>
      <point x="298" y="434"/>
      <point x="307" y="420"/>
      <point x="307" y="396" type="curve" smooth="yes"/>
      <point x="307" y="356"/>
      <point x="283" y="299"/>
    </contour>
  </outline>
</glyph>
<glyph name="Hbar" format="2">
  <advance width="592"/>
  <unicode hex="0126"/>
  <outline>
    <contour>
      <point x="16" y="0" type="line"/>
      <point x="158" y="0" type="line"/>
      <point x="230" y="300" type="line"/>
      <point x="378" y="300" type="line"/>
      <point x="306" y="0" type="line"/>
      <point x="448" y="0" type="line"/>
      <point x="570" y="508" type="line"/>
      <point x="630" y="508" type="line"/>
      <point x="654" y="607" type="line"/>
      <point x="593" y="607" type="line"/>
      <point x="614" y="693" type="line"/>
      <point x="472" y="693" type="line"/>
      <point x="452" y="607" type="line"/>
      <point x="304" y="607" type="line"/>
      <point x="324" y="693" type="line"/>
      <point x="182" y="693" type="line"/>
      <point x="161" y="607" type="line"/>
      <point x="102" y="607" type="line"/>
      <point x="78" y="508" type="line"/>
      <point x="138" y="508" type="line"/>
    </contour>
    <contour>
      <point x="259" y="420" type="line"/>
      <point x="280" y="508" type="line"/>
      <point x="428" y="508" type="line"/>
      <point x="407" y="420" type="line"/>
    </contour>
  </outline>
</glyph>
<glyph name="hbar" format="2">
  <advance width="464"/>
  <unicode hex="0127"/>
  <outline>
    <contour>
      <point x="4" y="0" type="line"/>
      <point x="142" y="0" type="line"/>
      <point x="243" y="422" type="line"/>
      <point x="256" y="426"/>
      <point x="268" y="427"/>
      <point x="274" y="427" type="curve"/>
      <point x="301" y="427"/>
      <point x="317" y="413"/>
      <point x="317" y="374" type="curve" smooth="yes"/>
      <point x="317" y="357"/>
      <point x="314" y="335"/>
      <point x="307" y="307" type="curve" smooth="yes"/>
      <point x="233" y="0" type="line"/>
      <point x="371" y="0" type="line"/>
      <point x="446" y="313" type="line" smooth="yes"/>
      <point x="453" y="343"/>
      <point x="457" y="371"/>
      <point x="457" y="396" type="curve" smooth="yes"/>
      <point x="457" y="488"/>
      <point x="408" y="542"/>
      <point x="326" y="542" type="curve" smooth="yes"/>
      <point x="310" y="542"/>
      <point x="288" y="539"/>
      <point x="269" y="531" type="curve"/>
      <point x="284" y="595" type="line"/>
      <point x="377" y="595" type="line"/>
      <point x="399" y="688" type="line"/>
      <point x="307" y="688" type="line"/>
      <point x="328" y="776" type="line"/>
      <point x="185" y="754" type="line"/>
      <point x="169" y="688" type="line"/>
      <point x="114" y="688" type="line"/>
      <point x="92" y="595" type="line"/>
      <point x="147" y="595" type="line"/>
    </contour>
  </outline>
</glyph>
<glyph name="Iogonek" format="2">
  <advance width="293"/>
  <unicode hex="012E"/>
  <outline>
    <contour>
      <point x="50" y="-208" type="curve" smooth="yes"/>
      <point x="78" y="-208"/>
      <point x="110" y="-204"/>
      <point x="139" y="-193" type="curve"/>
      <point x="151" y="-100" type="line"/>
      <point x="129" y="-107"/>
      <point x="116" y="-108"/>
      <point x="103" y="-108" type="curve" smooth="yes"/>
      <point x="85" y="-108"/>
      <point x="75" y="-100"/>
      <point x="75" y="-82" type="curve" smooth="yes"/>
      <point x="75" y="-54"/>
      <point x="98" y="-27"/>
      <point x="153" y="0" type="curve"/>
      <point x="319" y="693" type="line"/>
      <point x="177" y="693" type="line"/>
      <point x="11" y="0" type="line"/>
      <point x="41" y="0" type="line"/>
      <point x="-18" y="-35"/>
      <point x="-46" y="-71"/>
      <point x="-46" y="-125" type="curve" smooth="yes"/>
      <point x="-46" y="-177"/>
      <point x="-9" y="-208"/>
    </contour>
  </outline>
</glyph>
<glyph name="kgreenlandic" format="2">
  <advance width="469"/>
  <unicode hex="0138"/>
  <outline>
    <contour>
      <point x="4" y="0" type="line"/>
      <point x="142" y="0" type="line"/>
      <point x="197" y="228" type="line"/>
      <point x="219" y="173"/>
      <point x="238" y="83"/>
      <point x="245" y="0" type="curve"/>
      <point x="388" y="0" type="line"/>
      <point x="379" y="93"/>
      <point x="353" y="192"/>
      <point x="316" y="278" type="curve"/>
      <point x="391" y="366"/>
      <point x="464" y="457"/>
      <point x="514" y="532" type="curve"/>
      <point x="368" y="532" type="line"/>
      <point x="335" y="476"/>
      <point x="268" y="384"/>
      <point x="220" y="325" type="curve"/>
      <point x="270" y="532" type="line"/>
      <point x="132" y="532" type="line"/>
    </contour>
  </outline>
</glyph>
<glyph name="Lslash" format="2">
  <advance width="468"/>
  <unicode hex="0141"/>
  <outline>
    <contour>
      <point x="32" y="0" type="line"/>
      <point x="381" y="0" type="line"/>
      <point x="410" y="119" type="line"/>
      <point x="202" y="119" type="line"/>
      <point x="255" y="340" type="line"/>
      <point x="409" y="413" type="line"/>
      <point x="384" y="501" type="line"/>
      <point x="282" y="453" type="line"/>
      <point x="340" y="693" type="line"/>
      <point x="198" y="693" type="line"/>
      <point x="123" y="378" type="line"/>
      <point x="22" y="331" type="line"/>
      <point x="50" y="243" type="line"/>
      <point x="95" y="264" type="line"/>
    </contour>
  </outline>
</glyph>
<glyph name="lslash" format="2">
  <advance width="327"/>
  <unicode hex="0142"/>
  <outline>
    <contour>
      <point x="216" y="-14" type="curve"/>
      <point x="243" y="98" type="line"/>
      <point x="202" y="101"/>
      <point x="190" y="117"/>
      <point x="200" y="160" type="curve" smooth="yes"/>
      <point x="254" y="383" type="line"/>
      <point x="374" y="440" type="line"/>
      <point x="349" y="534" type="line"/>
      <point x="282" y="502" type="line"/>
      <point x="348" y="776" type="line"/>
      <point x="205" y="754" type="line"/>
      <point x="126" y="429" type="line"/>
      <point x="25" y="381" type="line"/>
      <point x="50" y="287" type="line"/>
      <point x="98" y="309" type="line"/>
      <point x="61" y="158" type="line" smooth="yes"/>
      <point x="33" y="44"/>
      <point x="83" y="-10"/>
    </contour>
  </outline>
</glyph>
<glyph name="eng" format="2">
  <advance width="496"/>
  <unicode hex="014B"/>
  <outline>
    <contour>
      <point x="187" y="-188" type="curve" smooth="yes"/>
      <point x="283" y="-188"/>
      <point x="340" y="-132"/>
      <point x="368" y="-12" type="curve" smooth="yes"/>
      <point x="446" y="313" type="line" smooth="yes"/>
      <point x="483" y="467"/>
      <point x="434" y="542"/>
      <point x="301" y="542" type="curve" smooth="yes"/>
      <point x="243" y="542"/>
      <point x="187" y="531"/>
      <point x="127" y="513" type="curve"/>
      <point x="4" y="0" type="line"/>
      <point x="142" y="0" type="line"/>
      <point x="243" y="421" type="line"/>
      <point x="254" y="425"/>
      <point x="265" y="427"/>
      <point x="274" y="427" type="curve" smooth="yes"/>
      <point x="315" y="427"/>
      <point x="328" y="392"/>
      <point x="307" y="307" type="curve" smooth="yes"/>
      <point x="228" y="-21" type="line" smooth="yes"/>
      <point x="220" y="-58"/>
      <point x="205" y="-78"/>
      <point x="179" y="-78" type="curve" smooth="yes"/>
      <point x="161" y="-78"/>
      <point x="149" y="-74"/>
      <point x="135" y="-67" type="curve"/>
      <point x="97" y="-169" type="line"/>
      <point x="123" y="-180"/>
      <point x="157" y="-188"/>
    </contour>
  </outline>
</glyph>
<glyph name="Scedilla" format="2">
  <advance width="429"/>
  <unicode hex="015E"/>
  <outline>
    <contour>
      <point x="88" y="-210" type="curve" smooth="yes"/>
      <point x="175" y="-210"/>
      <point x="232" y="-167"/>
      <point x="232" y="-101" type="curve" smooth="yes"/>
      <point x="232" y="-77"/>
      <point x="222" y="-55"/>
      <point x="193" y="-39" type="curve"/>
      <point x="202" y="-26"/>
      <point x="209" y="-14"/>
      <point x="214" y="-5" type="curve"/>
      <point x="323" y="24"/>
      <point x="388" y="115"/>
      <point x="388" y="228" type="curve" smooth="yes"/>
      <point x="388" y="303"/>
      <point x="348" y="353"/>
      <point x="310" y="395" type="curve" smooth="yes"/>
      <point x="274" y="434"/>
      <point x="240" y="467"/>
      <point x="240" y="508" type="curve" smooth="yes"/>
      <point x="240" y="562"/>
      <point x="271" y="587"/>
      <point x="325" y="587" type="curve" smooth="yes"/>
      <point x="359" y="587"/>
      <point x="400" y="578"/>
      <point x="425" y="565" type="curve"/>
      <point x="471" y="675" type="line"/>
      <point x="432" y="696"/>
      <point x="392" y="707"/>
      <point x="335" y="707" type="curve" smooth="yes"/>
      <point x="202" y="707"/>
      <point x="97" y="613"/>
      <point x="97" y="481" type="curve" smooth="yes"/>
      <point x="97" y="407"/>
      <point x="139" y="362"/>
      <point x="178" y="321" type="curve" smooth="yes"/>
      <point x="212" y="286"/>
      <point x="243" y="253"/>
      <point x="243" y="206" type="curve" smooth="yes"/>
      <point x="243" y="145"/>
      <point x="212" y="106"/>
      <point x="158" y="106" type="curve" smooth="yes"/>
      <point x="119" y="106"/>
      <point x="63" y="119"/>
      <point x="30" y="147" type="curve"/>
      <point x="-18" y="29" type="line"/>
      <point x="17" y="9"/>
      <point x="65" y="-10"/>
      <point x="121" y="-13" type="curve"/>
      <point x="109" y="-32"/>
      <point x="97" y="-54"/>
      <point x="88" y="-71" type="curve"/>
      <point x="117" y="-75"/>
      <point x="131" y="-84"/>
      <point x="131" y="-99" type="curve" smooth="yes"/>
      <point x="131" y="-114"/>
      <point x="117" y="-126"/>
      <point x="91" y="-126" type="curve" smooth="yes"/>
      <point x="76" y="-126"/>
      <point x="58" y="-123"/>
      <point x="45" y="-117" type="curve"/>
      <point x="15" y="-198" type="line"/>
      <point x="39" y="-206"/>
      <point x="65" y="-210"/>
    </contour>
  </outline>
</glyph>
<glyph name="tcedilla" format="2">
  <advance width="353"/>
  <unicode hex="0163"/>
  <outline>
    <contour>
      <point x="84" y="-210" type="curve" smooth="yes"/>
      <point x="171" y="-210"/>
      <point x="228" y="-167"/>
      <point x="228" y="-101" type="curve" smooth="yes"/>
      <point x="228" y="-77"/>
      <point x="218" y="-55"/>
      <point x="189" y="-39" type="curve"/>
      <point x="195" y="-29"/>
      <point x="201" y="-20"/>
      <point x="206" y="-12" type="curve"/>
      <point x="235" y="-9"/>
      <point x="265" y="-3"/>
      <point x="287" y="7" type="curve"/>
      <point x="280" y="115" type="line"/>
      <point x="260" y="109"/>
      <point x="238" y="106"/>
      <point x="217" y="106" type="curve"/>
      <point x="170" y="106"/>
      <point x="161" y="129"/>
      <point x="175" y="187" type="curve" smooth="yes"/>
      <point x="230" y="419" type="line"/>
      <point x="350" y="419" type="line"/>
      <point x="377" y="532" type="line"/>
      <point x="258" y="532" type="line"/>
      <point x="293" y="681" type="line"/>
      <point x="150" y="659" type="line"/>
      <point x="39" y="195" type="line" smooth="yes"/>
      <point x="11" y="77"/>
      <point x="28" y="8"/>
      <point x="120" y="-9" type="curve"/>
      <point x="107" y="-29"/>
      <point x="93" y="-53"/>
      <point x="84" y="-71" type="curve"/>
      <point x="113" y="-75"/>
      <point x="127" y="-84"/>
      <point x="127" y="-99" type="curve" smooth="yes"/>
      <point x="127" y="-114"/>
      <point x="113" y="-126"/>
      <point x="87" y="-126" type="curve" smooth="yes"/>
      <point x="72" y="-126"/>
      <point x="54" y="-123"/>
      <point x="41" y="-117" type="curve"/>
      <point x="11" y="-198" type="line"/>
      <point x="35" y="-206"/>
      <point x="61" y="-210"/>
    </contour>
  </outline>
</glyph>
<glyph name="tbar" format="2">
  <advance width="353"/>
  <unicode hex="0167"/>
  <outline>
    <contour>
      <point x="174" y="-14" type="curve" smooth="yes"/>
      <point x="212" y="-14"/>
      <point x="257" y="-6"/>
      <point x="287" y="7" type="curve"/>
      <point x="280" y="115" type="line"/>
      <point x="260" y="109"/>
      <point x="238" y="106"/>
      <point x="217" y="106" type="curve"/>
      <point x="170" y="106"/>
      <point x="161" y="129"/>
      <point x="175" y="187" type="curve" smooth="yes"/>
      <point x="184" y="226" type="line"/>
      <point x="303" y="226" type="line"/>
      <point x="324" y="315" type="line"/>
      <point x="205" y="315" type="line"/>
      <point x="230" y="419" type="line"/>
      <point x="350" y="419" type="line"/>
      <point x="377" y="532" type="line"/>
      <point x="258" y="532" type="line"/>
      <point x="293" y="681" type="line"/>
      <point x="150" y="659" type="line"/>
      <point x="39" y="195" type="line" smooth="yes"/>
      <point x="6" y="56"/>
      <point x="35" y="-14"/>
    </contour>
  </outline>
</glyph>
<glyph name="uogonek" format="2">
  <advance width="501"/>
  <unicode hex="0173"/>
  <outline>
    <contour>
      <point x="296" y="-208" type="curve" smooth="yes"/>
      <point x="324" y="-208"/>
      <point x="356" y="-204"/>
      <point x="385" y="-193" type="curve"/>
      <point x="397" y="-100" type="line"/>
      <point x="375" y="-107"/>
      <point x="362" y="-108"/>
      <point x="349" y="-108" type="curve" smooth="yes"/>
      <point x="331" y="-108"/>
      <point x="321" y="-100"/>
      <point x="321" y="-82" type="curve" smooth="yes"/>
      <point x="321" y="-51"/>
      <point x="350" y="-22"/>
      <point x="418" y="9" type="curve"/>
      <point x="406" y="44"/>
      <point x="401" y="84"/>
      <point x="401" y="125" type="curve" smooth="yes"/>
      <point x="401" y="158"/>
      <point x="404" y="192"/>
      <point x="412" y="223" type="curve" smooth="yes"/>
      <point x="486" y="532" type="line"/>
      <point x="348" y="532" type="line"/>
      <point x="273" y="219" type="line" smooth="yes"/>
      <point x="266" y="189"/>
      <point x="262" y="160"/>
      <point x="261" y="133" type="curve"/>
      <point x="251" y="117"/>
      <point x="235" y="105"/>
      <point x="217" y="105" type="curve" smooth="yes"/>
      <point x="174" y="105"/>
      <point x="164" y="139"/>
      <point x="185" y="225" type="curve" smooth="yes"/>
      <point x="259" y="532" type="line"/>
      <point x="121" y="532" type="line"/>
      <point x="46" y="219" type="line" smooth="yes"/>
      <point x="10" y="67"/>
      <point x="70" y="-10"/>
      <point x="162" y="-10" type="curve" smooth="yes"/>
      <point x="214" y="-10"/>
      <point x="258" y="9"/>
      <point x="284" y="31" type="curve"/>
      <point x="287" y="21"/>
      <point x="290" y="10"/>
      <point x="294" y="1" type="curve"/>
      <point x="230" y="-35"/>
      <point x="200" y="-69"/>
      <point x="200" y="-125" type="curve" smooth="yes"/>
      <point x="200" y="-177"/>
      <point x="237" y="-208"/>
    </contour>
  </outline>
</glyph>
<glyph name="longs" format="2">
  <advance width="404"/>
  <unicode hex="017F"/>
  <outline>
    <contour>
      <point x="56" y="-189" type="line"/>
      <point x="110" y="-123"/>
      <point x="149" y="-54"/>
      <point x="183" y="90" type="curve" smooth="yes"/>
      <point x="294" y="554" type="line" smooth="yes"/>
      <point x="309" y="616"/>
      <point x="327" y="659"/>
      <point x="387" y="659" type="curve" smooth="yes"/>
      <point x="412" y="659"/>
      <point x="432" y="651"/>
      <point x="448" y="643" type="curve"/>
      <point x="494" y="752" type="line"/>
      <point x="472" y="766"/>
      <point x="436" y="776"/>
      <point x="395" y="776" type="curve" smooth="yes"/>
      <point x="256" y="776"/>
      <point x="192" y="698"/>
      <point x="158" y="556" type="curve" smooth="yes"/>
      <point x="41" y="72" type="line" smooth="yes"/>
      <point x="22" y="-8"/>
      <point x="-19" y="-112"/>
      <point x="-70" y="-169" type="curve"/>
    </contour>
  </outline>
</glyph>
<glyph name="Btopbar" format="2">
  <advance width="527"/>
  <unicode hex="0182"/>
  <outline>
    <contour>
      <point x="193" y="-10" type="curve"/>
      <point x="362" y="-10"/>
      <point x="473" y="103"/>
      <point x="473" y="272" type="curve" smooth="yes"/>
      <point x="473" y="384"/>
      <point x="404" y="447"/>
      <point x="282" y="447" type="curve" smooth="yes"/>
      <point x="261" y="447" type="line"/>
      <point x="292" y="574" type="line"/>
      <point x="491" y="574" type="line"/>
      <point x="519" y="693" type="line"/>
      <point x="178" y="693" type="line"/>
      <point x="15" y="11" type="line"/>
      <point x="68" y="-4"/>
      <point x="138" y="-10"/>
    </contour>
    <contour>
      <point x="210" y="112" type="curve"/>
      <point x="201" y="112"/>
      <point x="190" y="113"/>
      <point x="182" y="115" type="curve"/>
      <point x="233" y="328" type="line"/>
      <point x="250" y="328" type="line" smooth="yes"/>
      <point x="294" y="328"/>
      <point x="321" y="306"/>
      <point x="321" y="263" type="curve" smooth="yes"/>
      <point x="321" y="173"/>
      <point x="282" y="112"/>
    </contour>
  </outline>
</glyph>
<glyph name="Dhook" format="2">
  <advance width="687"/>
  <unicode hex="018A"/>
  <outline>
    <contour>
      <point x="301" y="-10" type="curve" smooth="yes"/>
      <point x="561" y="-10"/>
      <point x="667" y="257"/>
      <point x="667" y="476" type="curve" smooth="yes"/>
      <point x="667" y="628"/>
      <point x="596" y="703"/>
      <point x="425" y="703" type="curve" smooth="yes"/>
      <point x="99" y="703"/>
      <point x="64" y="561"/>
      <point x="64" y="461" type="curve"/>
      <point x="175" y="475" type="line"/>
      <point x="175" y="534"/>
      <point x="195" y="572"/>
      <point x="253" y="582" type="curve"/>
      <point x="116" y="11" type="line"/>
      <point x="166" y="-3"/>
      <point x="238" y="-10"/>
    </contour>
    <contour>
      <point x="338" y="110" type="curve" smooth="yes"/>
      <point x="326" y="110"/>
      <point x="303" y="113"/>
      <point x="283" y="118" type="curve"/>
      <point x="394" y="580" type="line"/>
      <point x="409" y="582"/>
      <point x="423" y="583"/>
      <point x="432" y="583" type="curve" smooth="yes"/>
      <point x="491" y="583"/>
      <point x="520" y="545"/>
      <point x="520" y="464" type="curve" smooth="yes"/>
      <point x="520" y="284"/>
      <point x="446" y="110"/>
    </contour>
  </outline>
</glyph>
<glyph name="Fhook" format="2">
  <advance width="457"/>
  <unicode hex="0191"/>
  <outline>
    <contour>
      <point x="-54" y="-188" type="curve"/>
      <point x="75" y="-188"/>
      <point x="128" y="-103"/>
      <point x="153" y="0" type="curve" smooth="yes"/>
      <point x="225" y="300" type="line"/>
      <point x="408" y="300" type="line"/>
      <point x="436" y="415" type="line"/>
      <point x="253" y="415" type="line"/>
      <point x="291" y="574" type="line"/>
      <point x="490" y="574" type="line"/>
      <point x="518" y="693" type="line"/>
      <point x="177" y="693" type="line"/>
      <point x="11" y="0" type="line" smooth="yes"/>
      <point x="1" y="-42"/>
      <point x="-17" y="-68"/>
      <point x="-49" y="-68" type="curve" smooth="yes"/>
      <point x="-60" y="-68"/>
      <point x="-69" y="-66"/>
      <point x="-79" y="-63" type="curve"/>
      <point x="-119" y="-176" type="line"/>
      <point x="-99" y="-185"/>
      <point x="-77" y="-188"/>
    </contour>
  </outline>
</glyph>
<glyph name="florin" format="2">
  <advance width="348"/>
  <unicode hex="0192"/>
  <outline>
    <contour>
      <point x="-64" y="-188" type="curve" smooth="yes"/>
      <point x="47" y="-188"/>
      <point x="113" y="-124"/>
      <point x="138" y="-18" type="curve" smooth="yes"/>
      <point x="243" y="419" type="line"/>
      <point x="360" y="419" type="line"/>
      <point x="387" y="532" type="line"/>
      <point x="270" y="532" type="line"/>
      <point x="284" y="588" type="line" smooth="yes"/>
      <point x="297" y="639"/>
      <point x="318" y="659"/>
      <point x="360" y="659" type="curve"/>
      <point x="378" y="659"/>
      <point x="401" y="654"/>
      <point x="414" y="647" type="curve"/>
      <point x="460" y="758" type="line"/>
      <point x="441" y="768"/>
      <point x="400" y="776"/>
      <point x="360" y="776" type="curve" smooth="yes"/>
      <point x="244" y="776"/>
      <point x="175" y="711"/>
      <point x="143" y="578" type="curve" smooth="yes"/>
      <point x="0" y="-18" type="line" smooth="yes"/>
      <point x="-9" y="-54"/>
      <point x="-21" y="-68"/>
      <point x="-48" y="-68" type="curve"/>
      <point x="-61" y="-68"/>
      <point x="-74" y="-66"/>
      <point x="-86" y="-62" type="curve"/>
      <point x="-127" y="-175" type="line"/>
      <point x="-107" y="-183"/>
      <point x="-87" y="-188"/>
    </contour>
  </outline>
</glyph>
<glyph name="lbar" format="2">
  <advance width="288"/>
  <unicode hex="019A"/>
  <outline>
    <contour>
      <point x="195" y="-14" type="curve"/>
      <point x="222" y="98" type="line"/>
      <point x="190" y="100"/>
      <point x="176" y="111"/>
      <point x="176" y="135" type="curve" smooth="yes"/>
      <point x="176" y="142"/>
      <point x="177" y="151"/>
      <point x="179" y="160" type="curve" smooth="yes"/>
      <point x="226" y="357" type="line"/>
      <point x="292" y="357" type="line"/>
      <point x="313" y="445" type="line"/>
      <point x="247" y="445" type="line"/>
      <point x="327" y="776" type="line"/>
      <point x="184" y="754" type="line"/>
      <point x="109" y="445" type="line"/>
      <point x="55" y="445" type="line"/>
      <point x="34" y="357" type="line"/>
      <point x="88" y="357" type="line"/>
      <point x="40" y="158" type="line" smooth="yes"/>
      <point x="35" y="138"/>
      <point x="32" y="119"/>
      <point x="32" y="103" type="curve" smooth="yes"/>
      <point x="32" y="26"/>
      <point x="86" y="-11"/>
    </contour>
  </outline>
</glyph>
<glyph name="ohorn" format="2">
  <advance width="482"/>
  <unicode hex="01A1"/>
  <outline>
    <contour>
      <point x="194" y="-11" type="curve" smooth="yes"/>
      <point x="353" y="-11"/>
      <point x="447" y="190"/>
      <point x="447" y="367" type="curve" smooth="yes"/>
      <point x="447" y="393"/>
      <point x="444" y="417"/>
      <point x="438" y="438" type="curve"/>
      <point x="504" y="494"/>
      <point x="538" y="568"/>
      <point x="545" y="638" type="curve"/>
      <point x="421" y="638" type="line"/>
      <point x="415" y="593"/>
      <point x="405" y="552"/>
      <point x="385" y="515" type="curve"/>
      <point x="360" y="533"/>
      <point x="328" y="543"/>
      <point x="289" y="543" type="curve" smooth="yes"/>
      <point x="129" y="543"/>
      <point x="35" y="343"/>
      <point x="35" y="165" type="curve" smooth="yes"/>
      <point x="35" y="56"/>
      <point x="91" y="-11"/>
    </contour>
    <contour>
      <point x="208" y="103" type="curve" smooth="yes"/>
      <point x="183" y="103"/>
      <point x="175" y="121"/>
      <point x="175" y="154" type="curve" smooth="yes"/>
      <point x="175" y="229"/>
      <point x="207" y="429"/>
      <point x="274" y="429" type="curve" smooth="yes"/>
      <point x="298" y="429"/>
      <point x="307" y="411"/>
      <point x="307" y="378" type="curve" smooth="yes"/>
      <point x="307" y="301"/>
      <point x="274" y="103"/>
    </contour>
  </outline>
</glyph>
<glyph name="Oi" format="2">
  <advance width="862"/>
  <unicode hex="01A2"/>
  <outline>
    <contour>
      <point x="262" y="-13" type="curve" smooth="yes"/>
      <point x="465" y="-13"/>
      <point x="585" y="243"/>
      <point x="585" y="468" type="curve" smooth="yes"/>
      <point x="585" y="508"/>
      <point x="581" y="544"/>
      <point x="571" y="575" type="curve"/>
      <point x="596" y="582"/>
      <point x="619" y="586"/>
      <point x="638" y="586" type="curve" smooth="yes"/>
      <point x="680" y="586"/>
      <point x="706" y="568"/>
      <point x="706" y="516" type="curve" smooth="yes"/>
      <point x="706" y="500"/>
      <point x="704" y="481"/>
      <point x="698" y="458" type="curve" smooth="yes"/>
      <point x="588" y="0" type="line"/>
      <point x="730" y="0" type="line"/>
      <point x="839" y="451" type="line" smooth="yes"/>
      <point x="848" y="488"/>
      <point x="852" y="521"/>
      <point x="852" y="550" type="curve" smooth="yes"/>
      <point x="852" y="656"/>
      <point x="794" y="710"/>
      <point x="687" y="710" type="curve" smooth="yes"/>
      <point x="637" y="710"/>
      <point x="575" y="698"/>
      <point x="513" y="668" type="curve"/>
      <point x="482" y="693"/>
      <point x="439" y="707"/>
      <point x="385" y="707" type="curve" smooth="yes"/>
      <point x="180" y="707"/>
      <point x="60" y="452"/>
      <point x="60" y="225" type="curve" smooth="yes"/>
      <point x="60" y="78"/>
      <point x="121" y="-13"/>
    </contour>
    <contour>
      <point x="274" y="110" type="curve" smooth="yes"/>
      <point x="221" y="110"/>
      <point x="206" y="152"/>
      <point x="206" y="222" type="curve" smooth="yes"/>
      <point x="206" y="321"/>
      <point x="257" y="585"/>
      <point x="369" y="585" type="curve" smooth="yes"/>
      <point x="418" y="585"/>
      <point x="438" y="542"/>
      <point x="438" y="472" type="curve" smooth="yes"/>
      <point x="438" y="370"/>
      <point x="383" y="110"/>
    </contour>
  </outline>
</glyph>
<glyph name="oi" format="2">
  <advance width="723"/>
  <unicode hex="01A3"/>
  <outline>
    <contour>
      <point x="416" y="-185" type="line"/>
      <point x="554" y="-185" type="line"/>
      <point x="673" y="313" type="line" smooth="yes"/>
      <point x="681" y="345"/>
      <point x="684" y="373"/>
      <point x="684" y="398" type="curve" smooth="yes"/>
      <point x="684" y="495"/>
      <point x="630" y="542"/>
      <point x="533" y="542" type="curve"/>
      <point x="485" y="542"/>
      <point x="443" y="528"/>
      <point x="402" y="501" type="curve"/>
      <point x="375" y="528"/>
      <point x="337" y="543"/>
      <point x="289" y="543" type="curve" smooth="yes"/>
      <point x="129" y="543"/>
      <point x="35" y="343"/>
      <point x="35" y="165" type="curve" smooth="yes"/>
      <point x="35" y="56"/>
      <point x="91" y="-11"/>
      <point x="194" y="-11" type="curve" smooth="yes"/>
      <point x="353" y="-11"/>
      <point x="447" y="190"/>
      <point x="447" y="367" type="curve" smooth="yes"/>
      <point x="447" y="384"/>
      <point x="446" y="399"/>
      <point x="443" y="414" type="curve"/>
      <point x="461" y="422"/>
      <point x="476" y="425"/>
      <point x="489" y="425" type="curve" smooth="yes"/>
      <point x="526" y="425"/>
      <point x="543" y="410"/>
      <point x="543" y="370" type="curve" smooth="yes"/>
      <point x="543" y="354"/>
      <point x="540" y="333"/>
      <point x="534" y="307" type="curve" smooth="yes"/>
    </contour>
    <contour>
      <point x="208" y="103" type="curve" smooth="yes"/>
      <point x="183" y="103"/>
      <point x="175" y="121"/>
      <point x="175" y="154" type="curve" smooth="yes"/>
      <point x="175" y="229"/>
      <point x="207" y="429"/>
      <point x="274" y="429" type="curve" smooth="yes"/>
      <point x="298" y="429"/>
      <point x="307" y="411"/>
      <point x="307" y="378" type="curve" smooth="yes"/>
      <point x="307" y="301"/>
      <point x="274" y="103"/>
    </contour>
  </outline>
</glyph>
<glyph name="phook" format="2">
  <advance width="488"/>
  <unicode hex="01A5"/>
  <outline>
    <contour>
      <point x="-40" y="-185" type="line"/>
      <point x="98" y="-185" type="line"/>
      <point x="141" y="-4" type="line"/>
      <point x="156" y="-11"/>
      <point x="173" y="-14"/>
      <point x="186" y="-14" type="curve" smooth="yes"/>
      <point x="319" y="-14"/>
      <point x="457" y="165"/>
      <point x="457" y="380" type="curve" smooth="yes"/>
      <point x="457" y="480"/>
      <point x="413" y="542"/>
      <point x="287" y="542" type="curve" smooth="yes"/>
      <point x="283" y="542"/>
      <point x="278" y="542"/>
      <point x="273" y="542" type="curve"/>
      <point x="285" y="592" type="line" smooth="yes"/>
      <point x="298" y="649"/>
      <point x="324" y="666"/>
      <point x="352" y="666" type="curve" smooth="yes"/>
      <point x="362" y="666"/>
      <point x="373" y="664"/>
      <point x="383" y="660" type="curve"/>
      <point x="423" y="764" type="line"/>
      <point x="398" y="775"/>
      <point x="372" y="776"/>
      <point x="356" y="776" type="curve" smooth="yes"/>
      <point x="249" y="776"/>
      <point x="181" y="733"/>
      <point x="149" y="599" type="curve" smooth="yes"/>
    </contour>
    <contour>
      <point x="193" y="101" type="curve" smooth="yes"/>
      <point x="187" y="101"/>
      <point x="180" y="101"/>
      <point x="168" y="106" type="curve"/>
      <point x="242" y="417" type="line"/>
      <point x="251" y="422"/>
      <point x="265" y="426"/>
      <point x="278" y="426" type="curve" smooth="yes"/>
      <point x="307" y="426"/>
      <point x="317" y="406"/>
      <point x="317" y="367" type="curve" smooth="yes"/>
      <point x="317" y="232"/>
      <point x="249" y="101"/>
    </contour>
  </outline>
</glyph>
<glyph name="Tonetwo" format="2">
  <advance width="429"/>
  <unicode hex="01A7"/>
  <outline>
    <contour>
      <point x="182" y="-14" type="curve" smooth="yes"/>
      <point x="241" y="-14"/>
      <point x="313" y="4"/>
      <point x="357" y="29" type="curve"/>
      <point x="344" y="146" type="line"/>
      <point x="303" y="121"/>
      <point x="254" y="106"/>
      <point x="216" y="106" type="curve" smooth="yes"/>
      <point x="177" y="106"/>
      <point x="152" y="128"/>
      <point x="152" y="165" type="curve" smooth="yes"/>
      <point x="152" y="218"/>
      <point x="185" y="256"/>
      <point x="291" y="317" type="curve" smooth="yes"/>
      <point x="405" y="383"/>
      <point x="458" y="458"/>
      <point x="458" y="552" type="curve" smooth="yes"/>
      <point x="458" y="641"/>
      <point x="393" y="707"/>
      <point x="296" y="707" type="curve" smooth="yes"/>
      <point x="238" y="707"/>
      <point x="180" y="697"/>
      <point x="128" y="670" type="curve"/>
      <point x="144" y="560" type="line"/>
      <point x="176" y="578"/>
      <point x="220" y="587"/>
      <point x="257" y="587" type="curve" smooth="yes"/>
      <point x="294" y="587"/>
      <point x="315" y="570"/>
      <point x="315" y="541" type="curve" smooth="yes"/>
      <point x="315" y="499"/>
      <point x="297" y="469"/>
      <point x="176" y="399" type="curve" smooth="yes"/>
      <point x="45" y="323"/>
      <point x="10" y="245"/>
      <point x="10" y="153" type="curve" smooth="yes"/>
      <point x="10" y="57"/>
      <point x="71" y="-14"/>
    </contour>
  </outline>
</glyph>
<glyph name="tonetwo" format="2">
  <advance width="384"/>
  <unicode hex="01A8"/>
  <outline>
    <contour>
      <point x="150" y="-14" type="curve" smooth="yes"/>
      <point x="204" y="-14"/>
      <point x="257" y="3"/>
      <point x="284" y="17" type="curve"/>
      <point x="284" y="124" type="line"/>
      <point x="252" y="107"/>
      <point x="212" y="98"/>
      <point x="185" y="98" type="curve" smooth="yes"/>
      <point x="152" y="98"/>
      <point x="137" y="112"/>
      <point x="137" y="134" type="curve" smooth="yes"/>
      <point x="137" y="166"/>
      <point x="160" y="183"/>
      <point x="240" y="233" type="curve" smooth="yes"/>
      <point x="324" y="286"/>
      <point x="364" y="344"/>
      <point x="364" y="420" type="curve" smooth="yes"/>
      <point x="364" y="495"/>
      <point x="314" y="546"/>
      <point x="226" y="546" type="curve" smooth="yes"/>
      <point x="173" y="546"/>
      <point x="126" y="533"/>
      <point x="105" y="524" type="curve"/>
      <point x="101" y="418" type="line"/>
      <point x="135" y="431"/>
      <point x="162" y="434"/>
      <point x="187" y="434" type="curve" smooth="yes"/>
      <point x="215" y="434"/>
      <point x="229" y="422"/>
      <point x="229" y="399" type="curve" smooth="yes"/>
      <point x="229" y="364"/>
      <point x="205" y="347"/>
      <point x="131" y="303" type="curve" smooth="yes"/>
      <point x="34" y="245"/>
      <point x="4" y="185"/>
      <point x="4" y="113" type="curve" smooth="yes"/>
      <point x="4" y="35"/>
      <point x="59" y="-14"/>
    </contour>
  </outline>
</glyph>
<glyph name="Thook" format="2">
  <advance width="515"/>
  <unicode hex="01AC"/>
  <outline>
    <contour>
      <point x="149" y="0" type="line"/>
      <point x="291" y="0" type="line"/>
      <point x="429" y="574" type="line"/>
      <point x="567" y="574" type="line"/>
      <point x="595" y="693" type="line"/>
      <point x="381" y="693" type="line" smooth="yes"/>
      <point x="92" y="693"/>
      <point x="67" y="567"/>
      <point x="67" y="468" type="curve" smooth="yes"/>
      <point x="67" y="463"/>
      <point x="67" y="459"/>
      <point x="67" y="454" type="curve"/>
      <point x="178" y="468" type="line"/>
      <point x="178" y="526"/>
      <point x="196" y="574"/>
      <point x="267" y="574" type="curve" smooth="yes"/>
      <point x="287" y="574" type="line"/>
    </contour>
  </outline>
</glyph>
<glyph name="thook" format="2">
  <advance width="353"/>
  <unicode hex="01AD"/>
  <outline>
    <contour>
      <point x="174" y="-14" type="curve" smooth="yes"/>
      <point x="212" y="-14"/>
      <point x="257" y="-6"/>
      <point x="287" y="7" type="curve"/>
      <point x="280" y="115" type="line"/>
      <point x="260" y="109"/>
      <point x="238" y="106"/>
      <point x="217" y="106" type="curve"/>
      <point x="183" y="106"/>
      <point x="169" y="118"/>
      <point x="169" y="146" type="curve" smooth="yes"/>
      <point x="169" y="157"/>
      <point x="171" y="171"/>
      <point x="175" y="187" type="curve" smooth="yes"/>
      <point x="230" y="419" type="line"/>
      <point x="350" y="419" type="line"/>
      <point x="377" y="532" type="line"/>
      <point x="258" y="532" type="line"/>
      <point x="271" y="588" type="line"/>
      <point x="283" y="639"/>
      <point x="304" y="659"/>
      <point x="345" y="659" type="curve" smooth="yes"/>
      <point x="365" y="659"/>
      <point x="387" y="655"/>
      <point x="401" y="647" type="curve"/>
      <point x="443" y="758" type="line"/>
      <point x="425" y="768"/>
      <point x="390" y="776"/>
      <point x="352" y="776" type="curve" smooth="yes"/>
      <point x="238" y="776"/>
      <point x="163" y="711"/>
      <point x="131" y="578" type="curve" smooth="yes"/>
      <point x="39" y="195" type="line" smooth="yes"/>
      <point x="31" y="161"/>
      <point x="27" y="131"/>
      <point x="27" y="106" type="curve" smooth="yes"/>
      <point x="27" y="26"/>
      <point x="69" y="-14"/>
    </contour>
  </outline>
</glyph>
<glyph name="Tretroflexhook" format="2">
  <advance width="464"/>
  <unicode hex="01AE"/>
  <outline>
    <contour>
      <point x="213" y="-188" type="curve" smooth="yes"/>
      <point x="237" y="-188"/>
      <point x="261" y="-185"/>
      <point x="286" y="-176" type="curve"/>
      <point x="294" y="-63" type="line"/>
      <point x="283" y="-66"/>
      <point x="269" y="-68"/>
      <point x="258" y="-68" type="curve" smooth="yes"/>
      <point x="241" y="-68"/>
      <point x="232" y="-61"/>
      <point x="232" y="-43" type="curve" smooth="yes"/>
      <point x="232" y="-36"/>
      <point x="233" y="-28"/>
      <point x="236" y="-18" type="curve" smooth="yes"/>
      <point x="378" y="574" type="line"/>
      <point x="516" y="574" type="line"/>
      <point x="544" y="693" type="line"/>
      <point x="125" y="693" type="line"/>
      <point x="97" y="574" type="line"/>
      <point x="236" y="574" type="line"/>
      <point x="98" y="-2" type="line" smooth="yes"/>
      <point x="93" y="-23"/>
      <point x="90" y="-43"/>
      <point x="90" y="-62" type="curve" smooth="yes"/>
      <point x="90" y="-135"/>
      <point x="130" y="-188"/>
    </contour>
  </outline>
</glyph>
<glyph name="Vhook" format="2">
  <advance width="576"/>
  <unicode hex="01B2"/>
  <outline>
    <contour>
      <point x="230" y="-14" type="curve" smooth="yes"/>
      <point x="434" y="-14"/>
      <point x="567" y="265"/>
      <point x="567" y="527" type="curve" smooth="yes"/>
      <point x="567" y="644"/>
      <point x="518" y="697"/>
      <point x="432" y="697" type="curve" smooth="yes"/>
      <point x="413" y="697"/>
      <point x="394" y="695"/>
      <point x="379" y="693" type="curve"/>
      <point x="357" y="568" type="line"/>
      <point x="362" y="569"/>
      <point x="371" y="570"/>
      <point x="380" y="570" type="curve" smooth="yes"/>
      <point x="401" y="570"/>
      <point x="418" y="551"/>
      <point x="418" y="495" type="curve" smooth="yes"/>
      <point x="418" y="353"/>
      <point x="348" y="110"/>
      <point x="252" y="110" type="curve" smooth="yes"/>
      <point x="217" y="110"/>
      <point x="192" y="130"/>
      <point x="192" y="178" type="curve" smooth="yes"/>
      <point x="192" y="190"/>
      <point x="194" y="205"/>
      <point x="198" y="222" type="curve" smooth="yes"/>
      <point x="311" y="693" type="line"/>
      <point x="169" y="693" type="line"/>
      <point x="59" y="235" type="line" smooth="yes"/>
      <point x="52" y="207"/>
      <point x="49" y="181"/>
      <point x="49" y="158" type="curve" smooth="yes"/>
      <point x="49" y="47"/>
      <point x="119" y="-14"/>
    </contour>
  </outline>
</glyph>
<glyph name="Yhook" format="2">
  <advance width="542"/>
  <unicode hex="01B3"/>
  <outline>
    <contour>
      <point x="117" y="0" type="line"/>
      <point x="259" y="0" type="line"/>
      <point x="322" y="261" type="line"/>
      <point x="377" y="339"/>
      <point x="439" y="433"/>
      <point x="493" y="518" type="curve" smooth="yes"/>
      <point x="523" y="565"/>
      <point x="537" y="575"/>
      <point x="551" y="575" type="curve" smooth="yes"/>
      <point x="564" y="575"/>
      <point x="575" y="569"/>
      <point x="581" y="562" type="curve"/>
      <point x="641" y="666" type="line"/>
      <point x="620" y="689"/>
      <point x="584" y="700"/>
      <point x="551" y="700" type="curve" smooth="yes"/>
      <point x="497" y="700"/>
      <point x="448" y="684"/>
      <point x="403" y="605" type="curve" smooth="yes"/>
      <point x="366" y="540"/>
      <point x="328" y="470"/>
      <point x="284" y="402" type="curve"/>
      <point x="270" y="502"/>
      <point x="262" y="604"/>
      <point x="260" y="693" type="curve"/>
      <point x="110" y="693" type="line"/>
      <point x="120" y="590"/>
      <point x="148" y="402"/>
      <point x="180" y="261" type="curve"/>
    </contour>
  </outline>
</glyph>
<glyph name="zstroke" format="2">
  <advance width="372"/>
  <unicode hex="01B6"/>
  <outline>
    <contour>
      <point x="-29" y="0" type="line"/>
      <point x="287" y="0" type="line"/>
      <point x="314" y="113" type="line"/>
      <point x="146" y="113" type="line"/>
      <point x="170" y="149"/>
      <point x="198" y="190"/>
      <point x="227" y="231" type="curve"/>
      <point x="319" y="231" type="line"/>
      <point x="338" y="313" type="line"/>
      <point x="287" y="313" type="line"/>
      <point x="318" y="356"/>
      <point x="348" y="396"/>
      <point x="373" y="426" type="curve"/>
      <point x="399" y="532" type="line"/>
      <point x="100" y="532" type="line"/>
      <point x="73" y="419" type="line"/>
      <point x="222" y="419" type="line"/>
      <point x="195" y="385"/>
      <point x="169" y="349"/>
      <point x="143" y="313" type="curve"/>
      <point x="66" y="313" type="line"/>
      <point x="47" y="231" type="line"/>
      <point x="85" y="231" type="line"/>
      <point x="53" y="185"/>
      <point x="23" y="139"/>
      <point x="-6" y="94" type="curve"/>
    </contour>
  </outline>
</glyph>
<glyph name="Ezh" format="2">
  <advance width="460"/>
  <unicode hex="01B7"/>
  <anchor x="112" y="0" name="bottom"/>
  <anchor x="305" y="681" name="top"/>
  <outline>
    <contour>
      <point x="119" y="-14" type="curve"/>
      <point x="295" y="-14"/>
      <point x="404" y="109"/>
      <point x="404" y="244" type="curve" smooth="yes"/>
      <point x="404" y="313"/>
      <point x="377" y="374"/>
      <point x="305" y="405" type="curve"/>
      <point x="370" y="478"/>
      <point x="435" y="559"/>
      <point x="476" y="612" type="curve"/>
      <point x="496" y="693" type="line"/>
      <point x="147" y="693" type="line"/>
      <point x="118" y="574" type="line"/>
      <point x="306" y="574" type="line"/>
      <point x="266" y="523"/>
      <point x="201" y="441"/>
      <point x="155" y="390" type="curve"/>
      <point x="136" y="312" type="line"/>
      <point x="178" y="312" type="line" smooth="yes"/>
      <point x="235" y="312"/>
      <point x="258" y="282"/>
      <point x="258" y="232" type="curve" smooth="yes"/>
      <point x="258" y="171"/>
      <point x="211" y="106"/>
      <point x="132" y="106" type="curve"/>
      <point x="84" y="106"/>
      <point x="51" y="113"/>
      <point x="9" y="137" type="curve"/>
      <point x="-37" y="26" type="line"/>
      <point x="6" y="-1"/>
      <point x="52" y="-14"/>
    </contour>
  </outline>
</glyph>
<glyph name="ezhtail" format="2">
  <advance width="382"/>
  <unicode hex="01BA"/>
  <outline>
    <contour>
      <point x="-71" y="-192" type="curve"/>
      <point x="46" y="-168" type="line"/>
      <point x="44" y="-162"/>
      <point x="43" y="-155"/>
      <point x="43" y="-147" type="curve" smooth="yes"/>
      <point x="43" y="-110"/>
      <point x="49" y="-87"/>
      <point x="141" y="-50" type="curve" smooth="yes"/>
      <point x="238" y="-12"/>
      <point x="305" y="50"/>
      <point x="305" y="167" type="curve" smooth="yes"/>
      <point x="305" y="230"/>
      <point x="274" y="267"/>
      <point x="222" y="288" type="curve"/>
      <point x="269" y="343"/>
      <point x="325" y="400"/>
      <point x="363" y="441" type="curve"/>
      <point x="385" y="532" type="line"/>
      <point x="88" y="532" type="line"/>
      <point x="61" y="419" type="line"/>
      <point x="210" y="419" type="line"/>
      <point x="172" y="375"/>
      <point x="124" y="324"/>
      <point x="91" y="285" type="curve"/>
      <point x="74" y="208" type="line"/>
      <point x="147" y="208"/>
      <point x="170" y="187"/>
      <point x="170" y="152" type="curve" smooth="yes"/>
      <point x="170" y="92"/>
      <point x="141" y="57"/>
      <point x="59" y="27" type="curve" smooth="yes"/>
      <point x="-19" y="-2"/>
      <point x="-77" y="-43"/>
      <point x="-77" y="-146" type="curve" smooth="yes"/>
      <point x="-77" y="-162"/>
      <point x="-75" y="-178"/>
    </contour>
  </outline>
</glyph>
<glyph name="twostroke" format="2">
  <advance width="444"/>
  <unicode hex="01BB"/>
  <outline>
    <contour>
      <point x="-14" y="0" type="curve"/>
      <point x="338" y="0" type="line"/>
      <point x="365" y="114" type="line"/>
      <point x="158" y="114" type="line"/>
      <point x="184" y="172"/>
      <point x="222" y="224"/>
      <point x="285" y="293" type="curve"/>
      <point x="285" y="293" type="line"/>
      <point x="401" y="293" type="line"/>
      <point x="427" y="401" type="line"/>
      <point x="379" y="401" type="line"/>
      <point x="423" y="456"/>
      <point x="449" y="505"/>
      <point x="449" y="566" type="curve" smooth="yes"/>
      <point x="449" y="649"/>
      <point x="393" y="707"/>
      <point x="297" y="707" type="curve" smooth="yes"/>
      <point x="228" y="707"/>
      <point x="165" y="685"/>
      <point x="112" y="645" type="curve"/>
      <point x="155" y="552" type="line"/>
      <point x="188" y="576"/>
      <point x="218" y="589"/>
      <point x="253" y="589" type="curve" smooth="yes"/>
      <point x="283" y="589"/>
      <point x="307" y="574"/>
      <point x="307" y="532" type="curve" smooth="yes"/>
      <point x="307" y="487"/>
      <point x="282" y="450"/>
      <point x="236" y="401" type="curve"/>
      <point x="80" y="401" type="line"/>
      <point x="54" y="293" type="line"/>
      <point x="137" y="293" type="line"/>
      <point x="137" y="293" type="line"/>
      <point x="67" y="213"/>
      <point x="6" y="117"/>
    </contour>
  </outline>
</glyph>
<glyph name="wynn" format="2">
  <advance width="487"/>
  <unicode hex="01BF"/>
  <outline>
    <contour>
      <point x="-40" y="-185" type="line"/>
      <point x="98" y="-185" type="line"/>
      <point x="130" y="-53" type="line"/>
      <point x="305" y="20"/>
      <point x="457" y="153"/>
      <point x="457" y="380" type="curve" smooth="yes"/>
      <point x="457" y="480"/>
      <point x="413" y="542"/>
      <point x="287" y="542" type="curve" smooth="yes"/>
      <point x="246" y="542"/>
      <point x="172" y="528"/>
      <point x="127" y="507" type="curve"/>
    </contour>
    <contour>
      <point x="163" y="86" type="curve"/>
      <point x="242" y="417" type="line"/>
      <point x="251" y="422"/>
      <point x="265" y="426"/>
      <point x="278" y="426" type="curve" smooth="yes"/>
      <point x="307" y="426"/>
      <point x="317" y="406"/>
      <point x="317" y="367" type="curve" smooth="yes"/>
      <point x="317" y="237"/>
      <point x="247" y="135"/>
    </contour>
  </outline>
</glyph>
<glyph name="Wynn" format="2">
  <advance width="541"/>
  <unicode hex="01F7"/>
  <outline>
    <contour>
      <point x="-33" y="-185" type="line"/>
      <point x="109" y="-185" type="line"/>
      <point x="153" y="-2" type="line"/>
      <point x="397" y="91"/>
      <point x="557" y="299"/>
      <point x="557" y="505" type="curve" smooth="yes"/>
      <point x="557" y="634"/>
      <point x="491" y="703"/>
      <point x="378" y="703" type="curve" smooth="yes"/>
      <point x="309" y="703"/>
      <point x="236" y="686"/>
      <point x="171" y="662" type="curve"/>
    </contour>
    <contour>
      <point x="186" y="137" type="curve"/>
      <point x="292" y="575" type="line"/>
      <point x="308" y="579"/>
      <point x="321" y="581"/>
      <point x="334" y="581" type="curve"/>
      <point x="376" y="581"/>
      <point x="405" y="549"/>
      <point x="405" y="480" type="curve" smooth="yes"/>
      <point x="405" y="373"/>
      <point x="330" y="210"/>
    </contour>
  </outline>
</glyph>
<glyph name="Aringacute" format="2">
  <advance width="518"/>
  <unicode hex="01FA"/>
  <outline>
    <contour>
      <point x="-49" y="0" type="curve"/>
      <point x="93" y="0" type="line"/>
      <point x="108" y="42"/>
      <point x="127" y="91"/>
      <point x="150" y="146" type="curve"/>
      <point x="308" y="146" type="line"/>
      <point x="306" y="90"/>
      <point x="303" y="41"/>
      <point x="299" y="0" type="curve"/>
      <point x="443" y="0" type="line"/>
      <point x="455" y="265"/>
      <point x="443" y="497"/>
      <point x="432" y="678" type="curve"/>
      <point x="449" y="693"/>
      <point x="460" y="716"/>
      <point x="460" y="745" type="curve" smooth="yes"/>
      <point x="460" y="804"/>
      <point x="416" y="837"/>
      <point x="366" y="837" type="curve" smooth="yes"/>
      <point x="319" y="837"/>
      <point x="273" y="804"/>
      <point x="273" y="745" type="curve" smooth="yes"/>
      <point x="273" y="724"/>
      <point x="279" y="707"/>
      <point x="288" y="693" type="curve"/>
      <point x="185" y="510"/>
      <point x="63" y="272"/>
    </contour>
    <contour>
      <point x="199" y="261" type="line"/>
      <point x="233" y="338"/>
      <point x="272" y="425"/>
      <point x="316" y="519" type="curve"/>
      <point x="315" y="425"/>
      <point x="313" y="338"/>
      <point x="311" y="261" type="curve"/>
    </contour>
    <contour>
      <point x="366" y="711" type="curve" smooth="yes"/>
      <point x="350" y="711"/>
      <point x="333" y="722"/>
      <point x="333" y="745" type="curve" smooth="yes"/>
      <point x="333" y="769"/>
      <point x="350" y="780"/>
      <point x="366" y="780" type="curve" smooth="yes"/>
      <point x="383" y="780"/>
      <point x="400" y="769"/>
      <point x="400" y="745" type="curve" smooth="yes"/>
      <point x="400" y="722"/>
      <point x="383" y="711"/>
    </contour>
    <contour>
      <point x="309" y="847" type="line"/>
      <point x="496" y="911" type="line"/>
      <point x="460" y="992" type="line"/>
      <point x="286" y="905" type="line"/>
    </contour>
  </outline>
</glyph>
<glyph name="Zhook" format="2">
  <advance width="462"/>
  <unicode hex="0224"/>
  <outline>
    <contour>
      <point x="183" y="-187" type="curve" smooth="yes"/>
      <point x="278" y="-187"/>
      <point x="335" y="-122"/>
      <point x="365" y="0" type="curve" smooth="yes"/>
      <point x="394" y="119" type="line"/>
      <point x="168" y="119" type="line"/>
      <point x="256" y="258"/>
      <point x="378" y="433"/>
      <point x="495" y="572" type="curve"/>
      <point x="524" y="693" type="line"/>
      <point x="154" y="693" type="line"/>
      <point x="126" y="574" type="line"/>
      <point x="342" y="574" type="line"/>
      <point x="207" y="409"/>
      <point x="92" y="242"/>
      <point x="-6" y="87" type="curve"/>
      <point x="-27" y="0" type="line"/>
      <point x="240" y="0" type="line"/>
      <point x="238" y="-8" type="line"/>
      <point x="226" y="-55"/>
      <point x="210" y="-79"/>
      <point x="180" y="-79" type="curve" smooth="yes"/>
      <point x="168" y="-79"/>
      <point x="157" y="-77"/>
      <point x="145" y="-73" type="curve"/>
      <point x="112" y="-176" type="line"/>
      <point x="137" y="-185"/>
      <point x="167" y="-187"/>
    </contour>
  </outline>
</glyph>
<glyph name="lcurl" format="2">
  <advance width="381"/>
  <unicode hex="0234"/>
  <outline>
    <contour>
      <point x="119" y="-185" type="curve" smooth="yes"/>
      <point x="236" y="-185"/>
      <point x="314" y="-80"/>
      <point x="314" y="26" type="curve" smooth="yes"/>
      <point x="314" y="94"/>
      <point x="278" y="138"/>
      <point x="219" y="138" type="curve" smooth="yes"/>
      <point x="192" y="138"/>
      <point x="174" y="130"/>
      <point x="163" y="127" type="curve"/>
      <point x="319" y="776" type="line"/>
      <point x="176" y="754" type="line"/>
      <point x="-9" y="-11" type="line"/>
      <point x="-123" y="-130" type="line"/>
      <point x="-63" y="-189" type="line"/>
      <point x="5" y="-118" type="line"/>
      <point x="5" y="-118"/>
      <point x="5" y="-118"/>
      <point x="5" y="-118" type="curve"/>
      <point x="26" y="-164"/>
      <point x="77" y="-185"/>
    </contour>
    <contour>
      <point x="149" y="-92" type="curve" smooth="yes"/>
      <point x="129" y="-92"/>
      <point x="122" y="-77"/>
      <point x="122" y="-54" type="curve" smooth="yes"/>
      <point x="122" y="-33"/>
      <point x="130" y="-2"/>
      <point x="136" y="26" type="curve"/>
      <point x="146" y="36"/>
      <point x="162" y="43"/>
      <point x="175" y="43" type="curve" smooth="yes"/>
      <point x="194" y="43"/>
      <point x="202" y="30"/>
      <point x="202" y="6" type="curve" smooth="yes"/>
      <point x="202" y="-48"/>
      <point x="178" y="-92"/>
    </contour>
  </outline>
</glyph>
<glyph name="qpdigraph" format="2">
  <advance width="700"/>
  <unicode hex="0239"/>
  <outline>
    <contour>
      <point x="172" y="-185" type="line"/>
      <point x="310" y="-185" type="line"/>
      <point x="353" y="-4" type="line"/>
      <point x="368" y="-11"/>
      <point x="385" y="-14"/>
      <point x="398" y="-14" type="curve" smooth="yes"/>
      <point x="531" y="-14"/>
      <point x="669" y="165"/>
      <point x="669" y="380" type="curve" smooth="yes"/>
      <point x="669" y="480"/>
      <point x="625" y="542"/>
      <point x="499" y="542" type="curve" smooth="yes"/>
      <point x="475" y="542"/>
      <point x="439" y="538"/>
      <point x="405" y="531" type="curve"/>
      <point x="378" y="539"/>
      <point x="349" y="542"/>
      <point x="328" y="542" type="curve" smooth="yes"/>
      <point x="160" y="542"/>
      <point x="34" y="367"/>
      <point x="30" y="156" type="curve" smooth="yes"/>
      <point x="28" y="61"/>
      <point x="66" y="-12"/>
      <point x="161" y="-12" type="curve" smooth="yes"/>
      <point x="180" y="-12"/>
      <point x="201" y="-5"/>
      <point x="217" y="3" type="curve"/>
    </contour>
    <contour>
      <point x="206" y="105" type="curve" smooth="yes"/>
      <point x="175" y="105"/>
      <point x="170" y="127"/>
      <point x="170" y="167" type="curve" smooth="yes"/>
      <point x="170" y="296"/>
      <point x="235" y="429"/>
      <point x="293" y="429" type="curve" smooth="yes"/>
      <point x="302" y="429"/>
      <point x="309" y="428"/>
      <point x="318" y="423" type="curve"/>
      <point x="245" y="118" type="line"/>
      <point x="235" y="109"/>
      <point x="219" y="105"/>
    </contour>
    <contour>
      <point x="405" y="101" type="curve" smooth="yes"/>
      <point x="399" y="101"/>
      <point x="392" y="101"/>
      <point x="380" y="106" type="curve"/>
      <point x="454" y="417" type="line"/>
      <point x="463" y="422"/>
      <point x="477" y="426"/>
      <point x="490" y="426" type="curve" smooth="yes"/>
      <point x="519" y="426"/>
      <point x="529" y="406"/>
      <point x="529" y="367" type="curve" smooth="yes"/>
      <point x="529" y="232"/>
      <point x="461" y="101"/>
    </contour>
  </outline>
</glyph>
<glyph name="Tdiagonalstroke" format="2">
  <advance width="471"/>
  <unicode hex="023E"/>
  <outline>
    <contour>
      <point x="21" y="-40" type="line"/>
      <point x="117" y="80" type="line"/>
      <point x="98" y="0" type="line"/>
      <point x="240" y="0" type="line"/>
      <point x="320" y="332" type="line"/>
      <point x="628" y="716" type="line"/>
      <point x="581" y="752" type="line"/>
      <point x="534" y="693" type="line"/>
      <point x="125" y="693" type="line"/>
      <point x="97" y="574" type="line"/>
      <point x="236" y="574" type="line"/>
      <point x="150" y="215" type="line"/>
      <point x="-26" y="-4" type="line"/>
    </contour>
    <contour>
      <point x="352" y="467" type="line"/>
      <point x="378" y="574" type="line"/>
      <point x="438" y="574" type="line"/>
    </contour>
  </outline>
</glyph>
<glyph name="Glottalstop" format="2">
  <advance width="416"/>
  <unicode hex="0241"/>
  <outline>
    <contour>
      <point x="33" y="0" type="line"/>
      <point x="175" y="0" type="line"/>
      <point x="215" y="168" type="line" smooth="yes"/>
      <point x="234" y="248"/>
      <point x="286" y="293"/>
      <point x="335" y="340" type="curve" smooth="yes"/>
      <point x="393" y="396"/>
      <point x="448" y="457"/>
      <point x="448" y="560" type="curve" smooth="yes"/>
      <point x="448" y="652"/>
      <point x="380" y="707"/>
      <point x="286" y="707" type="curve" smooth="yes"/>
      <point x="228" y="707"/>
      <point x="169" y="694"/>
      <point x="106" y="664" type="curve"/>
      <point x="125" y="554" type="line"/>
      <point x="172" y="577"/>
      <point x="203" y="586"/>
      <point x="236" y="586" type="curve"/>
      <point x="275" y="586"/>
      <point x="296" y="562"/>
      <point x="296" y="526" type="curve" smooth="yes"/>
      <point x="296" y="475"/>
      <point x="266" y="442"/>
      <point x="195" y="373" type="curve" smooth="yes"/>
      <point x="132" y="313"/>
      <point x="97" y="269"/>
      <point x="76" y="180" type="curve" smooth="yes"/>
    </contour>
  </outline>
</glyph>
<glyph name="Ubar" format="2">
  <advance width="560"/>
  <unicode hex="0244"/>
  <outline>
    <contour>
      <point x="230" y="-14" type="curve" smooth="yes"/>
      <point x="371" y="-14"/>
      <point x="447" y="70"/>
      <point x="483" y="219" type="curve" smooth="yes"/>
      <point x="510" y="331" type="line"/>
      <point x="570" y="331" type="line"/>
      <point x="594" y="430" type="line"/>
      <point x="534" y="430" type="line"/>
      <point x="597" y="693" type="line"/>
      <point x="455" y="693" type="line"/>
      <point x="392" y="430" type="line"/>
      <point x="248" y="430" type="line"/>
      <point x="311" y="693" type="line"/>
      <point x="169" y="693" type="line"/>
      <point x="106" y="430" type="line"/>
      <point x="44" y="430" type="line"/>
      <point x="20" y="331" type="line"/>
      <point x="82" y="331" type="line"/>
      <point x="59" y="235" type="line" smooth="yes"/>
      <point x="52" y="207"/>
      <point x="49" y="181"/>
      <point x="49" y="158" type="curve" smooth="yes"/>
      <point x="49" y="47"/>
      <point x="119" y="-14"/>
    </contour>
    <contour>
      <point x="252" y="110" type="curve" smooth="yes"/>
      <point x="217" y="110"/>
      <point x="192" y="130"/>
      <point x="192" y="178" type="curve" smooth="yes"/>
      <point x="192" y="190"/>
      <point x="194" y="205"/>
      <point x="198" y="222" type="curve" smooth="yes"/>
      <point x="224" y="331" type="line"/>
      <point x="368" y="331" type="line"/>
      <point x="341" y="218" type="line" smooth="yes"/>
      <point x="323" y="142"/>
      <point x="299" y="110"/>
    </contour>
  </outline>
</glyph>
<glyph name="qhooktail" format="2">
  <advance width="489"/>
  <unicode hex="024B"/>
  <outline>
    <contour>
      <point x="324" y="-185" type="curve" smooth="yes"/>
      <point x="353" y="-185"/>
      <point x="382" y="-182"/>
      <point x="409" y="-173" type="curve"/>
      <point x="416" y="-64" type="line"/>
      <point x="401" y="-67"/>
      <point x="391" y="-68"/>
      <point x="380" y="-68" type="curve" smooth="yes"/>
      <point x="362" y="-68"/>
      <point x="352" y="-60"/>
      <point x="352" y="-37" type="curve" smooth="yes"/>
      <point x="352" y="-25"/>
      <point x="355" y="-8"/>
      <point x="360" y="13" type="curve" smooth="yes"/>
      <point x="479" y="513" type="line"/>
      <point x="442" y="528"/>
      <point x="371" y="542"/>
      <point x="329" y="542" type="curve" smooth="yes"/>
      <point x="161" y="542"/>
      <point x="31" y="365"/>
      <point x="31" y="149" type="curve" smooth="yes"/>
      <point x="31" y="57"/>
      <point x="69" y="-12"/>
      <point x="162" y="-12" type="curve" smooth="yes"/>
      <point x="182" y="-12"/>
      <point x="203" y="-4"/>
      <point x="221" y="5" type="curve"/>
      <point x="215" y="-20" type="line" smooth="yes"/>
      <point x="210" y="-41"/>
      <point x="208" y="-60"/>
      <point x="208" y="-77" type="curve" smooth="yes"/>
      <point x="208" y="-156"/>
      <point x="260" y="-185"/>
    </contour>
    <contour>
      <point x="207" y="105" type="curve" smooth="yes"/>
      <point x="176" y="105"/>
      <point x="171" y="127"/>
      <point x="171" y="167" type="curve" smooth="yes"/>
      <point x="171" y="296"/>
      <point x="236" y="429"/>
      <point x="294" y="429" type="curve" smooth="yes"/>
      <point x="303" y="429"/>
      <point x="310" y="428"/>
      <point x="319" y="423" type="curve"/>
      <point x="247" y="121" type="line"/>
      <point x="233" y="109"/>
      <point x="220" y="105"/>
    </contour>
  </outline>
</glyph>
<glyph name="rstroke" format="2">
  <advance width="346"/>
  <unicode hex="024D"/>
  <outline>
    <contour>
      <point x="4" y="0" type="line"/>
      <point x="142" y="0" type="line"/>
      <point x="187" y="189" type="line"/>
      <point x="281" y="189" type="line"/>
      <point x="303" y="279" type="line"/>
      <point x="209" y="279" type="line"/>
      <point x="242" y="417" type="line"/>
      <point x="259" y="422"/>
      <point x="274" y="425"/>
      <point x="289" y="425" type="curve" smooth="yes"/>
      <point x="315" y="425"/>
      <point x="339" y="423"/>
      <point x="356" y="416" type="curve"/>
      <point x="396" y="529" type="line"/>
      <point x="369" y="538"/>
      <point x="337" y="542"/>
      <point x="299" y="542" type="curve" smooth="yes"/>
      <point x="241" y="542"/>
      <point x="186" y="530"/>
      <point x="124" y="501" type="curve"/>
      <point x="71" y="279" type="line"/>
      <point x="19" y="279" type="line"/>
      <point x="-3" y="189" type="line"/>
      <point x="49" y="189" type="line"/>
    </contour>
  </outline>
</glyph>
<glyph name="Ystroke" format="2">
  <advance width="506"/>
  <unicode hex="024E"/>
  <outline>
    <contour>
      <point x="117" y="0" type="line"/>
      <point x="259" y="0" type="line"/>
      <point x="322" y="261" type="line"/>
      <point x="370" y="328"/>
      <point x="422" y="406"/>
      <point x="469" y="480" type="curve"/>
      <point x="548" y="480" type="line"/>
      <point x="570" y="569" type="line"/>
      <point x="524" y="569" type="line"/>
      <point x="553" y="616"/>
      <point x="578" y="659"/>
      <point x="596" y="693" type="curve"/>
      <point x="445" y="693" type="line"/>
      <point x="428" y="657"/>
      <point x="408" y="614"/>
      <point x="385" y="569" type="curve"/>
      <point x="263" y="569" type="line"/>
      <point x="261" y="614"/>
      <point x="261" y="657"/>
      <point x="260" y="693" type="curve"/>
      <point x="110" y="693" type="line"/>
      <point x="113" y="659"/>
      <point x="118" y="616"/>
      <point x="125" y="569" type="curve"/>
      <point x="76" y="569" type="line"/>
      <point x="54" y="480" type="line"/>
      <point x="139" y="480" type="line"/>
      <point x="150" y="406"/>
      <point x="165" y="328"/>
      <point x="180" y="261" type="curve"/>
    </contour>
    <contour>
      <point x="277" y="377" type="curve"/>
      <point x="272" y="409"/>
      <point x="269" y="444"/>
      <point x="267" y="480" type="curve"/>
      <point x="338" y="480" type="line"/>
      <point x="318" y="444"/>
      <point x="298" y="409"/>
    </contour>
  </outline>
</glyph>
<glyph name="ystroke" format="2">
  <advance width="441"/>
  <unicode hex="024F"/>
  <outline>
    <contour>
      <point x="-9" y="-188" type="curve" smooth="yes"/>
      <point x="93" y="-188"/>
      <point x="144" y="-146"/>
      <point x="229" y="0" type="curve" smooth="yes"/>
      <point x="280" y="87"/>
      <point x="335" y="193"/>
      <point x="386" y="305" type="curve"/>
      <point x="442" y="305" type="line"/>
      <point x="461" y="385" type="line"/>
      <point x="421" y="385" type="line"/>
      <point x="442" y="434"/>
      <point x="462" y="483"/>
      <point x="481" y="532" type="curve"/>
      <point x="340" y="532" type="line"/>
      <point x="326" y="489"/>
      <point x="309" y="439"/>
      <point x="290" y="385" type="curve"/>
      <point x="205" y="385" type="line"/>
      <point x="208" y="440"/>
      <point x="211" y="490"/>
      <point x="214" y="532" type="curve"/>
      <point x="79" y="532" type="line"/>
      <point x="77" y="484"/>
      <point x="76" y="435"/>
      <point x="77" y="385" type="curve"/>
      <point x="35" y="385" type="line"/>
      <point x="16" y="305" type="line"/>
      <point x="78" y="305" type="line"/>
      <point x="80" y="214"/>
      <point x="85" y="115"/>
      <point x="92" y="5" type="curve"/>
      <point x="55" y="-58"/>
      <point x="23" y="-71"/>
      <point x="-6" y="-71" type="curve" smooth="yes"/>
      <point x="-22" y="-71"/>
      <point x="-43" y="-67"/>
      <point x="-57" y="-60" type="curve"/>
      <point x="-94" y="-169" type="line"/>
      <point x="-70" y="-181"/>
      <point x="-39" y="-188"/>
    </contour>
    <contour>
      <point x="198" y="154" type="curve"/>
      <point x="199" y="206"/>
      <point x="200" y="257"/>
      <point x="202" y="305" type="curve"/>
      <point x="260" y="305" type="line"/>
      <point x="242" y="256"/>
      <point x="221" y="205"/>
    </contour>
  </outline>
</glyph>
<glyph name="ezh" format="2">
  <advance width="376"/>
  <unicode hex="0292"/>
  <anchor x="60" y="0" name="bottom"/>
  <anchor x="237" y="532" name="top"/>
  <outline>
    <contour>
      <point x="56" y="-185" type="curve" smooth="yes"/>
      <point x="190" y="-185"/>
      <point x="297" y="-63"/>
      <point x="297" y="83" type="curve" smooth="yes"/>
      <point x="297" y="153"/>
      <point x="269" y="210"/>
      <point x="214" y="237" type="curve"/>
      <point x="266" y="304"/>
      <point x="321" y="378"/>
      <point x="360" y="434" type="curve"/>
      <point x="381" y="532" type="line"/>
      <point x="86" y="532" type="line"/>
      <point x="62" y="419" type="line"/>
      <point x="215" y="419" type="line"/>
      <point x="165" y="347"/>
      <point x="116" y="285"/>
      <point x="64" y="217" type="curve"/>
      <point x="49" y="144" type="line"/>
      <point x="67" y="144" type="line" smooth="yes"/>
      <point x="128" y="144"/>
      <point x="157" y="117"/>
      <point x="157" y="63" type="curve" smooth="yes"/>
      <point x="157" y="-9"/>
      <point x="112" y="-66"/>
      <point x="49" y="-66" type="curve" smooth="yes"/>
      <point x="19" y="-66"/>
      <point x="-10" y="-59"/>
      <point x="-31" y="-45" type="curve"/>
      <point x="-80" y="-156" type="line"/>
      <point x="-45" y="-175"/>
      <point x="4" y="-185"/>
    </contour>
  </outline>
</glyph>
<glyph name="dotaccent" format="2">
  <advance width="246"/>
  <unicode hex="02D9"/>
  <outline>
    <contour>
      <point x="277" y="603" type="curve" smooth="yes"/>
      <point x="323" y="603"/>
      <point x="365" y="644"/>
      <point x="365" y="692" type="curve" smooth="yes"/>
      <point x="365" y="731"/>
      <point x="335" y="757"/>
      <point x="295" y="757" type="curve" smooth="yes"/>
      <point x="250" y="757"/>
      <point x="208" y="718"/>
      <point x="208" y="666" type="curve" smooth="yes"/>
      <point x="208" y="626"/>
      <point x="237" y="603"/>
    </contour>
  </outline>
</glyph>
<glyph name="strokeshortcomb" format="2">
  <unicode hex="0335"/>
  <anchor x="147" y="279" name="_center"/>
  <outline>
    <contour>
      <point x="6" y="234" type="line"/>
      <point x="267" y="234" type="line"/>
      <point x="288" y="323" type="line"/>
      <point x="27" y="323" type="line"/>
    </contour>
  </outline>
</glyph>
<glyph name="Delta" format="2">
  <advance width="518"/>
  <unicode hex="0394"/>
  <outline>
    <contour>
      <point x="-49" y="0" type="curve"/>
      <point x="443" y="0" type="line"/>
      <point x="455" y="272"/>
      <point x="442" y="510"/>
      <point x="431" y="693" type="curve"/>
      <point x="288" y="693" type="line"/>
      <point x="185" y="510"/>
      <point x="63" y="272"/>
    </contour>
    <contour>
      <point x="138" y="115" type="line"/>
      <point x="182" y="224"/>
      <point x="242" y="360"/>
      <point x="316" y="519" type="curve"/>
      <point x="314" y="360"/>
      <point x="311" y="223"/>
      <point x="306" y="115" type="curve"/>
    </contour>
  </outline>
</glyph>
<glyph name="gamma" format="2">
  <advance width="424"/>
  <unicode hex="03B3"/>
  <outline>
    <contour>
      <point x="43" y="-185" type="curve"/>
      <point x="170" y="-185" type="line"/>
      <point x="178" y="-127"/>
      <point x="184" y="-67"/>
      <point x="190" y="-6" type="curve"/>
      <point x="352" y="241"/>
      <point x="430" y="416"/>
      <point x="473" y="532" type="curve"/>
      <point x="332" y="532" type="line"/>
      <point x="298" y="434"/>
      <point x="252" y="322"/>
      <point x="205" y="217" type="curve"/>
      <point x="211" y="345"/>
      <point x="214" y="458"/>
      <point x="216" y="532" type="curve"/>
      <point x="73" y="532" type="line"/>
      <point x="77" y="417"/>
      <point x="79" y="298"/>
      <point x="72" y="152" type="curve" smooth="yes"/>
      <point x="67" y="54"/>
      <point x="58" y="-57"/>
    </contour>
  </outline>
</glyph>
<glyph name="eta" format="2">
  <advance width="496"/>
  <unicode hex="03B7"/>
  <anchor x="72" y="0" name="bottom"/>
  <anchor x="307" y="532" name="top"/>
  <outline>
    <contour>
      <point x="189" y="-185" type="line"/>
      <point x="327" y="-185" type="line"/>
      <point x="446" y="313" type="line" smooth="yes"/>
      <point x="454" y="346"/>
      <point x="458" y="376"/>
      <point x="458" y="402" type="curve" smooth="yes"/>
      <point x="458" y="496"/>
      <point x="405" y="542"/>
      <point x="301" y="542" type="curve" smooth="yes"/>
      <point x="243" y="542"/>
      <point x="187" y="531"/>
      <point x="127" y="513" type="curve"/>
      <point x="4" y="0" type="line"/>
      <point x="142" y="0" type="line"/>
      <point x="243" y="421" type="line"/>
      <point x="254" y="425"/>
      <point x="265" y="427"/>
      <point x="274" y="427" type="curve" smooth="yes"/>
      <point x="302" y="427"/>
      <point x="316" y="411"/>
      <point x="316" y="373" type="curve" smooth="yes"/>
      <point x="316" y="356"/>
      <point x="313" y="334"/>
      <point x="307" y="307" type="curve" smooth="yes"/>
    </contour>
  </outline>
</glyph>
<glyph name="iota" format="2">
  <advance width="276"/>
  <unicode hex="03B9"/>
  <anchor x="190" y="532" name="top"/>
  <outline>
    <contour>
      <point x="181" y="-14" type="curve"/>
      <point x="208" y="98" type="line"/>
      <point x="181" y="100"/>
      <point x="168" y="110"/>
      <point x="168" y="135" type="curve" smooth="yes"/>
      <point x="168" y="142"/>
      <point x="169" y="150"/>
      <point x="171" y="160" type="curve" smooth="yes"/>
      <point x="261" y="532" type="line"/>
      <point x="123" y="532" type="line"/>
      <point x="32" y="158" type="line" smooth="yes"/>
      <point x="27" y="139"/>
      <point x="25" y="121"/>
      <point x="25" y="105" type="curve" smooth="yes"/>
      <point x="25" y="27"/>
      <point x="81" y="-11"/>
    </contour>
  </outline>
</glyph>
<glyph name="lambda" format="2">
  <advance width="432"/>
  <unicode hex="03BB"/>
  <outline>
    <contour>
      <point x="-54" y="0" type="curve"/>
      <point x="88" y="0" type="line"/>
      <point x="125" y="87"/>
      <point x="183" y="217"/>
      <point x="241" y="332" type="curve"/>
      <point x="238" y="217"/>
      <point x="227" y="87"/>
      <point x="222" y="0" type="curve"/>
      <point x="361" y="0" type="line"/>
      <point x="367" y="142"/>
      <point x="376" y="373"/>
      <point x="359" y="557" type="curve" smooth="yes"/>
      <point x="347" y="703"/>
      <point x="321" y="776"/>
      <point x="221" y="776" type="curve" smooth="yes"/>
      <point x="184" y="776"/>
      <point x="156" y="771"/>
      <point x="135" y="764" type="curve"/>
      <point x="124" y="649" type="line"/>
      <point x="139" y="653"/>
      <point x="151" y="655"/>
      <point x="161" y="655" type="curve" smooth="yes"/>
      <point x="207" y="655"/>
      <point x="224" y="628"/>
      <point x="232" y="552" type="curve"/>
      <point x="137" y="382"/>
      <point x="40" y="205"/>
    </contour>
  </outline>
</glyph>
<glyph name="xi" format="2">
  <advance width="443"/>
  <unicode hex="03BE"/>
  <outline>
    <contour>
      <point x="274" y="-191" type="line"/>
      <point x="322" y="-132"/>
      <point x="362" y="-76"/>
      <point x="362" y="-6" type="curve" smooth="yes"/>
      <point x="362" y="45"/>
      <point x="329" y="71"/>
      <point x="259" y="109" type="curve" smooth="yes"/>
      <point x="186" y="149"/>
      <point x="171" y="160"/>
      <point x="171" y="213" type="curve" smooth="yes"/>
      <point x="171" y="295"/>
      <point x="233" y="351"/>
      <point x="323" y="351" type="curve" smooth="yes"/>
      <point x="377" y="351" type="line"/>
      <point x="406" y="469" type="line"/>
      <point x="343" y="469" type="line" smooth="yes"/>
      <point x="298" y="469"/>
      <point x="272" y="497"/>
      <point x="272" y="545" type="curve" smooth="yes"/>
      <point x="272" y="608"/>
      <point x="316" y="657"/>
      <point x="373" y="657" type="curve" smooth="yes"/>
      <point x="402" y="657"/>
      <point x="427" y="652"/>
      <point x="454" y="640" type="curve"/>
      <point x="502" y="753" type="line"/>
      <point x="472" y="768"/>
      <point x="428" y="776"/>
      <point x="385" y="776" type="curve" smooth="yes"/>
      <point x="245" y="776"/>
      <point x="136" y="667"/>
      <point x="136" y="529" type="curve" smooth="yes"/>
      <point x="136" y="483"/>
      <point x="150" y="442"/>
      <point x="175" y="414" type="curve"/>
      <point x="85" y="362"/>
      <point x="32" y="277"/>
      <point x="32" y="184" type="curve" smooth="yes"/>
      <point x="32" y="99"/>
      <point x="55" y="62"/>
      <point x="127" y="25" type="curve" smooth="yes"/>
      <point x="193" y="-9"/>
      <point x="215" y="-26"/>
      <point x="215" y="-52" type="curve" smooth="yes"/>
      <point x="215" y="-82"/>
      <point x="193" y="-112"/>
      <point x="162" y="-150" type="curve"/>
    </contour>
  </outline>
</glyph>
<glyph name="rho" format="2">
  <advance width="486"/>
  <unicode hex="03C1"/>
  <anchor x="312" y="532" name="top"/>
  <outline>
    <contour>
      <point x="-40" y="-185" type="line"/>
      <point x="98" y="-185" type="line"/>
      <point x="141" y="-4" type="line"/>
      <point x="156" y="-11"/>
      <point x="173" y="-14"/>
      <point x="186" y="-14" type="curve" smooth="yes"/>
      <point x="319" y="-14"/>
      <point x="457" y="165"/>
      <point x="457" y="380" type="curve" smooth="yes"/>
      <point x="457" y="474"/>
      <point x="406" y="542"/>
      <point x="293" y="542" type="curve" smooth="yes"/>
      <point x="198" y="542"/>
      <point x="120" y="483"/>
      <point x="88" y="351" type="curve" smooth="yes"/>
    </contour>
    <contour>
      <point x="193" y="101" type="curve" smooth="yes"/>
      <point x="187" y="101"/>
      <point x="180" y="101"/>
      <point x="168" y="106" type="curve"/>
      <point x="224" y="339" type="line" smooth="yes"/>
      <point x="235" y="383"/>
      <point x="246" y="426"/>
      <point x="278" y="426" type="curve" smooth="yes"/>
      <point x="307" y="426"/>
      <point x="317" y="406"/>
      <point x="317" y="366" type="curve" smooth="yes"/>
      <point x="317" y="232"/>
      <point x="249" y="101"/>
    </contour>
  </outline>
</glyph>
<glyph name="sigma" format="2">
  <advance width="477"/>
  <unicode hex="03C3"/>
  <outline>
    <contour>
      <point x="191" y="-14" type="curve" smooth="yes"/>
      <point x="328" y="-14"/>
      <point x="441" y="142"/>
      <point x="441" y="327" type="curve" smooth="yes"/>
      <point x="441" y="357"/>
      <point x="437" y="386"/>
      <point x="429" y="413" type="curve"/>
      <point x="503" y="413" type="line"/>
      <point x="532" y="532" type="line"/>
      <point x="318" y="532" type="line" smooth="yes"/>
      <point x="147" y="532"/>
      <point x="34" y="353"/>
      <point x="34" y="172" type="curve" smooth="yes"/>
      <point x="34" y="57"/>
      <point x="92" y="-14"/>
    </contour>
    <contour>
      <point x="210" y="105" type="curve" smooth="yes"/>
      <point x="186" y="105"/>
      <point x="174" y="128"/>
      <point x="174" y="170" type="curve" smooth="yes"/>
      <point x="174" y="269"/>
      <point x="219" y="413"/>
      <point x="288" y="413" type="curve" smooth="yes"/>
      <point x="302" y="413" type="line"/>
      <point x="305" y="401"/>
      <point x="306" y="387"/>
      <point x="306" y="370" type="curve" smooth="yes"/>
      <point x="306" y="280"/>
      <point x="272" y="105"/>
    </contour>
  </outline>
</glyph>
<glyph name="chi" format="2">
  <advance width="407"/>
  <unicode hex="03C7"/>
  <outline>
    <contour>
      <point x="-103" y="-185" type="line"/>
      <point x="33" y="-185" type="line"/>
      <point x="152" y="55" type="line"/>
      <point x="156" y="-50"/>
      <point x="155" y="-112"/>
      <point x="151" y="-185" type="curve"/>
      <point x="294" y="-185" type="line"/>
      <point x="290" y="-70"/>
      <point x="287" y="24"/>
      <point x="269" y="174" type="curve"/>
      <point x="334" y="293"/>
      <point x="399" y="413"/>
      <point x="464" y="532" type="curve"/>
      <point x="327" y="532" type="line"/>
      <point x="289" y="453"/>
      <point x="252" y="374"/>
      <point x="214" y="295" type="curve"/>
      <point x="214" y="532" type="line"/>
      <point x="71" y="532" type="line"/>
      <point x="94" y="174" type="line"/>
    </contour>
  </outline>
</glyph>
<glyph name="omega" format="2">
  <advance width="659"/>
  <unicode hex="03C9"/>
  <anchor x="282" y="0" name="bottom"/>
  <anchor x="379" y="532" name="top"/>
  <outline>
    <contour>
      <point x="138" y="-10" type="curve" smooth="yes"/>
      <point x="196" y="-10"/>
      <point x="243" y="15"/>
      <point x="281" y="66" type="curve"/>
      <point x="291" y="18"/>
      <point x="335" y="-10"/>
      <point x="398" y="-10" type="curve" smooth="yes"/>
      <point x="524" y="-10"/>
      <point x="619" y="157"/>
      <point x="619" y="378" type="curve" smooth="yes"/>
      <point x="619" y="441"/>
      <point x="611" y="499"/>
      <point x="595" y="546" type="curve"/>
      <point x="467" y="508" type="line"/>
      <point x="476" y="475"/>
      <point x="480" y="436"/>
      <point x="480" y="390" type="curve" smooth="yes"/>
      <point x="480" y="246"/>
      <point x="442" y="111"/>
      <point x="401" y="111" type="curve" smooth="yes"/>
      <point x="383" y="111"/>
      <point x="375" y="122"/>
      <point x="375" y="146" type="curve" smooth="yes"/>
      <point x="375" y="163"/>
      <point x="379" y="185"/>
      <point x="385" y="209" type="curve" smooth="yes"/>
      <point x="437" y="426" type="line"/>
      <point x="297" y="426" type="line"/>
      <point x="245" y="209" type="line" smooth="yes"/>
      <point x="228" y="137"/>
      <point x="212" y="111"/>
      <point x="185" y="111" type="curve" smooth="yes"/>
      <point x="172" y="111"/>
      <point x="166" y="123"/>
      <point x="166" y="147" type="curve" smooth="yes"/>
      <point x="166" y="251"/>
      <point x="230" y="414"/>
      <point x="307" y="508" type="curve"/>
      <point x="197" y="546" type="line"/>
      <point x="101" y="444"/>
      <point x="29" y="269"/>
      <point x="29" y="138" type="curve" smooth="yes"/>
      <point x="29" y="44"/>
      <point x="69" y="-10"/>
    </contour>
  </outline>
</glyph>
<glyph name="E-cy" format="2">
  <advance width="503"/>
  <unicode hex="0404"/>
  <outline>
    <contour>
      <point x="272" y="-14" type="curve" smooth="yes"/>
      <point x="332" y="-14"/>
      <point x="387" y="-2"/>
      <point x="427" y="20" type="curve"/>
      <point x="421" y="139" type="line"/>
      <point x="389" y="118"/>
      <point x="350" y="110"/>
      <point x="316" y="110" type="curve" smooth="yes"/>
      <point x="257" y="110"/>
      <point x="209" y="139"/>
      <point x="209" y="220" type="curve" smooth="yes"/>
      <point x="209" y="249"/>
      <point x="210" y="275"/>
      <point x="212" y="300" type="curve"/>
      <point x="400" y="300" type="line"/>
      <point x="428" y="415" type="line"/>
      <point x="233" y="415" type="line"/>
      <point x="268" y="535"/>
      <point x="337" y="585"/>
      <point x="403" y="585" type="curve" smooth="yes"/>
      <point x="436" y="585"/>
      <point x="467" y="580"/>
      <point x="493" y="565" type="curve"/>
      <point x="540" y="681" type="line"/>
      <point x="510" y="698"/>
      <point x="460" y="707"/>
      <point x="406" y="707" type="curve"/>
      <point x="200" y="707"/>
      <point x="63" y="496"/>
      <point x="63" y="231" type="curve" smooth="yes"/>
      <point x="63" y="75"/>
      <point x="127" y="-14"/>
    </contour>
  </outline>
</glyph>
<glyph name="Lje-cy" format="2">
  <advance width="841"/>
  <unicode hex="0409"/>
  <outline>
    <contour>
      <point x="-21" y="-13" type="line"/>
      <point x="91" y="-5"/>
      <point x="162" y="44"/>
      <point x="216" y="133" type="curve" smooth="yes"/>
      <point x="275" y="231"/>
      <point x="312" y="379"/>
      <point x="359" y="574" type="curve"/>
      <point x="359" y="574" type="line"/>
      <point x="470" y="574" type="line"/>
      <point x="335" y="11" type="line"/>
      <point x="388" y="-4"/>
      <point x="458" y="-10"/>
      <point x="513" y="-10" type="curve"/>
      <point x="682" y="-10"/>
      <point x="793" y="103"/>
      <point x="793" y="272" type="curve" smooth="yes"/>
      <point x="793" y="386"/>
      <point x="726" y="450"/>
      <point x="609" y="450" type="curve" smooth="yes"/>
      <point x="600" y="450"/>
      <point x="591" y="450"/>
      <point x="582" y="450" type="curve"/>
      <point x="641" y="693" type="line"/>
      <point x="253" y="693" type="line"/>
      <point x="253" y="693" type="line"/>
      <point x="197" y="447"/>
      <point x="162" y="307"/>
      <point x="120" y="225" type="curve" smooth="yes"/>
      <point x="83" y="155"/>
      <point x="41" y="128"/>
      <point x="-24" y="114" type="curve"/>
    </contour>
    <contour>
      <point x="530" y="112" type="curve"/>
      <point x="521" y="112"/>
      <point x="510" y="113"/>
      <point x="502" y="115" type="curve"/>
      <point x="554" y="331" type="line"/>
      <point x="565" y="331"/>
      <point x="575" y="331"/>
      <point x="585" y="331" type="curve" smooth="yes"/>
      <point x="616" y="331"/>
      <point x="641" y="318"/>
      <point x="641" y="271" type="curve" smooth="yes"/>
      <point x="641" y="176"/>
      <point x="606" y="112"/>
    </contour>
  </outline>
</glyph>
<glyph name="De-cy" format="2">
  <advance width="647"/>
  <unicode hex="0414"/>
  <outline>
    <contour>
      <point x="-87" y="-185" type="line"/>
      <point x="48" y="-185" type="line"/>
      <point x="92" y="0" type="line"/>
      <point x="427" y="0" type="line"/>
      <point x="383" y="-185" type="line"/>
      <point x="518" y="-185" type="line"/>
      <point x="591" y="119" type="line"/>
      <point x="497" y="119" type="line"/>
      <point x="634" y="693" type="line"/>
      <point x="247" y="693" type="line"/>
      <point x="247" y="693" type="line"/>
      <point x="182" y="400"/>
      <point x="141" y="254"/>
      <point x="60" y="119" type="curve"/>
      <point x="-14" y="119" type="line"/>
    </contour>
    <contour>
      <point x="203" y="119" type="line"/>
      <point x="267" y="227"/>
      <point x="315" y="406"/>
      <point x="353" y="574" type="curve"/>
      <point x="353" y="574" type="line"/>
      <point x="464" y="574" type="line"/>
      <point x="355" y="119" type="line"/>
    </contour>
  </outline>
</glyph>
<glyph name="Ze-cy" format="2">
  <advance width="460"/>
  <unicode hex="0417"/>
  <anchor x="102" y="0" name="bottom"/>
  <anchor x="309" y="681" name="top"/>
  <outline>
    <contour>
      <point x="133" y="-15" type="curve" smooth="yes"/>
      <point x="301" y="-15"/>
      <point x="409" y="105"/>
      <point x="409" y="235" type="curve" smooth="yes"/>
      <point x="409" y="292"/>
      <point x="385" y="340"/>
      <point x="338" y="368" type="curve"/>
      <point x="416" y="405"/>
      <point x="462" y="477"/>
      <point x="462" y="562" type="curve" smooth="yes"/>
      <point x="462" y="651"/>
      <point x="401" y="708"/>
      <point x="304" y="708" type="curve" smooth="yes"/>
      <point x="237" y="708"/>
      <point x="179" y="698"/>
      <point x="125" y="667" type="curve"/>
      <point x="138" y="556" type="line"/>
      <point x="168" y="576"/>
      <point x="209" y="588"/>
      <point x="243" y="588" type="curve" smooth="yes"/>
      <point x="284" y="588"/>
      <point x="317" y="571"/>
      <point x="317" y="530" type="curve" smooth="yes"/>
      <point x="317" y="463"/>
      <point x="273" y="420"/>
      <point x="184" y="420" type="curve" smooth="yes"/>
      <point x="133" y="420" type="line"/>
      <point x="105" y="306" type="line"/>
      <point x="160" y="306" type="line" smooth="yes"/>
      <point x="227" y="306"/>
      <point x="264" y="275"/>
      <point x="264" y="220" type="curve" smooth="yes"/>
      <point x="264" y="163"/>
      <point x="213" y="105"/>
      <point x="134" y="105" type="curve" smooth="yes"/>
      <point x="94" y="105"/>
      <point x="55" y="115"/>
      <point x="22" y="134" type="curve"/>
      <point x="-37" y="27" type="line"/>
      <point x="7" y="-2"/>
      <point x="69" y="-15"/>
    </contour>
  </outline>
</glyph>
<glyph name="Ii-cy" format="2">
  <advance width="594"/>
  <unicode hex="0418"/>
  <anchor x="446" y="0" name="bottomright"/>
  <anchor x="379" y="681" name="top"/>
  <outline>
    <contour>
      <point x="12" y="0" type="line"/>
      <point x="126" y="0" type="line"/>
      <point x="189" y="102"/>
      <point x="286" y="250"/>
      <point x="425" y="430" type="curve"/>
      <point x="322" y="0" type="line"/>
      <point x="455" y="0" type="line"/>
      <point x="621" y="693" type="line"/>
      <point x="506" y="693" type="line"/>
      <point x="416" y="585"/>
      <point x="319" y="459"/>
      <point x="221" y="320" type="curve"/>
      <point x="311" y="693" type="line"/>
      <point x="178" y="693" type="line"/>
    </contour>
  </outline>
</glyph>
<glyph name="El-cy" format="2">
  <advance width="614"/>
  <unicode hex="041B"/>
  <outline>
    <contour>
      <point x="-21" y="-13" type="line"/>
      <point x="91" y="-5"/>
      <point x="162" y="44"/>
      <point x="216" y="133" type="curve" smooth="yes"/>
      <point x="274" y="229"/>
      <point x="315" y="371"/>
      <point x="356" y="560" type="curve" smooth="yes"/>
      <point x="359" y="574" type="line"/>
      <point x="470" y="574" type="line"/>
      <point x="332" y="0" type="line"/>
      <point x="474" y="0" type="line"/>
      <point x="641" y="693" type="line"/>
      <point x="253" y="693" type="line"/>
      <point x="250" y="679" type="line" smooth="yes"/>
      <point x="199" y="441"/>
      <point x="161" y="305"/>
      <point x="120" y="225" type="curve" smooth="yes"/>
      <point x="83" y="155"/>
      <point x="41" y="128"/>
      <point x="-24" y="114" type="curve"/>
    </contour>
  </outline>
</glyph>
<glyph name="U-cy" format="2">
  <advance width="485"/>
  <unicode hex="0423"/>
  <anchor x="330" y="681" name="top"/>
  <outline>
    <contour>
      <point x="46" y="-11" type="curve"/>
      <point x="110" y="-11"/>
      <point x="183" y="1"/>
      <point x="291" y="162" type="curve" smooth="yes"/>
      <point x="395" y="317"/>
      <point x="511" y="539"/>
      <point x="579" y="693" type="curve"/>
      <point x="433" y="693" type="line"/>
      <point x="387" y="579"/>
      <point x="349" y="491"/>
      <point x="275" y="353" type="curve"/>
      <point x="265" y="473"/>
      <point x="260" y="587"/>
      <point x="262" y="693" type="curve"/>
      <point x="114" y="693" type="line"/>
      <point x="122" y="563"/>
      <point x="139" y="382"/>
      <point x="173" y="199" type="curve"/>
      <point x="131" y="131"/>
      <point x="103" y="112"/>
      <point x="68" y="112" type="curve"/>
      <point x="45" y="112"/>
      <point x="28" y="116"/>
      <point x="7" y="124" type="curve"/>
      <point x="-36" y="8" type="line"/>
      <point x="-11" y="-3"/>
      <point x="21" y="-11"/>
    </contour>
  </outline>
</glyph>
<glyph name="Ereversed-cy" format="2">
  <advance width="555"/>
  <unicode hex="042D"/>
  <anchor x="315" y="681" name="top"/>
  <outline>
    <contour>
      <point x="178" y="-14" type="curve" smooth="yes"/>
      <point x="338" y="-14"/>
      <point x="519" y="131"/>
      <point x="534" y="449" type="curve" smooth="yes"/>
      <point x="543" y="636"/>
      <point x="430" y="709"/>
      <point x="319" y="709" type="curve" smooth="yes"/>
      <point x="268" y="709"/>
      <point x="202" y="692"/>
      <point x="141" y="666" type="curve"/>
      <point x="145" y="547" type="line"/>
      <point x="184" y="567"/>
      <point x="237" y="583"/>
      <point x="281" y="583" type="curve" smooth="yes"/>
      <point x="330" y="583"/>
      <point x="398" y="544"/>
      <point x="392" y="435" type="curve" smooth="yes"/>
      <point x="392" y="428"/>
      <point x="392" y="421"/>
      <point x="392" y="414" type="curve"/>
      <point x="187" y="414" type="line"/>
      <point x="149" y="291" type="line"/>
      <point x="366" y="291" type="line"/>
      <point x="332" y="185"/>
      <point x="272" y="110"/>
      <point x="190" y="110" type="curve" smooth="yes"/>
      <point x="153" y="110"/>
      <point x="119" y="121"/>
      <point x="69" y="149" type="curve"/>
      <point x="2" y="35" type="line"/>
      <point x="60" y="4"/>
      <point x="118" y="-14"/>
    </contour>
  </outline>
</glyph>
<glyph name="Yu-cy" format="2">
  <advance width="853"/>
  <unicode hex="042E"/>
  <outline>
    <contour>
      <point x="508" y="-13" type="curve" smooth="yes"/>
      <point x="711" y="-13"/>
      <point x="831" y="243"/>
      <point x="831" y="468" type="curve" smooth="yes"/>
      <point x="831" y="616"/>
      <point x="771" y="707"/>
      <point x="631" y="707" type="curve" smooth="yes"/>
      <point x="485" y="707"/>
      <point x="382" y="577"/>
      <point x="335" y="420" type="curve"/>
      <point x="255" y="420" type="line"/>
      <point x="320" y="693" type="line"/>
      <point x="178" y="693" type="line"/>
      <point x="12" y="0" type="line"/>
      <point x="154" y="0" type="line"/>
      <point x="226" y="300" type="line"/>
      <point x="310" y="300" type="line"/>
      <point x="307" y="275"/>
      <point x="306" y="250"/>
      <point x="306" y="225" type="curve" smooth="yes"/>
      <point x="306" y="78"/>
      <point x="367" y="-13"/>
    </contour>
    <contour>
      <point x="520" y="110" type="curve" smooth="yes"/>
      <point x="467" y="110"/>
      <point x="452" y="152"/>
      <point x="452" y="222" type="curve" smooth="yes"/>
      <point x="452" y="321"/>
      <point x="503" y="585"/>
      <point x="615" y="585" type="curve" smooth="yes"/>
      <point x="664" y="585"/>
      <point x="684" y="542"/>
      <point x="684" y="472" type="curve" smooth="yes"/>
      <point x="684" y="370"/>
      <point x="629" y="110"/>
    </contour>
  </outline>
</glyph>
<glyph name="be-cy" format="2">
  <advance width="490"/>
  <unicode hex="0431"/>
  <outline>
    <contour>
      <point x="197" y="-11" type="curve" smooth="yes"/>
      <point x="355" y="-11"/>
      <point x="452" y="177"/>
      <point x="452" y="348" type="curve" smooth="yes"/>
      <point x="452" y="456"/>
      <point x="400" y="514"/>
      <point x="323" y="514" type="curve" smooth="yes"/>
      <point x="304" y="514"/>
      <point x="280" y="511"/>
      <point x="254" y="501" type="curve"/>
      <point x="289" y="589"/>
      <point x="342" y="625"/>
      <point x="392" y="637" type="curve" smooth="yes"/>
      <point x="434" y="647"/>
      <point x="470" y="649"/>
      <point x="510" y="659" type="curve"/>
      <point x="521" y="776" type="line"/>
      <point x="482" y="765"/>
      <point x="447" y="761"/>
      <point x="411" y="754" type="curve" smooth="yes"/>
      <point x="235" y="721"/>
      <point x="131" y="578"/>
      <point x="81" y="415" type="curve" smooth="yes"/>
      <point x="56" y="332"/>
      <point x="42" y="245"/>
      <point x="42" y="163" type="curve" smooth="yes"/>
      <point x="42" y="49"/>
      <point x="101" y="-11"/>
    </contour>
    <contour>
      <point x="214" y="103" type="curve" smooth="yes"/>
      <point x="189" y="103"/>
      <point x="178" y="118"/>
      <point x="178" y="154" type="curve" smooth="yes"/>
      <point x="178" y="220"/>
      <point x="197" y="308"/>
      <point x="221" y="380" type="curve"/>
      <point x="240" y="389"/>
      <point x="258" y="394"/>
      <point x="272" y="394" type="curve" smooth="yes"/>
      <point x="300" y="394"/>
      <point x="310" y="374"/>
      <point x="310" y="340" type="curve" smooth="yes"/>
      <point x="310" y="256"/>
      <point x="272" y="103"/>
    </contour>
  </outline>
</glyph>
<glyph name="de-cy" format="2">
  <advance width="510"/>
  <unicode hex="0434"/>
  <outline>
    <contour>
      <point x="221" y="-11" type="curve" smooth="yes"/>
      <point x="389" y="-11"/>
      <point x="488" y="187"/>
      <point x="488" y="493" type="curve" smooth="yes"/>
      <point x="488" y="703"/>
      <point x="401" y="776"/>
      <point x="286" y="776" type="curve" smooth="yes"/>
      <point x="254" y="776"/>
      <point x="212" y="769"/>
      <point x="161" y="753" type="curve"/>
      <point x="180" y="643" type="line"/>
      <point x="197" y="653"/>
      <point x="220" y="661"/>
      <point x="248" y="661" type="curve" smooth="yes"/>
      <point x="288" y="661"/>
      <point x="331" y="634"/>
      <point x="342" y="522" type="curve"/>
      <point x="334" y="524"/>
      <point x="326" y="525"/>
      <point x="316" y="525" type="curve" smooth="yes"/>
      <point x="179" y="525"/>
      <point x="69" y="384"/>
      <point x="69" y="192" type="curve" smooth="yes"/>
      <point x="69" y="65"/>
      <point x="123" y="-11"/>
    </contour>
    <contour>
      <point x="240" y="103" type="curve" smooth="yes"/>
      <point x="216" y="103"/>
      <point x="208" y="123"/>
      <point x="208" y="167" type="curve" smooth="yes"/>
      <point x="208" y="285"/>
      <point x="253" y="411"/>
      <point x="312" y="411" type="curve" smooth="yes"/>
      <point x="322" y="411"/>
      <point x="333" y="407"/>
      <point x="342" y="398" type="curve"/>
      <point x="333" y="235"/>
      <point x="294" y="103"/>
    </contour>
  </outline>
</glyph>
<glyph name="el-cy" format="2">
  <advance width="517"/>
  <unicode hex="043B"/>
  <outline>
    <contour>
      <point x="-31" y="-10" type="line"/>
      <point x="82" y="0"/>
      <point x="153" y="69"/>
      <point x="202" y="156" type="curve" smooth="yes"/>
      <point x="242" y="227"/>
      <point x="267" y="310"/>
      <point x="286" y="384" type="curve" smooth="yes"/>
      <point x="294" y="415" type="line"/>
      <point x="347" y="415" type="line"/>
      <point x="247" y="0" type="line"/>
      <point x="385" y="0" type="line"/>
      <point x="513" y="532" type="line"/>
      <point x="188" y="532" type="line"/>
      <point x="174" y="472" type="line" smooth="yes"/>
      <point x="151" y="376"/>
      <point x="129" y="268"/>
      <point x="81" y="194" type="curve" smooth="yes"/>
      <point x="52" y="150"/>
      <point x="15" y="118"/>
      <point x="-37" y="107" type="curve"/>
    </contour>
  </outline>
</glyph>
<glyph name="tse-cy" format="2">
  <advance width="493"/>
  <unicode hex="0446"/>
  <outline>
    <contour>
      <point x="267" y="-145" type="line"/>
      <point x="391" y="-145" type="line"/>
      <point x="453" y="113" type="line"/>
      <point x="425" y="117"/>
      <point x="404" y="127"/>
      <point x="404" y="169" type="curve" smooth="yes"/>
      <point x="404" y="183"/>
      <point x="407" y="201"/>
      <point x="412" y="223" type="curve" smooth="yes"/>
      <point x="486" y="532" type="line"/>
      <point x="348" y="532" type="line"/>
      <point x="273" y="219" type="line" smooth="yes"/>
      <point x="266" y="189"/>
      <point x="262" y="160"/>
      <point x="261" y="133" type="curve"/>
      <point x="251" y="117"/>
      <point x="235" y="105"/>
      <point x="217" y="105" type="curve" smooth="yes"/>
      <point x="173" y="105"/>
      <point x="164" y="140"/>
      <point x="185" y="225" type="curve" smooth="yes"/>
      <point x="259" y="532" type="line"/>
      <point x="121" y="532" type="line"/>
      <point x="46" y="219" type="line" smooth="yes"/>
      <point x="12" y="68"/>
      <point x="69" y="-10"/>
      <point x="162" y="-10" type="curve" smooth="yes"/>
      <point x="205" y="-10"/>
      <point x="246" y="6"/>
      <point x="279" y="32" type="curve"/>
      <point x="284" y="18"/>
      <point x="293" y="9"/>
      <point x="302" y="3" type="curve"/>
    </contour>
  </outline>
</glyph>
<glyph name="hardsign-cy" format="2">
  <advance width="476"/>
  <unicode hex="044A"/>
  <outline>
    <contour>
      <point x="198" y="-11" type="curve" smooth="yes"/>
      <point x="345" y="-11"/>
      <point x="432" y="73"/>
      <point x="432" y="216" type="curve" smooth="yes"/>
      <point x="432" y="298"/>
      <point x="382" y="352"/>
      <point x="305" y="352" type="curve" smooth="yes"/>
      <point x="280" y="352"/>
      <point x="266" y="351"/>
      <point x="251" y="347" type="curve"/>
      <point x="295" y="532" type="line"/>
      <point x="73" y="532" type="line"/>
      <point x="45" y="415" type="line"/>
      <point x="129" y="415" type="line"/>
      <point x="32" y="11" type="line"/>
      <point x="78" y="-3"/>
      <point x="141" y="-11"/>
    </contour>
    <contour>
      <point x="221" y="105" type="curve" smooth="yes"/>
      <point x="210" y="105"/>
      <point x="201" y="106"/>
      <point x="194" y="108" type="curve"/>
      <point x="224" y="232" type="line"/>
      <point x="233" y="235"/>
      <point x="243" y="236"/>
      <point x="254" y="236" type="curve" smooth="yes"/>
      <point x="278" y="236"/>
      <point x="292" y="220"/>
      <point x="292" y="191" type="curve" smooth="yes"/>
      <point x="292" y="140"/>
      <point x="263" y="105"/>
    </contour>
  </outline>
</glyph>
<glyph name="e-cy" format="2">
  <advance width="411"/>
  <unicode hex="0454"/>
  <outline>
    <contour>
      <point x="201" y="-14" type="curve" smooth="yes"/>
      <point x="241" y="-14"/>
      <point x="274" y="-7"/>
      <point x="312" y="9" type="curve"/>
      <point x="306" y="114" type="line"/>
      <point x="285" y="107"/>
      <point x="266" y="104"/>
      <point x="249" y="104" type="curve" smooth="yes"/>
      <point x="202" y="104"/>
      <point x="176" y="130"/>
      <point x="176" y="183" type="curve" smooth="yes"/>
      <point x="176" y="193"/>
      <point x="176" y="203"/>
      <point x="177" y="212" type="curve"/>
      <point x="321" y="212" type="line"/>
      <point x="348" y="326" type="line"/>
      <point x="196" y="326" type="line"/>
      <point x="217" y="391"/>
      <point x="256" y="429"/>
      <point x="306" y="429" type="curve" smooth="yes"/>
      <point x="327" y="429"/>
      <point x="351" y="425"/>
      <point x="374" y="414" type="curve"/>
      <point x="417" y="525" type="line"/>
      <point x="384" y="540"/>
      <point x="346" y="546"/>
      <point x="304" y="546" type="curve"/>
      <point x="149" y="546"/>
      <point x="37" y="385"/>
      <point x="37" y="164" type="curve" smooth="yes"/>
      <point x="37" y="52"/>
      <point x="98" y="-14"/>
    </contour>
  </outline>
</glyph>
<glyph name="nje-cy" format="2">
  <advance width="680"/>
  <unicode hex="045A"/>
  <outline>
    <contour>
      <point x="402" y="-11" type="curve" smooth="yes"/>
      <point x="549" y="-11"/>
      <point x="636" y="73"/>
      <point x="636" y="216" type="curve" smooth="yes"/>
      <point x="636" y="295"/>
      <point x="582" y="347"/>
      <point x="500" y="347" type="curve" smooth="yes"/>
      <point x="479" y="347"/>
      <point x="467" y="347"/>
      <point x="455" y="347" type="curve"/>
      <point x="499" y="532" type="line"/>
      <point x="361" y="532" type="line"/>
      <point x="313" y="331" type="line"/>
      <point x="222" y="331" type="line"/>
      <point x="270" y="532" type="line"/>
      <point x="132" y="532" type="line"/>
      <point x="4" y="0" type="line"/>
      <point x="142" y="0" type="line"/>
      <point x="194" y="214" type="line"/>
      <point x="285" y="214" type="line"/>
      <point x="236" y="11" type="line"/>
      <point x="282" y="-3"/>
      <point x="345" y="-11"/>
    </contour>
    <contour>
      <point x="425" y="105" type="curve" smooth="yes"/>
      <point x="414" y="105"/>
      <point x="405" y="106"/>
      <point x="398" y="108" type="curve"/>
      <point x="428" y="232" type="line"/>
      <point x="436" y="232"/>
      <point x="447" y="232"/>
      <point x="458" y="232" type="curve" smooth="yes"/>
      <point x="482" y="232"/>
      <point x="496" y="217"/>
      <point x="496" y="191" type="curve" smooth="yes"/>
      <point x="496" y="140"/>
      <point x="467" y="105"/>
    </contour>
  </outline>
</glyph>
<glyph name="yat-cy" format="2">
  <advance width="679"/>
  <unicode hex="0463"/>
  <outline>
    <contour>
      <point x="401" y="-11" type="curve" smooth="yes"/>
      <point x="548" y="-11"/>
      <point x="635" y="73"/>
      <point x="635" y="216" type="curve" smooth="yes"/>
      <point x="635" y="298"/>
      <point x="585" y="352"/>
      <point x="508" y="352" type="curve" smooth="yes"/>
      <point x="486" y="352"/>
      <point x="467" y="350"/>
      <point x="453" y="347" type="curve"/>
      <point x="456" y="367"/>
      <point x="458" y="385"/>
      <point x="458" y="402" type="curve" smooth="yes"/>
      <point x="458" y="496"/>
      <point x="405" y="542"/>
      <point x="301" y="542" type="curve" smooth="yes"/>
      <point x="243" y="542"/>
      <point x="187" y="531"/>
      <point x="127" y="513" type="curve"/>
      <point x="4" y="0" type="line"/>
      <point x="142" y="0" type="line"/>
      <point x="243" y="421" type="line"/>
      <point x="254" y="425"/>
      <point x="265" y="427"/>
      <point x="274" y="427" type="curve" smooth="yes"/>
      <point x="302" y="427"/>
      <point x="317" y="411"/>
      <point x="317" y="373" type="curve" smooth="yes"/>
      <point x="317" y="356"/>
      <point x="314" y="334"/>
      <point x="307" y="307" type="curve" smooth="yes"/>
      <point x="235" y="11" type="line"/>
      <point x="281" y="-3"/>
      <point x="344" y="-11"/>
    </contour>
    <contour>
      <point x="424" y="105" type="curve" smooth="yes"/>
      <point x="413" y="105"/>
      <point x="404" y="106"/>
      <point x="397" y="108" type="curve"/>
      <point x="427" y="232" type="line"/>
      <point x="436" y="235"/>
      <point x="446" y="236"/>
      <point x="457" y="236" type="curve" smooth="yes"/>
      <point x="481" y="236"/>
      <point x="495" y="220"/>
      <point x="495" y="191" type="curve" smooth="yes"/>
      <point x="495" y="140"/>
      <point x="466" y="105"/>
    </contour>
  </outline>
</glyph>
<glyph name="Fita-cy" format="2">
  <advance width="607"/>
  <unicode hex="0472"/>
  <outline>
    <contour>
      <point x="262" y="-13" type="curve" smooth="yes"/>
      <point x="465" y="-13"/>
      <point x="585" y="243"/>
      <point x="585" y="468" type="curve" smooth="yes"/>
      <point x="585" y="616"/>
      <point x="525" y="707"/>
      <point x="385" y="707" type="curve" smooth="yes"/>
      <point x="180" y="707"/>
      <point x="60" y="452"/>
      <point x="60" y="225" type="curve" smooth="yes"/>
      <point x="60" y="78"/>
      <point x="121" y="-13"/>
    </contour>
    <contour>
      <point x="274" y="110" type="curve" smooth="yes"/>
      <point x="221" y="110"/>
      <point x="206" y="152"/>
      <point x="206" y="222" type="curve" smooth="yes"/>
      <point x="206" y="243"/>
      <point x="208" y="271"/>
      <point x="213" y="303" type="curve"/>
      <point x="222" y="306"/>
      <point x="231" y="307"/>
      <point x="242" y="307" type="curve"/>
      <point x="283" y="307"/>
      <point x="301" y="267"/>
      <point x="368" y="267" type="curve" smooth="yes"/>
      <point x="378" y="267"/>
      <point x="391" y="269"/>
      <point x="404" y="274" type="curve"/>
      <point x="377" y="187"/>
      <point x="333" y="110"/>
    </contour>
    <contour>
      <point x="399" y="377" type="curve" smooth="yes"/>
      <point x="362" y="377"/>
      <point x="344" y="417"/>
      <point x="277" y="417" type="curve" smooth="yes"/>
      <point x="264" y="417"/>
      <point x="251" y="415"/>
      <point x="236" y="409" type="curve"/>
      <point x="262" y="501"/>
      <point x="306" y="585"/>
      <point x="369" y="585" type="curve" smooth="yes"/>
      <point x="418" y="585"/>
      <point x="438" y="542"/>
      <point x="438" y="472" type="curve" smooth="yes"/>
      <point x="438" y="449"/>
      <point x="435" y="417"/>
      <point x="429" y="382" type="curve"/>
      <point x="418" y="379"/>
      <point x="409" y="377"/>
    </contour>
  </outline>
</glyph>
<glyph name="iishorttail-cy" format="2">
  <advance width="493"/>
  <unicode hex="048B"/>
  <outline>
    <contour>
      <point x="317" y="599" type="curve" smooth="yes"/>
      <point x="393" y="599"/>
      <point x="451" y="640"/>
      <point x="477" y="737" type="curve"/>
      <point x="390" y="756" type="line"/>
      <point x="372" y="701"/>
      <point x="351" y="689"/>
      <point x="327" y="689" type="curve" smooth="yes"/>
      <point x="300" y="689"/>
      <point x="284" y="707"/>
      <point x="287" y="757" type="curve"/>
      <point x="191" y="738" type="line"/>
      <point x="186" y="642"/>
      <point x="243" y="599"/>
    </contour>
    <contour>
      <point x="301" y="-156" type="line"/>
      <point x="379" y="-99"/>
      <point x="427" y="-7"/>
      <point x="453" y="113" type="curve"/>
      <point x="425" y="117"/>
      <point x="404" y="127"/>
      <point x="404" y="169" type="curve" smooth="yes"/>
      <point x="404" y="183"/>
      <point x="407" y="201"/>
      <point x="412" y="223" type="curve" smooth="yes"/>
      <point x="486" y="532" type="line"/>
      <point x="348" y="532" type="line"/>
      <point x="273" y="219" type="line" smooth="yes"/>
      <point x="266" y="189"/>
      <point x="262" y="160"/>
      <point x="261" y="133" type="curve"/>
      <point x="251" y="117"/>
      <point x="235" y="105"/>
      <point x="217" y="105" type="curve" smooth="yes"/>
      <point x="188" y="105"/>
      <point x="174" y="120"/>
      <point x="174" y="155" type="curve" smooth="yes"/>
      <point x="174" y="173"/>
      <point x="178" y="196"/>
      <point x="185" y="225" type="curve" smooth="yes"/>
      <point x="259" y="532" type="line"/>
      <point x="121" y="532" type="line"/>
      <point x="46" y="219" type="line" smooth="yes"/>
      <point x="39" y="189"/>
      <point x="36" y="162"/>
      <point x="36" y="138" type="curve" smooth="yes"/>
      <point x="36" y="40"/>
      <point x="87" y="-10"/>
      <point x="162" y="-10" type="curve" smooth="yes"/>
      <point x="205" y="-10"/>
      <point x="246" y="6"/>
      <point x="279" y="32" type="curve"/>
      <point x="284" y="18"/>
      <point x="295" y="6"/>
      <point x="309" y="0" type="curve"/>
      <point x="285" y="-46"/>
      <point x="261" y="-73"/>
      <point x="226" y="-103" type="curve"/>
    </contour>
  </outline>
</glyph>
<glyph name="Ertick-cy" format="2">
  <advance width="525"/>
  <unicode hex="048E"/>
  <outline>
    <contour>
      <point x="11" y="0" type="line"/>
      <point x="153" y="0" type="line"/>
      <point x="210" y="239" type="line"/>
      <point x="241" y="239" type="line" smooth="yes"/>
      <point x="268" y="239"/>
      <point x="293" y="241"/>
      <point x="317" y="246" type="curve"/>
      <point x="334" y="164" type="line"/>
      <point x="415" y="186" type="line"/>
      <point x="397" y="273" type="line"/>
      <point x="493" y="319"/>
      <point x="553" y="410"/>
      <point x="553" y="529" type="curve" smooth="yes"/>
      <point x="553" y="640"/>
      <point x="480" y="703"/>
      <point x="351" y="703" type="curve"/>
      <point x="292" y="703"/>
      <point x="239" y="697"/>
      <point x="175" y="683" type="curve"/>
    </contour>
    <contour>
      <point x="239" y="357" type="line"/>
      <point x="292" y="578" type="line"/>
      <point x="304" y="582"/>
      <point x="320" y="583"/>
      <point x="331" y="583" type="curve" smooth="yes"/>
      <point x="382" y="583"/>
      <point x="409" y="559"/>
      <point x="409" y="511" type="curve" smooth="yes"/>
      <point x="409" y="458"/>
      <point x="398" y="418"/>
      <point x="373" y="392" type="curve"/>
      <point x="358" y="468" type="line"/>
      <point x="277" y="446" type="line"/>
      <point x="295" y="359" type="line"/>
      <point x="284" y="358"/>
      <point x="274" y="357"/>
      <point x="262" y="357" type="curve" smooth="yes"/>
    </contour>
  </outline>
</glyph>
<glyph name="ertick-cy" format="2">
  <advance width="507"/>
  <unicode hex="048F"/>
  <outline>
    <contour>
      <point x="-40" y="-185" type="line"/>
      <point x="98" y="-185" type="line"/>
      <point x="141" y="-4" type="line"/>
      <point x="160" y="-13"/>
      <point x="183" y="-14"/>
      <point x="200" y="-14" type="curve" smooth="yes"/>
      <point x="209" y="-14"/>
      <point x="218" y="-13"/>
      <point x="227" y="-12" type="curve"/>
      <point x="237" y="-110" type="line"/>
      <point x="314" y="-93" type="line"/>
      <point x="303" y="18" type="line"/>
      <point x="399" y="80"/>
      <point x="478" y="220"/>
      <point x="478" y="380" type="curve" smooth="yes"/>
      <point x="478" y="480"/>
      <point x="432" y="542"/>
      <point x="301" y="542" type="curve" smooth="yes"/>
      <point x="256" y="542"/>
      <point x="173" y="530"/>
      <point x="128" y="513" type="curve"/>
    </contour>
    <contour>
      <point x="207" y="101" type="curve" smooth="yes"/>
      <point x="196" y="101"/>
      <point x="179" y="102"/>
      <point x="168" y="106" type="curve"/>
      <point x="242" y="417" type="line"/>
      <point x="259" y="424"/>
      <point x="273" y="426"/>
      <point x="292" y="426" type="curve" smooth="yes"/>
      <point x="326" y="426"/>
      <point x="338" y="406"/>
      <point x="338" y="367" type="curve" smooth="yes"/>
      <point x="338" y="282"/>
      <point x="324" y="199"/>
      <point x="289" y="148" type="curve"/>
      <point x="282" y="221" type="line"/>
      <point x="206" y="202" type="line"/>
      <point x="216" y="101" type="line"/>
      <point x="213" y="101"/>
      <point x="210" y="101"/>
    </contour>
  </outline>
</glyph>
<glyph name="Gestroke-cy" format="2">
  <advance width="446"/>
  <unicode hex="0492"/>
  <outline>
    <contour>
      <point x="12" y="0" type="line"/>
      <point x="154" y="0" type="line"/>
      <point x="229" y="312" type="line"/>
      <point x="362" y="312" type="line"/>
      <point x="387" y="417" type="line"/>
      <point x="254" y="417" type="line"/>
      <point x="292" y="574" type="line"/>
      <point x="488" y="574" type="line"/>
      <point x="516" y="693" type="line"/>
      <point x="178" y="693" type="line"/>
      <point x="112" y="417" type="line"/>
      <point x="51" y="417" type="line"/>
      <point x="26" y="312" type="line"/>
      <point x="87" y="312" type="line"/>
    </contour>
  </outline>
</glyph>
<glyph name="gemiddlehook-cy" format="2">
  <advance width="456"/>
  <unicode hex="0495"/>
  <outline>
    <contour>
      <point x="145" y="-186" type="curve" smooth="yes"/>
      <point x="300" y="-186"/>
      <point x="392" y="18"/>
      <point x="392" y="186" type="curve" smooth="yes"/>
      <point x="392" y="282"/>
      <point x="345" y="327"/>
      <point x="272" y="327" type="curve" smooth="yes"/>
      <point x="255" y="327"/>
      <point x="236" y="325"/>
      <point x="220" y="321" type="curve"/>
      <point x="242" y="415" type="line"/>
      <point x="387" y="415" type="line"/>
      <point x="415" y="532" type="line"/>
      <point x="132" y="532" type="line"/>
      <point x="4" y="0" type="line"/>
      <point x="142" y="0" type="line"/>
      <point x="194" y="213" type="line"/>
      <point x="204" y="215"/>
      <point x="211" y="216"/>
      <point x="219" y="216" type="curve" smooth="yes"/>
      <point x="242" y="216"/>
      <point x="256" y="203"/>
      <point x="256" y="163" type="curve" smooth="yes"/>
      <point x="256" y="76"/>
      <point x="219" y="-76"/>
      <point x="153" y="-76" type="curve" smooth="yes"/>
      <point x="146" y="-76"/>
      <point x="136" y="-75"/>
      <point x="131" y="-74" type="curve"/>
      <point x="100" y="-183" type="line"/>
      <point x="114" y="-185"/>
      <point x="130" y="-186"/>
    </contour>
  </outline>
</glyph>
<glyph name="Zhedescender-cy" format="2">
  <advance width="771"/>
  <unicode hex="0496"/>
  <outline>
    <contour>
      <point x="521" y="-185" type="line"/>
      <point x="656" y="-185" type="line"/>
      <point x="729" y="119" type="line"/>
      <point x="649" y="119" type="line"/>
      <point x="630" y="200"/>
      <point x="603" y="282"/>
      <point x="572" y="351" type="curve"/>
      <point x="666" y="474"/>
      <point x="747" y="584"/>
      <point x="813" y="693" type="curve"/>
      <point x="671" y="693" type="line"/>
      <point x="622" y="607"/>
      <point x="553" y="507"/>
      <point x="468" y="394" type="curve"/>
      <point x="540" y="693" type="line"/>
      <point x="398" y="693" type="line"/>
      <point x="327" y="395" type="line"/>
      <point x="293" y="510"/>
      <point x="268" y="609"/>
      <point x="260" y="693" type="curve"/>
      <point x="129" y="693" type="line"/>
      <point x="142" y="591"/>
      <point x="171" y="491"/>
      <point x="208" y="372" type="curve"/>
      <point x="110" y="269"/>
      <point x="12" y="124"/>
      <point x="-59" y="0" type="curve"/>
      <point x="97" y="0" type="line"/>
      <point x="146" y="95"/>
      <point x="229" y="219"/>
      <point x="303" y="298" type="curve"/>
      <point x="232" y="0" type="line"/>
      <point x="374" y="0" type="line"/>
      <point x="445" y="297" type="line"/>
      <point x="491" y="215"/>
      <point x="518" y="96"/>
      <point x="523" y="0" type="curve"/>
      <point x="565" y="0" type="line"/>
    </contour>
  </outline>
</glyph>
<glyph name="Zedescender-cy" format="2">
  <advance width="460"/>
  <unicode hex="0498"/>
  <outline>
    <contour>
      <point x="72" y="-210" type="curve" smooth="yes"/>
      <point x="159" y="-210"/>
      <point x="216" y="-167"/>
      <point x="216" y="-101" type="curve" smooth="yes"/>
      <point x="216" y="-77"/>
      <point x="206" y="-55"/>
      <point x="177" y="-39" type="curve"/>
      <point x="184" y="-28"/>
      <point x="190" y="-18"/>
      <point x="196" y="-9" type="curve"/>
      <point x="327" y="16"/>
      <point x="409" y="122"/>
      <point x="409" y="235" type="curve" smooth="yes"/>
      <point x="409" y="292"/>
      <point x="385" y="340"/>
      <point x="338" y="368" type="curve"/>
      <point x="416" y="405"/>
      <point x="462" y="477"/>
      <point x="462" y="562" type="curve" smooth="yes"/>
      <point x="462" y="651"/>
      <point x="401" y="708"/>
      <point x="304" y="708" type="curve" smooth="yes"/>
      <point x="237" y="708"/>
      <point x="179" y="698"/>
      <point x="125" y="667" type="curve"/>
      <point x="138" y="556" type="line"/>
      <point x="168" y="576"/>
      <point x="209" y="588"/>
      <point x="243" y="588" type="curve" smooth="yes"/>
      <point x="284" y="588"/>
      <point x="317" y="571"/>
      <point x="317" y="530" type="curve" smooth="yes"/>
      <point x="317" y="463"/>
      <point x="273" y="420"/>
      <point x="184" y="420" type="curve" smooth="yes"/>
      <point x="133" y="420" type="line"/>
      <point x="105" y="306" type="line"/>
      <point x="160" y="306" type="line" smooth="yes"/>
      <point x="227" y="306"/>
      <point x="264" y="275"/>
      <point x="264" y="220" type="curve" smooth="yes"/>
      <point x="264" y="163"/>
      <point x="213" y="105"/>
      <point x="134" y="105" type="curve" smooth="yes"/>
      <point x="94" y="105"/>
      <point x="55" y="115"/>
      <point x="22" y="134" type="curve"/>
      <point x="-37" y="27" type="line"/>
      <point x="0" y="2"/>
      <point x="51" y="-11"/>
      <point x="105" y="-14" type="curve"/>
      <point x="93" y="-33"/>
      <point x="80" y="-55"/>
      <point x="72" y="-71" type="curve"/>
      <point x="101" y="-75"/>
      <point x="115" y="-84"/>
      <point x="115" y="-99" type="curve" smooth="yes"/>
      <point x="115" y="-114"/>
      <point x="101" y="-126"/>
      <point x="75" y="-126" type="curve" smooth="yes"/>
      <point x="60" y="-126"/>
      <point x="42" y="-123"/>
      <point x="29" y="-117" type="curve"/>
      <point x="-1" y="-198" type="line"/>
      <point x="23" y="-206"/>
      <point x="49" y="-210"/>
    </contour>
  </outline>
</glyph>
<glyph name="Kadescender-cy" format="2">
  <advance width="551"/>
  <unicode hex="049A"/>
  <outline>
    <contour>
      <point x="301" y="-185" type="line"/>
      <point x="436" y="-185" type="line"/>
      <point x="509" y="119" type="line"/>
      <point x="430" y="119" type="line"/>
      <point x="413" y="199"/>
      <point x="387" y="277"/>
      <point x="355" y="345" type="curve"/>
      <point x="459" y="474"/>
      <point x="543" y="602"/>
      <point x="601" y="693" type="curve"/>
      <point x="456" y="693" type="line"/>
      <point x="408" y="616"/>
      <point x="336" y="497"/>
      <point x="246" y="385" type="curve"/>
      <point x="320" y="693" type="line"/>
      <point x="178" y="693" type="line"/>
      <point x="12" y="0" type="line"/>
      <point x="154" y="0" type="line"/>
      <point x="225" y="298" type="line"/>
      <point x="272" y="218"/>
      <point x="301" y="102"/>
      <point x="303" y="0" type="curve"/>
      <point x="345" y="0" type="line"/>
    </contour>
  </outline>
</glyph>
<glyph name="kaverticalstroke-cy" format="2">
  <advance width="548"/>
  <unicode hex="049D"/>
  <outline>
    <contour>
      <point x="4" y="0" type="line"/>
      <point x="142" y="0" type="line"/>
      <point x="199" y="236" type="line"/>
      <point x="221" y="236" type="line"/>
      <point x="193" y="120" type="line"/>
      <point x="266" y="120" type="line"/>
      <point x="294" y="235" type="line"/>
      <point x="319" y="160"/>
      <point x="328" y="84"/>
      <point x="330" y="0" type="curve"/>
      <point x="467" y="0" type="line"/>
      <point x="460" y="90"/>
      <point x="449" y="176"/>
      <point x="417" y="279" type="curve"/>
      <point x="500" y="381"/>
      <point x="547" y="451"/>
      <point x="588" y="532" type="curve"/>
      <point x="445" y="532" type="line"/>
      <point x="416" y="467"/>
      <point x="369" y="398"/>
      <point x="316" y="328" type="curve"/>
      <point x="341" y="432" type="line"/>
      <point x="268" y="432" type="line"/>
      <point x="243" y="327" type="line"/>
      <point x="221" y="327" type="line"/>
      <point x="270" y="532" type="line"/>
      <point x="132" y="532" type="line"/>
    </contour>
  </outline>
</glyph>
<glyph name="Kastroke-cy" format="2">
  <advance width="518"/>
  <unicode hex="049E"/>
  <outline>
    <contour>
      <point x="11" y="0" type="line"/>
      <point x="153" y="0" type="line"/>
      <point x="224" y="298" type="line"/>
      <point x="271" y="218"/>
      <point x="300" y="102"/>
      <point x="302" y="0" type="curve"/>
      <point x="445" y="0" type="line"/>
      <point x="437" y="119"/>
      <point x="402" y="243"/>
      <point x="354" y="345" type="curve"/>
      <point x="458" y="474"/>
      <point x="542" y="602"/>
      <point x="600" y="693" type="curve"/>
      <point x="455" y="693" type="line"/>
      <point x="407" y="616"/>
      <point x="335" y="497"/>
      <point x="245" y="385" type="curve"/>
      <point x="285" y="551" type="line"/>
      <point x="337" y="551" type="line"/>
      <point x="360" y="644" type="line"/>
      <point x="307" y="644" type="line"/>
      <point x="319" y="693" type="line"/>
      <point x="177" y="693" type="line"/>
      <point x="165" y="644" type="line"/>
      <point x="103" y="644" type="line"/>
      <point x="80" y="551" type="line"/>
      <point x="143" y="551" type="line"/>
    </contour>
  </outline>
</glyph>
<glyph name="kabashkir-cy" format="2">
  <advance width="498"/>
  <unicode hex="04A1"/>
  <outline>
    <contour>
      <point x="33" y="0" type="line"/>
      <point x="171" y="0" type="line"/>
      <point x="226" y="228" type="line"/>
      <point x="248" y="173"/>
      <point x="267" y="83"/>
      <point x="274" y="0" type="curve"/>
      <point x="417" y="0" type="line"/>
      <point x="408" y="93"/>
      <point x="382" y="192"/>
      <point x="345" y="278" type="curve"/>
      <point x="420" y="366"/>
      <point x="493" y="457"/>
      <point x="543" y="532" type="curve"/>
      <point x="397" y="532" type="line"/>
      <point x="364" y="476"/>
      <point x="297" y="384"/>
      <point x="249" y="325" type="curve"/>
      <point x="299" y="532" type="line"/>
      <point x="71" y="532" type="line"/>
      <point x="43" y="415" type="line"/>
      <point x="133" y="415" type="line"/>
    </contour>
  </outline>
</glyph>
<glyph name="EnGe-cy" format="2">
  <advance width="622"/>
  <unicode hex="04A4"/>
  <outline>
    <contour>
      <point x="12" y="0" type="line"/>
      <point x="154" y="0" type="line"/>
      <point x="226" y="300" type="line"/>
      <point x="374" y="300" type="line"/>
      <point x="302" y="0" type="line"/>
      <point x="444" y="0" type="line"/>
      <point x="581" y="574" type="line"/>
      <point x="689" y="574" type="line"/>
      <point x="717" y="693" type="line"/>
      <point x="468" y="693" type="line"/>
      <point x="403" y="420" type="line"/>
      <point x="255" y="420" type="line"/>
      <point x="320" y="693" type="line"/>
      <point x="178" y="693" type="line"/>
    </contour>
  </outline>
</glyph>
<glyph name="enge-cy" format="2">
  <advance width="526"/>
  <unicode hex="04A5"/>
  <outline>
    <contour>
      <point x="4" y="0" type="line"/>
      <point x="142" y="0" type="line"/>
      <point x="194" y="214" type="line"/>
      <point x="285" y="214" type="line"/>
      <point x="233" y="0" type="line"/>
      <point x="371" y="0" type="line"/>
      <point x="471" y="415" type="line"/>
      <point x="555" y="415" type="line"/>
      <point x="583" y="532" type="line"/>
      <point x="361" y="532" type="line"/>
      <point x="313" y="331" type="line"/>
      <point x="222" y="331" type="line"/>
      <point x="270" y="532" type="line"/>
      <point x="132" y="532" type="line"/>
    </contour>
  </outline>
</glyph>
<glyph name="pemiddlehook-cy" format="2">
  <advance width="684"/>
  <unicode hex="04A7"/>
  <outline>
    <contour>
      <point x="373" y="-186" type="curve" smooth="yes"/>
      <point x="528" y="-186"/>
      <point x="620" y="18"/>
      <point x="620" y="186" type="curve" smooth="yes"/>
      <point x="620" y="282"/>
      <point x="573" y="327"/>
      <point x="500" y="327" type="curve" smooth="yes"/>
      <point x="484" y="327"/>
      <point x="464" y="325"/>
      <point x="448" y="321" type="curve"/>
      <point x="451" y="336" type="line" smooth="yes"/>
      <point x="456" y="361"/>
      <point x="458" y="383"/>
      <point x="458" y="403" type="curve" smooth="yes"/>
      <point x="458" y="497"/>
      <point x="405" y="542"/>
      <point x="301" y="542" type="curve" smooth="yes"/>
      <point x="243" y="542"/>
      <point x="187" y="531"/>
      <point x="127" y="513" type="curve"/>
      <point x="4" y="0" type="line"/>
      <point x="142" y="0" type="line"/>
      <point x="243" y="421" type="line"/>
      <point x="254" y="425"/>
      <point x="265" y="427"/>
      <point x="274" y="427" type="curve" smooth="yes"/>
      <point x="302" y="427"/>
      <point x="317" y="411"/>
      <point x="317" y="373" type="curve" smooth="yes"/>
      <point x="317" y="356"/>
      <point x="314" y="334"/>
      <point x="307" y="307" type="curve" smooth="yes"/>
      <point x="233" y="0" type="line"/>
      <point x="371" y="0" type="line"/>
      <point x="422" y="213" type="line"/>
      <point x="430" y="215"/>
      <point x="439" y="216"/>
      <point x="447" y="216" type="curve" smooth="yes"/>
      <point x="470" y="216"/>
      <point x="484" y="203"/>
      <point x="484" y="163" type="curve" smooth="yes"/>
      <point x="484" y="76"/>
      <point x="447" y="-76"/>
      <point x="381" y="-76" type="curve" smooth="yes"/>
      <point x="374" y="-76"/>
      <point x="364" y="-75"/>
      <point x="359" y="-74" type="curve"/>
      <point x="328" y="-183" type="line"/>
      <point x="342" y="-185"/>
      <point x="358" y="-186"/>
    </contour>
  </outline>
</glyph>
<glyph name="Haabkhasian-cy" format="2">
  <advance width="660"/>
  <unicode hex="04A8"/>
  <outline>
    <contour>
      <point x="264" y="-14" type="curve" smooth="yes"/>
      <point x="293" y="-14"/>
      <point x="327" y="-6"/>
      <point x="361" y="10" type="curve"/>
      <point x="390" y="-5"/>
      <point x="424" y="-13"/>
      <point x="465" y="-13" type="curve" smooth="yes"/>
      <point x="496" y="-13"/>
      <point x="532" y="-8"/>
      <point x="570" y="1" type="curve"/>
      <point x="594" y="113" type="line"/>
      <point x="570" y="106"/>
      <point x="544" y="101"/>
      <point x="526" y="101" type="curve" smooth="yes"/>
      <point x="516" y="101"/>
      <point x="508" y="101"/>
      <point x="500" y="102" type="curve"/>
      <point x="565" y="168"/>
      <point x="611" y="260"/>
      <point x="611" y="359" type="curve" smooth="yes"/>
      <point x="611" y="455"/>
      <point x="556" y="512"/>
      <point x="464" y="512" type="curve" smooth="yes"/>
      <point x="342" y="512"/>
      <point x="254" y="406"/>
      <point x="254" y="228" type="curve" smooth="yes"/>
      <point x="254" y="183"/>
      <point x="260" y="141"/>
      <point x="276" y="106" type="curve" smooth="yes"/>
      <point x="276" y="106"/>
      <point x="276" y="106"/>
      <point x="276" y="106" type="curve"/>
      <point x="211" y="111"/>
      <point x="186" y="162"/>
      <point x="186" y="241" type="curve" smooth="yes"/>
      <point x="186" y="479"/>
      <point x="297" y="585"/>
      <point x="404" y="585" type="curve" smooth="yes"/>
      <point x="441" y="585"/>
      <point x="483" y="576"/>
      <point x="506" y="564" type="curve"/>
      <point x="568" y="679" type="line"/>
      <point x="533" y="698"/>
      <point x="482" y="707"/>
      <point x="428" y="707" type="curve" smooth="yes"/>
      <point x="305" y="707"/>
      <point x="46" y="613"/>
      <point x="46" y="239" type="curve" smooth="yes"/>
      <point x="46" y="104"/>
      <point x="109" y="-14"/>
    </contour>
    <contour>
      <point x="402" y="148" type="curve"/>
      <point x="390" y="169"/>
      <point x="385" y="196"/>
      <point x="385" y="230" type="curve" smooth="yes"/>
      <point x="385" y="293"/>
      <point x="402" y="392"/>
      <point x="449" y="392" type="curve" smooth="yes"/>
      <point x="465" y="392"/>
      <point x="476" y="374"/>
      <point x="476" y="339" type="curve" smooth="yes"/>
      <point x="476" y="257"/>
      <point x="451" y="188"/>
    </contour>
  </outline>
</glyph>
<glyph name="haabkhasian-cy" format="2">
  <advance width="550"/>
  <unicode hex="04A9"/>
  <outline>
    <contour>
      <point x="196" y="-14" type="curve" smooth="yes"/>
      <point x="234" y="-14"/>
      <point x="272" y="-6"/>
      <point x="307" y="8" type="curve"/>
      <point x="333" y="-7"/>
      <point x="363" y="-15"/>
      <point x="394" y="-15" type="curve" smooth="yes"/>
      <point x="412" y="-15"/>
      <point x="431" y="-12"/>
      <point x="451" y="-7" type="curve"/>
      <point x="484" y="95" type="line"/>
      <point x="465" y="90"/>
      <point x="448" y="88"/>
      <point x="432" y="88" type="curve" smooth="yes"/>
      <point x="429" y="88"/>
      <point x="425" y="88"/>
      <point x="422" y="88" type="curve"/>
      <point x="467" y="138"/>
      <point x="496" y="202"/>
      <point x="496" y="271" type="curve" smooth="yes"/>
      <point x="496" y="347"/>
      <point x="455" y="390"/>
      <point x="384" y="390" type="curve"/>
      <point x="283" y="390"/>
      <point x="216" y="278"/>
      <point x="216" y="172" type="curve" smooth="yes"/>
      <point x="216" y="146"/>
      <point x="220" y="118"/>
      <point x="228" y="97" type="curve" smooth="yes"/>
      <point x="228" y="97"/>
      <point x="228" y="97"/>
      <point x="228" y="97" type="curve"/>
      <point x="184" y="99"/>
      <point x="168" y="140"/>
      <point x="168" y="204" type="curve" smooth="yes"/>
      <point x="168" y="306"/>
      <point x="213" y="440"/>
      <point x="323" y="440" type="curve" smooth="yes"/>
      <point x="345" y="440"/>
      <point x="369" y="435"/>
      <point x="392" y="427" type="curve"/>
      <point x="435" y="526" type="line"/>
      <point x="412" y="538"/>
      <point x="371" y="545"/>
      <point x="333" y="545" type="curve" smooth="yes"/>
      <point x="135" y="545"/>
      <point x="38" y="351"/>
      <point x="38" y="196" type="curve" smooth="yes"/>
      <point x="38" y="65"/>
      <point x="99" y="-14"/>
    </contour>
    <contour>
      <point x="343" y="135" type="curve"/>
      <point x="334" y="153"/>
      <point x="329" y="174"/>
      <point x="329" y="199" type="curve" smooth="yes"/>
      <point x="329" y="247"/>
      <point x="344" y="295"/>
      <point x="367" y="295" type="curve"/>
      <point x="378" y="295"/>
      <point x="386" y="286"/>
      <point x="386" y="263" type="curve" smooth="yes"/>
      <point x="386" y="219"/>
      <point x="377" y="168"/>
    </contour>
  </outline>
</glyph>
<glyph name="Ustraightstroke-cy" format="2">
  <advance width="506"/>
  <unicode hex="04B0"/>
  <outline>
    <contour>
      <point x="117" y="0" type="line"/>
      <point x="259" y="0" type="line"/>
      <point x="306" y="193" type="line"/>
      <point x="393" y="193" type="line"/>
      <point x="419" y="299" type="line"/>
      <point x="349" y="299" type="line"/>
      <point x="442" y="434"/>
      <point x="546" y="599"/>
      <point x="596" y="693" type="curve"/>
      <point x="445" y="693" type="line"/>
      <point x="404" y="604"/>
      <point x="348" y="501"/>
      <point x="284" y="402" type="curve"/>
      <point x="270" y="502"/>
      <point x="262" y="604"/>
      <point x="260" y="693" type="curve"/>
      <point x="110" y="693" type="line"/>
      <point x="119" y="599"/>
      <point x="143" y="434"/>
      <point x="172" y="299" type="curve"/>
      <point x="103" y="299" type="line"/>
      <point x="77" y="193" type="line"/>
      <point x="164" y="193" type="line"/>
    </contour>
  </outline>
</glyph>
<glyph name="hadescender-cy" format="2">
  <advance width="451"/>
  <unicode hex="04B3"/>
  <outline>
    <contour>
      <point x="224" y="-145" type="line"/>
      <point x="348" y="-145" type="line"/>
      <point x="409" y="112" type="line"/>
      <point x="337" y="112" type="line"/>
      <point x="325" y="161"/>
      <point x="311" y="212"/>
      <point x="295" y="265" type="curve"/>
      <point x="374" y="368"/>
      <point x="424" y="451"/>
      <point x="469" y="532" type="curve"/>
      <point x="329" y="532" type="line"/>
      <point x="307" y="486"/>
      <point x="281" y="434"/>
      <point x="244" y="370" type="curve"/>
      <point x="209" y="532" type="line"/>
      <point x="69" y="532" type="line"/>
      <point x="142" y="280" type="line"/>
      <point x="-51" y="0" type="line"/>
      <point x="93" y="0" type="line"/>
      <point x="197" y="171" type="line"/>
      <point x="208" y="114"/>
      <point x="216" y="54"/>
      <point x="219" y="0" type="curve"/>
      <point x="258" y="0" type="line"/>
    </contour>
  </outline>
</glyph>
